  0
SECTION
  2
HEADER
  9
$ACADVER
  1
AC1014
  9
$ACADMAINTVER
 70
     9
  9
$DWGCODEPAGE
  3
ANSI_1252
  9
$INSBASE
 10
0.0
 20
0.0
 30
0.0
  9
$EXTMIN
 10
1.000000000000000E+20
 20
1.000000000000000E+20
 30
1.000000000000000E+20
  9
$EXTMAX
 10
-1.000000000000000E+20
 20
-1.000000000000000E+20
 30
-1.000000000000000E+20
  9
$LIMMIN
 10
0.0
 20
0.0
  9
$LIMMAX
 10
12.0
 20
9.0
  9
$ORTHOMODE
 70
     0
  9
$REGENMODE
 70
     1
  9
$FILLMODE
 70
     1
  9
$QTEXTMODE
 70
     0
  9
$MIRRTEXT
 70
     1
  9
$DRAGMODE
 70
     2
  9
$LTSCALE
 40
1.0
  9
$OSMODE
 70
    37
  9
$ATTMODE
 70
     1
  9
$TEXTSIZE
 40
0.2
  9
$TRACEWID
 40
0.05
  9
$TEXTSTYLE
  7
STANDARD
  9
$CLAYER
  8
0
  9
$CELTYPE
  6
BYLAYER
  9
$CECOLOR
 62
   256
  9
$CELTSCALE
 40
1.0
  9
$DELOBJ
 70
     1
  9
$DISPSILH
 70
     0
  9
$DIMSCALE
 40
1.0
  9
$DIMASZ
 40
0.18
  9
$DIMEXO
 40
0.0625
  9
$DIMDLI
 40
0.38
  9
$DIMRND
 40
0.0
  9
$DIMDLE
 40
0.0
  9
$DIMEXE
 40
0.18
  9
$DIMTP
 40
0.0
  9
$DIMTM
 40
0.0
  9
$DIMTXT
 40
0.18
  9
$DIMCEN
 40
0.09
  9
$DIMTSZ
 40
0.0
  9
$DIMTOL
 70
     0
  9
$DIMLIM
 70
     0
  9
$DIMTIH
 70
     1
  9
$DIMTOH
 70
     1
  9
$DIMSE1
 70
     0
  9
$DIMSE2
 70
     0
  9
$DIMTAD
 70
     0
  9
$DIMZIN
 70
     0
  9
$DIMBLK
  1

  9
$DIMASO
 70
     1
  9
$DIMSHO
 70
     1
  9
$DIMPOST
  1

  9
$DIMAPOST
  1

  9
$DIMALT
 70
     0
  9
$DIMALTD
 70
     2
  9
$DIMALTF
 40
25.4
  9
$DIMLFAC
 40
1.0
  9
$DIMTOFL
 70
     0
  9
$DIMTVP
 40
0.0
  9
$DIMTIX
 70
     0
  9
$DIMSOXD
 70
     0
  9
$DIMSAH
 70
     0
  9
$DIMBLK1
  1

  9
$DIMBLK2
  1

  9
$DIMSTYLE
  2
STANDARD
  9
$DIMCLRD
 70
     0
  9
$DIMCLRE
 70
     0
  9
$DIMCLRT
 70
     0
  9
$DIMTFAC
 40
1.0
  9
$DIMGAP
 40
0.09
  9
$DIMJUST
 70
     0
  9
$DIMSD1
 70
     0
  9
$DIMSD2
 70
     0
  9
$DIMTOLJ
 70
     1
  9
$DIMTZIN
 70
     0
  9
$DIMALTZ
 70
     0
  9
$DIMALTTZ
 70
     0
  9
$DIMFIT
 70
     3
  9
$DIMUPT
 70
     0
  9
$DIMUNIT
 70
     2
  9
$DIMDEC
 70
     4
  9
$DIMTDEC
 70
     4
  9
$DIMALTU
 70
     2
  9
$DIMALTTD
 70
     2
  9
$DIMTXSTY
  7
STANDARD
  9
$DIMAUNIT
 70
     0
  9
$LUNITS
 70
     2
  9
$LUPREC
 70
     4
  9
$SKETCHINC
 40
0.1
  9
$FILLETRAD
 40
0.5
  9
$AUNITS
 70
     0
  9
$AUPREC
 70
     0
  9
$MENU
  1
.
  9
$ELEVATION
 40
0.0
  9
$PELEVATION
 40
0.0
  9
$THICKNESS
 40
0.0
  9
$LIMCHECK
 70
     0
  9
$CHAMFERA
 40
0.0
  9
$CHAMFERB
 40
0.0
  9
$CHAMFERC
 40
0.0
  9
$CHAMFERD
 40
0.0
  9
$SKPOLY
 70
     0
  9
$TDCREATE
 40
2459291.497905567
  9
$TDUPDATE
 40
2459291.497905706
  9
$TDINDWG
 40
0.0000000116
  9
$TDUSRTIMER
 40
0.0000000116
  9
$USRTIMER
 70
     1
  9
$ANGBASE
 50
0.0
  9
$ANGDIR
 70
     0
  9
$PDMODE
 70
     0
  9
$PDSIZE
 40
0.0
  9
$PLINEWID
 40
0.0
  9
$COORDS
 70
     1
  9
$SPLFRAME
 70
     0
  9
$SPLINETYPE
 70
     6
  9
$SPLINESEGS
 70
     8
  9
$ATTDIA
 70
     0
  9
$ATTREQ
 70
     1
  9
$HANDLING
 70
     1
  9
$HANDSEED
  5
1F8
  9
$SURFTAB1
 70
     6
  9
$SURFTAB2
 70
     6
  9
$SURFTYPE
 70
     6
  9
$SURFU
 70
     6
  9
$SURFV
 70
     6
  9
$UCSNAME
  2

  9
$UCSORG
 10
0.0
 20
0.0
 30
0.0
  9
$UCSXDIR
 10
1.0
 20
0.0
 30
0.0
  9
$UCSYDIR
 10
0.0
 20
1.0
 30
0.0
  9
$PUCSNAME
  2

  9
$PUCSORG
 10
0.0
 20
0.0
 30
0.0
  9
$PUCSXDIR
 10
1.0
 20
0.0
 30
0.0
  9
$PUCSYDIR
 10
0.0
 20
1.0
 30
0.0
  9
$USERI1
 70
     0
  9
$USERI2
 70
     0
  9
$USERI3
 70
     0
  9
$USERI4
 70
     0
  9
$USERI5
 70
     0
  9
$USERR1
 40
0.0
  9
$USERR2
 40
0.0
  9
$USERR3
 40
0.0
  9
$USERR4
 40
0.0
  9
$USERR5
 40
0.0
  9
$WORLDVIEW
 70
     1
  9
$SHADEDGE
 70
     3
  9
$SHADEDIF
 70
    70
  9
$TILEMODE
 70
     1
  9
$MAXACTVP
 70
    64
  9
$PINSBASE
 10
0.0
 20
0.0
 30
0.0
  9
$PLIMCHECK
 70
     0
  9
$PEXTMIN
 10
1.000000000000000E+20
 20
1.000000000000000E+20
 30
1.000000000000000E+20
  9
$PEXTMAX
 10
-1.000000000000000E+20
 20
-1.000000000000000E+20
 30
-1.000000000000000E+20
  9
$PLIMMIN
 10
0.0
 20
0.0
  9
$PLIMMAX
 10
12.0
 20
9.0
  9
$UNITMODE
 70
     0
  9
$VISRETAIN
 70
     1
  9
$PLINEGEN
 70
     0
  9
$PSLTSCALE
 70
     1
  9
$TREEDEPTH
 70
  3020
  9
$PICKSTYLE
 70
     1
  9
$CMLSTYLE
  2
STANDARD
  9
$CMLJUST
 70
     0
  9
$CMLSCALE
 40
1.0
  9
$PROXYGRAPHICS
 70
     1
  9
$MEASUREMENT
 70
     1
  0
ENDSEC
  0
SECTION
  2
CLASSES
  0
CLASS
  1
ACDBDICTIONARYWDFLT
  2
AcDbDictionaryWithDefault
  3
ObjectDBX Classes
 90
        0
280
     0
281
     0
  0
CLASS
  1
VISUALSTYLE
  2
AcDbVisualStyle
  3
ObjectDBX Classes
 90
     4095
280
     0
281
     0
  0
CLASS
  1
MATERIAL
  2
AcDbMaterial
  3
ObjectDBX Classes
 90
     1153
280
     0
281
     0
  0
CLASS
  1
SCALE
  2
AcDbScale
  3
ObjectDBX Classes
 90
     1153
280
     0
281
     0
  0
CLASS
  1
TABLESTYLE
  2
AcDbTableStyle
  3
ObjectDBX Classes
 90
     4095
280
     0
281
     0
  0
CLASS
  1
MLEADERSTYLE
  2
AcDbMLeaderStyle
  3
ACDB_MLEADERSTYLE_CLASS
 90
     4095
280
     0
281
     0
  0
CLASS
  1
SUN
  2
AcDbSun
  3
SCENEOE
 90
     1153
280
     0
281
     0
  0
CLASS
  1
DICTIONARYVAR
  2
AcDbDictionaryVar
  3
ObjectDBX Classes
 90
        0
280
     0
281
     0
  0
CLASS
  1
XRECORD
  2
AcDbXrecord
  3
ObjectDBX Classes
 90
        0
280
     0
281
     0
  0
CLASS
  1
LWPOLYLINE
  2
AcDbPolyline
  3
ObjectDBX Classes
 90
        0
280
     0
281
     1
  0
CLASS
  1
HATCH
  2
AcDbHatch
  3
ObjectDBX Classes
 90
        0
280
     0
281
     1
  0
CLASS
  1
ACDBPLACEHOLDER
  2
AcDbPlaceHolder
  3
ObjectDBX Classes
 90
        0
280
     0
281
     0
  0
CLASS
  1
LAYOUT
  2
AcDbLayout
  3
ObjectDBX Classes
 90
        0
280
     0
281
     0
  0
ENDSEC
  0
SECTION
  2
TABLES
  0
TABLE
  2
VPORT
  5
8
102
{ACAD_XDICTIONARY
360
1ED
102
}
330
0
100
AcDbSymbolTable
 70
     1
  0
VPORT
  5
29
330
8
100
AcDbSymbolTableRecord
100
AcDbViewportTableRecord
  2
*ACTIVE
 70
     0
 10
0.0
 20
0.0
 11
1.0
 21
1.0
 12
0.0
 22
0.0
 13
0.0
 23
0.0
 14
0.5
 24
0.5
 15
0.5
 25
0.5
 16
0.0
 26
0.0
 36
1.0
 17
0.0
 27
0.0
 37
-1000.0
 40
296.6032646969209
 41
2.061191626409018
 42
50.0
 43
470.3526863383572
 44
721.5748876629092
 50
0.0
 51
0.0
 71
     0
 72
   100
 73
     1
 74
     3
 75
     0
 76
     0
 77
     0
 78
     0
  0
ENDTAB
  0
TABLE
  2
LTYPE
  5
5
330
0
100
AcDbSymbolTable
 70
     1
  0
LTYPE
  5
14
330
5
100
AcDbSymbolTableRecord
100
AcDbLinetypeTableRecord
  2
BYBLOCK
 70
     0
  3

 72
    65
 73
     0
 40
0.0
  0
LTYPE
  5
15
330
5
100
AcDbSymbolTableRecord
100
AcDbLinetypeTableRecord
  2
BYLAYER
 70
     0
  3

 72
    65
 73
     0
 40
0.0
  0
LTYPE
  5
16
330
5
100
AcDbSymbolTableRecord
100
AcDbLinetypeTableRecord
  2
CONTINUOUS
 70
     0
  3
Solid line
 72
    65
 73
     0
 40
0.0
  0
ENDTAB
  0
TABLE
  2
LAYER
  5
2
330
0
100
AcDbSymbolTable
 70
     3
  0
LAYER
  5
10
330
2
100
AcDbSymbolTableRecord
100
AcDbLayerTableRecord
  2
0
 70
     0
 62
     7
  6
CONTINUOUS
  0
LAYER
  5
6E
330
2
100
AcDbSymbolTableRecord
100
AcDbLayerTableRecord
  2
PROFILEEDGES
 70
     0
 62
     7
  6
CONTINUOUS
  0
LAYER
  5
6F
330
2
100
AcDbSymbolTableRecord
100
AcDbLayerTableRecord
  2
SECTIONCUTEDGES
 70
     0
 62
     7
  6
CONTINUOUS
  0
ENDTAB
  0
TABLE
  2
STYLE
  5
3
330
0
100
AcDbSymbolTable
 70
     1
  0
STYLE
  5
11
330
3
100
AcDbSymbolTableRecord
100
AcDbTextStyleTableRecord
  2
STANDARD
 70
     0
 40
0.0
 41
1.0
 50
0.0
 71
     0
 42
0.2
  3
txt
  4

  0
ENDTAB
  0
TABLE
  2
VIEW
  5
6
330
0
100
AcDbSymbolTable
 70
     0
  0
ENDTAB
  0
TABLE
  2
UCS
  5
7
330
0
100
AcDbSymbolTable
 70
     0
  0
ENDTAB
  0
TABLE
  2
APPID
  5
9
330
0
100
AcDbSymbolTable
 70
     2
  0
APPID
  5
12
330
9
100
AcDbSymbolTableRecord
100
AcDbRegAppTableRecord
  2
ACAD
 70
     0
  0
APPID
  5
1F7
330
9
100
AcDbSymbolTableRecord
100
AcDbRegAppTableRecord
  2
ACAD_MLEADERVER
 70
     0
  0
ENDTAB
  0
TABLE
  2
DIMSTYLE
  5
A
330
0
100
AcDbSymbolTable
 70
     1
  0
DIMSTYLE
105
27
330
A
100
AcDbSymbolTableRecord
100
AcDbDimStyleTableRecord
  2
STANDARD
 70
     0
  3

  4

  5

  6

  7

 40
1.0
 41
0.18
 42
0.0625
 43
0.38
 44
0.18
 45
0.0
 46
0.0
 47
0.0
 48
0.0
140
0.18
141
0.09
142
0.0
143
25.4
144
1.0
145
0.0
146
1.0
147
0.09
 71
     0
 72
     0
 73
     1
 74
     1
 75
     0
 76
     0
 77
     0
 78
     0
170
     0
171
     2
172
     0
173
     0
174
     0
175
     0
176
     0
177
     0
178
     0
270
     2
271
     4
272
     4
273
     2
274
     2
340
11
275
     0
280
     0
281
     0
282
     0
283
     1
284
     0
285
     0
286
     0
287
     3
288
     0
  0
ENDTAB
  0
TABLE
  2
BLOCK_RECORD
  5
1
330
0
100
AcDbSymbolTable
 70
     0
  0
BLOCK_RECORD
  5
1F
330
1
100
AcDbSymbolTableRecord
100
AcDbBlockTableRecord
  2
*MODEL_SPACE
  0
BLOCK_RECORD
  5
1B
330
1
100
AcDbSymbolTableRecord
100
AcDbBlockTableRecord
  2
*PAPER_SPACE
  0
ENDTAB
  0
ENDSEC
  0
SECTION
  2
BLOCKS
  0
BLOCK
  5
20
330
1F
100
AcDbEntity
  8
0
100
AcDbBlockBegin
  2
*MODEL_SPACE
 70
     0
 10
0.0
 20
0.0
 30
0.0
  3
*MODEL_SPACE
  1

  0
ENDBLK
  5
21
330
1F
100
AcDbEntity
  8
0
100
AcDbBlockEnd
  0
BLOCK
  5
1C
330
1B
100
AcDbEntity
 67
     1
  8
0
100
AcDbBlockBegin
  2
*PAPER_SPACE
 70
     0
 10
0.0
 20
0.0
 30
0.0
  3
*PAPER_SPACE
  1

  0
ENDBLK
  5
1D
330
1B
100
AcDbEntity
 67
     1
  8
0
100
AcDbBlockEnd
  0
ENDSEC
  0
SECTION
  2
ENTITIES
  0
LINE
  5
70
330
1F
100
AcDbEntity
  8
0
100
AcDbLine
 10
-16.96028347505816
 20
26.92998327685275
 30
0.0
 11
-17.30315965587267
 21
26.87474332768469
 31
0.0
  0
LINE
  5
71
330
1F
100
AcDbEntity
  8
0
100
AcDbLine
 10
-15.62387313491405
 20
26.72855156926853
 30
0.0
 11
-15.93202763588784
 21
26.84048303237731
 31
0.0
  0
LINE
  5
72
330
1F
100
AcDbEntity
  8
0
100
AcDbLine
 10
-15.93202763588784
 20
26.84048303237731
 30
0.0
 11
-16.26422960426744
 21
26.91259331881118
 31
0.0
  0
LINE
  5
73
330
1F
100
AcDbEntity
  8
0
100
AcDbLine
 10
-16.26422960426744
 20
26.91259331881118
 30
0.0
 11
-16.61045979397295
 21
26.94272684749169
 31
0.0
  0
LINE
  5
74
330
1F
100
AcDbEntity
  8
0
100
AcDbLine
 10
-16.61045979397295
 20
26.94272684749169
 30
0.0
 11
-16.96028347505816
 21
26.92998327685275
 31
0.0
  0
LINE
  5
75
330
1F
100
AcDbEntity
  8
0
100
AcDbLine
 10
72.31007177420524
 20
24.53619119213328
 30
0.0
 11
72.03421741698452
 21
24.40064260772088
 31
0.0
  0
LINE
  5
76
330
1F
100
AcDbEntity
  8
0
100
AcDbLine
 10
75.1323363432603
 20
23.94370308006993
 30
0.0
 11
74.90882255733314
 21
24.15303918637943
 31
0.0
  0
LINE
  5
77
330
1F
100
AcDbEntity
  8
0
100
AcDbLine
 10
74.90882255733314
 20
24.15303918637943
 30
0.0
 11
74.64109291958387
 21
24.33547317975793
 31
0.0
  0
LINE
  5
78
330
1F
100
AcDbEntity
  8
0
100
AcDbLine
 10
74.64109291958387
 20
24.33547317975793
 30
0.0
 11
74.33727844600429
 21
24.48552749086168
 31
0.0
  0
LINE
  5
79
330
1F
100
AcDbEntity
  8
0
100
AcDbLine
 10
-15.11832558685306
 20
26.4015513448034
 30
0.0
 11
-15.34907489785342
 21
26.58014911223247
 31
0.0
  0
LINE
  5
7A
330
1F
100
AcDbEntity
  8
0
100
AcDbLine
 10
-15.34907489785342
 20
26.58014911223247
 30
0.0
 11
-15.62387313491405
 21
26.72855156926853
 31
0.0
  0
LINE
  5
7B
330
1F
100
AcDbEntity
  8
0
100
AcDbLine
 10
74.33727844600429
 20
24.48552749086168
 30
0.0
 11
74.00656585066513
 21
24.59870328448294
 31
0.0
  0
LINE
  5
7C
330
1F
100
AcDbEntity
  8
0
100
AcDbLine
 10
74.00656585066513
 20
24.59870328448294
 30
0.0
 11
73.65896786538013
 21
24.6716156010643
 31
0.0
  0
LINE
  5
7D
330
1F
100
AcDbEntity
  8
0
100
AcDbLine
 10
73.65896786538013
 20
24.6716156010643
 30
0.0
 11
73.30494363197384
 21
24.70208409921908
 31
0.0
  0
LINE
  5
7E
330
1F
100
AcDbEntity
  8
0
100
AcDbLine
 10
72.03421741698452
 20
24.40064260772088
 30
0.0
 11
71.94484977506042
 21
24.33555613441135
 31
0.0
  0
LINE
  5
7F
330
1F
100
AcDbEntity
  8
0
100
AcDbLine
 10
-17.30315965587267
 20
26.87474332768469
 30
0.0
 11
-17.62875541305799
 21
26.77865787728166
 31
0.0
  0
LINE
  5
80
330
1F
100
AcDbEntity
  8
0
100
AcDbLine
 10
-17.62875541305799
 20
26.77865787728166
 30
0.0
 11
-17.92723839796024
 21
26.64460141889563
 31
0.0
  0
LINE
  5
81
330
1F
100
AcDbEntity
  8
0
100
AcDbLine
 10
-17.92723839796024
 20
26.64460141889563
 30
0.0
 11
-18.1895799098357
 21
26.47658782016946
 31
0.0
  0
LINE
  5
82
330
1F
100
AcDbEntity
  8
0
100
AcDbLine
 10
75.21324268304188
 20
23.83584886018613
 30
0.0
 11
75.1323363432603
 21
23.94370308006993
 31
0.0
  0
LINE
  5
83
330
1F
100
AcDbEntity
  8
0
100
AcDbLine
 10
73.30494363197384
 20
24.70208409921908
 30
0.0
 11
72.95516586115222
 21
24.68919893595653
 31
0.0
  0
LINE
  5
84
330
1F
100
AcDbEntity
  8
0
100
AcDbLine
 10
72.95516586115222
 20
24.68919893595653
 30
0.0
 11
72.62017939011723
 21
24.6333443559563
 31
0.0
  0
LINE
  5
85
330
1F
100
AcDbEntity
  8
0
100
AcDbLine
 10
72.62017939011723
 20
24.6333443559563
 30
0.0
 11
72.31007177420524
 21
24.53619119213328
 31
0.0
  0
LINE
  5
86
330
1F
100
AcDbEntity
  8
0
100
AcDbLine
 10
79.50217479605692
 20
-38.75372692140662
 30
0.0
 11
79.10780487209998
 21
-38.77012392794179
 31
0.0
  0
LINE
  5
87
330
1F
100
AcDbEntity
  8
0
100
AcDbLine
 10
-20.9080518827535
 20
-28.83887103006562
 30
0.0
 11
-21.29384341024373
 21
-28.80146874924172
 31
0.0
  0
LINE
  5
88
330
1F
100
AcDbEntity
  8
0
100
AcDbLine
 10
-20.53833646885504
 20
-28.92837049621584
 30
0.0
 11
-20.9080518827535
 21
-28.83887103006562
 31
0.0
  0
LINE
  5
89
330
1F
100
AcDbEntity
  8
0
100
AcDbLine
 10
78.0729308168334
 20
-39.13730839325449
 30
0.0
 11
77.81873923470741
 21
-39.34801605361191
 31
0.0
  0
LINE
  5
8A
330
1F
100
AcDbEntity
  8
0
100
AcDbLine
 10
-19.48900854265872
 20
-29.65706631273305
 30
0.0
 11
-19.63274959940257
 21
-29.47550229140604
 31
0.0
  0
LINE
  5
8B
330
1F
100
AcDbEntity
  8
0
100
AcDbLine
 10
-21.29384341024373
 20
-28.80146874924172
 30
0.0
 11
-21.68409487067345
 21
-28.81728735465832
 31
0.0
  0
LINE
  5
8C
330
1F
100
AcDbEntity
  8
0
100
AcDbLine
 10
-21.68409487067345
 20
-28.81728735465832
 30
0.0
 11
-22.06706193133941
 21
-28.8858467272834
 31
0.0
  0
LINE
  5
8D
330
1F
100
AcDbEntity
  8
0
100
AcDbLine
 10
-22.06706193133941
 20
-28.8858467272834
 30
0.0
 11
-22.43120389056414
 21
-29.00511311135606
 31
0.0
  0
LINE
  5
8E
330
1F
100
AcDbEntity
  8
0
100
AcDbLine
 10
79.10780487209998
 20
-38.77012392794179
 30
0.0
 11
78.7307139118858
 21
-38.84119085999816
 31
0.0
  0
LINE
  5
8F
330
1F
100
AcDbEntity
  8
0
100
AcDbLine
 10
78.7307139118858
 20
-38.84119085999816
 30
0.0
 11
78.38224685181316
 21
-38.96481175141045
 31
0.0
  0
LINE
  5
90
330
1F
100
AcDbEntity
  8
0
100
AcDbLine
 10
78.38224685181316
 20
-38.96481175141045
 30
0.0
 11
78.0729308168334
 21
-39.13730839325449
 31
0.0
  0
LINE
  5
91
330
1F
100
AcDbEntity
  8
0
100
AcDbLine
 10
-18.1895799098357
 20
26.47658782016946
 30
0.0
 11
-18.40152905734627
 21
26.28533749867047
 31
0.0
  0
LINE
  5
92
330
1F
100
AcDbEntity
  8
0
100
AcDbLine
 10
81.01466853578899
 20
-39.22024373020295
 30
0.0
 11
80.66977045179497
 21
-39.02928218363211
 31
0.0
  0
LINE
  5
93
330
1F
100
AcDbEntity
  8
0
100
AcDbLine
 10
80.66977045179497
 20
-39.02928218363211
 30
0.0
 11
80.29508583533021
 21
-38.88526982643331
 31
0.0
  0
LINE
  5
94
330
1F
100
AcDbEntity
  8
0
100
AcDbLine
 10
80.29508583533021
 20
-38.88526982643331
 30
0.0
 11
79.9019483050565
 21
-38.79249706582679
 31
0.0
  0
LINE
  5
95
330
1F
100
AcDbEntity
  8
0
100
AcDbLine
 10
79.9019483050565
 20
-38.79249706582679
 30
0.0
 11
79.50217479605692
 21
-38.75372692140662
 31
0.0
  0
LINE
  5
96
330
1F
100
AcDbEntity
  8
0
100
AcDbLine
 10
-19.63274959940257
 20
-29.47550229140604
 30
0.0
 11
-19.890895955677
 21
-29.25152055733082
 31
0.0
  0
LINE
  5
97
330
1F
100
AcDbEntity
  8
0
100
AcDbLine
 10
-19.890895955677
 20
-29.25152055733082
 30
0.0
 11
-20.19583629723558
 21
-29.06730782759491
 31
0.0
  0
LINE
  5
98
330
1F
100
AcDbEntity
  8
0
100
AcDbLine
 10
-20.19583629723558
 20
-29.06730782759491
 30
0.0
 11
-20.53833646885504
 21
-28.92837049621584
 31
0.0
  0
LINE
  5
99
330
1F
100
AcDbEntity
  8
0
100
AcDbLine
 10
104.3261614865314
 20
-48.66550996479514
 30
0.0
 11
-59.39438693338531
 21
-43.97740289695888
 31
0.0
  0
LINE
  5
9A
330
1F
100
AcDbEntity
  8
0
100
AcDbLine
 10
81.86892031099356
 20
-40.23354140513775
 30
0.0
 11
81.77256001047078
 21
-40.01157383571266
 31
0.0
  0
LINE
  5
9B
330
1F
100
AcDbEntity
  8
0
100
AcDbLine
 10
81.77256001047078
 20
-40.01157383571266
 30
0.0
 11
81.57457961500738
 21
-39.71887105900034
 31
0.0
  0
LINE
  5
9C
330
1F
100
AcDbEntity
  8
0
100
AcDbLine
 10
81.57457961500738
 20
-39.71887105900034
 30
0.0
 11
81.31935530948971
 21
-39.45242461160489
 31
0.0
  0
LINE
  5
9D
330
1F
100
AcDbEntity
  8
0
100
AcDbLine
 10
81.31935530948971
 20
-39.45242461160489
 30
0.0
 11
81.01466853578899
 21
-39.22024373020295
 31
0.0
  0
LINE
  5
9E
330
1F
100
AcDbEntity
  8
0
100
AcDbLine
 10
-22.43120389056414
 20
-29.00511311135606
 30
0.0
 11
-22.76554598596654
 21
-29.17151348470805
 31
0.0
  0
LINE
  5
9F
330
1F
100
AcDbEntity
  8
0
100
AcDbLine
 10
-22.76554598596654
 20
-29.17151348470805
 30
0.0
 11
-23.05997333612445
 21
-29.38007840354637
 31
0.0
  0
LINE
  5
A0
330
1F
100
AcDbEntity
  8
0
100
AcDbLine
 10
-23.05997333612445
 20
-29.38007840354637
 30
0.0
 11
-23.30554970731441
 21
-29.62455881949335
 31
0.0
  0
LINE
  5
A1
330
1F
100
AcDbEntity
  8
0
100
AcDbLine
 10
-23.30554970731441
 20
-29.62455881949335
 30
0.0
 11
-23.48156672554127
 21
-29.87852979226577
 31
0.0
  0
LINE
  5
A2
330
1F
100
AcDbEntity
  8
0
100
AcDbLine
 10
107.7712568888011
 20
-46.65914118689146
 30
0.0
 11
107.5517201929428
 21
-47.15685903175041
 31
0.0
  0
LINE
  5
A3
330
1F
100
AcDbEntity
  8
0
100
AcDbLine
 10
-60.58483959137801
 20
-43.78752201065488
 30
0.0
 11
-61.12514613872952
 21
-43.58103491553861
 31
0.0
  0
LINE
  5
A4
330
1F
100
AcDbEntity
  8
0
100
AcDbLine
 10
105.0128754144347
 20
-48.63639997520869
 30
0.0
 11
104.3261614865314
 21
-48.66550996479514
 31
0.0
  0
LINE
  5
A5
330
1F
100
AcDbEntity
  8
0
100
AcDbLine
 10
105.6647642039795
 20
-48.5102737720619
 30
0.0
 11
105.0128754144347
 21
-48.63639997520869
 31
0.0
  0
LINE
  5
A6
330
1F
100
AcDbEntity
  8
0
100
AcDbLine
 10
106.2617129954479
 20
-48.29108821813158
 30
0.0
 11
105.6647642039795
 21
-48.5102737720619
 31
0.0
  0
LINE
  5
A7
330
1F
100
AcDbEntity
  8
0
100
AcDbLine
 10
107.5517201929428
 20
-47.15685903175041
 30
0.0
 11
107.2197650956141
 21
-47.60366593011882
 31
0.0
  0
LINE
  5
A8
330
1F
100
AcDbEntity
  8
0
100
AcDbLine
 10
107.2197650956141
 20
-47.60366593011882
 30
0.0
 11
106.7853808937319
 21
-47.98569919553824
 31
0.0
  0
LINE
  5
A9
330
1F
100
AcDbEntity
  8
0
100
AcDbLine
 10
106.7853808937319
 20
-47.98569919553824
 30
0.0
 11
106.2617129954479
 21
-48.29108821813158
 31
0.0
  0
LINE
  5
AA
330
1F
100
AcDbEntity
  8
0
100
AcDbLine
 10
-59.39438693338531
 20
-43.97740289695888
 30
0.0
 11
-60.00307690108134
 21
-43.92077699823738
 31
0.0
  0
LINE
  5
AB
330
1F
100
AcDbEntity
  8
0
100
AcDbLine
 10
-60.00307690108134
 20
-43.92077699823738
 30
0.0
 11
-60.58483959137801
 21
-43.78752201065488
 31
0.0
  0
LINE
  5
AC
330
1F
100
AcDbEntity
  8
0
100
AcDbLine
 10
-61.12514613872952
 20
-43.58103491553861
 30
0.0
 11
-61.61054332877448
 21
-43.30655866790024
 31
0.0
  0
LINE
  5
AD
330
1F
100
AcDbEntity
  8
0
100
AcDbLine
 10
-61.61054332877448
 20
-43.30655866790024
 30
0.0
 11
-62.02899935934427
 21
-42.97102431168366
 31
0.0
  0
LINE
  5
AE
330
1F
100
AcDbEntity
  8
0
100
AcDbLine
 10
-62.02899935934427
 20
-42.97102431168366
 30
0.0
 11
-62.37021339852108
 21
-42.58290601381769
 31
0.0
  0
LINE
  5
AF
330
1F
100
AcDbEntity
  8
0
100
AcDbLine
 10
-62.37021339852108
 20
-42.58290601381769
 30
0.0
 11
-62.62586176782559
 21
-42.15194681666566
 31
0.0
  0
LINE
  5
B0
330
1F
100
AcDbEntity
  8
0
100
AcDbLine
 10
-62.62586176782559
 20
-42.15194681666566
 30
0.0
 11
-62.78980327118276
 21
-41.68895081190509
 31
0.0
  0
LINE
  5
B1
330
1F
100
AcDbEntity
  8
0
100
AcDbLine
 10
-18.79867563793186
 20
26.97489381959848
 30
0.0
 11
-18.80748261148787
 21
27.22224742761529
 31
0.0
  0
LINE
  5
B2
330
1F
100
AcDbEntity
  8
0
100
AcDbLine
 10
-18.80748261148787
 20
27.22224742761529
 30
0.0
 11
-18.75503371557623
 21
27.46782453717795
 31
0.0
  0
LINE
  5
B3
330
1F
100
AcDbEntity
  8
0
100
AcDbLine
 10
-51.66828072735458
 20
33.25024825266674
 30
0.0
 11
-51.76889293392777
 21
32.87888289750965
 31
0.0
  0
LINE
  5
B4
330
1F
100
AcDbEntity
  8
0
100
AcDbLine
 10
-17.69291870528036
 20
28.42331379056063
 30
0.0
 11
-17.36612557621203
 21
28.51942761473895
 31
0.0
  0
LINE
  5
B5
330
1F
100
AcDbEntity
  8
0
100
AcDbLine
 10
-17.99250586070402
 20
28.28921751812669
 30
0.0
 11
-17.69291870528036
 21
28.42331379056063
 31
0.0
  0
LINE
  5
B6
330
1F
100
AcDbEntity
  8
0
100
AcDbLine
 10
-18.6430087404695
 20
27.70417975493052
 30
0.0
 11
-18.47488718662335
 21
27.92416696659491
 31
0.0
  0
LINE
  5
B7
330
1F
100
AcDbEntity
  8
0
100
AcDbLine
 10
-18.47488718662335
 20
27.92416696659491
 30
0.0
 11
-18.2558250902568
 21
28.12115364596421
 31
0.0
  0
LINE
  5
B8
330
1F
100
AcDbEntity
  8
0
100
AcDbLine
 10
-18.2558250902568
 20
28.12115364596421
 30
0.0
 11
-17.99250586070402
 21
28.28921751812669
 31
0.0
  0
LINE
  5
B9
330
1F
100
AcDbEntity
  8
0
100
AcDbLine
 10
72.0636462167138
 20
25.8746142101652
 30
0.0
 11
72.29766757951231
 21
26.04455290786354
 31
0.0
  0
LINE
  5
BA
330
1F
100
AcDbEntity
  8
0
100
AcDbLine
 10
71.87953376370825
 20
25.67542720090431
 30
0.0
 11
72.0636462167138
 21
25.8746142101652
 31
0.0
  0
LINE
  5
BB
330
1F
100
AcDbEntity
  8
0
100
AcDbLine
 10
-49.06258321925277
 20
35.07631816883112
 30
0.0
 11
-49.5777873723905
 21
34.94665246911119
 31
0.0
  0
LINE
  5
BC
330
1F
100
AcDbEntity
  8
0
100
AcDbLine
 10
73.14766169791564
 20
23.57962999576142
 30
0.0
 11
72.81431095396167
 21
23.69401485189591
 31
0.0
  0
LINE
  5
BD
330
1F
100
AcDbEntity
  8
0
100
AcDbLine
 10
71.84386863259734
 20
24.4712264394548
 30
0.0
 11
71.72890786004696
 21
24.71554037912769
 31
0.0
  0
LINE
  5
BE
330
1F
100
AcDbEntity
  8
0
100
AcDbLine
 10
75.69732401399564
 20
25.11376488471847
 30
0.0
 11
75.75388218321172
 21
24.86379289651538
 31
0.0
  0
LINE
  5
BF
330
1F
100
AcDbEntity
  8
0
100
AcDbLine
 10
-17.90570978407454
 20
25.96468949550208
 30
0.0
 11
-18.18199741315914
 21
26.1145030207149
 31
0.0
  0
LINE
  5
C0
330
1F
100
AcDbEntity
  8
0
100
AcDbLine
 10
-18.75503371557623
 20
27.46782453717795
 30
0.0
 11
-18.6430087404695
 21
27.70417975493052
 31
0.0
  0
LINE
  5
C1
330
1F
100
AcDbEntity
  8
0
100
AcDbLine
 10
-47.99333453041016
 20
35.16596865801413
 30
0.0
 11
-48.53012222133499
 21
35.15001190633466
 31
0.0
  0
LINE
  5
C2
330
1F
100
AcDbEntity
  8
0
100
AcDbLine
 10
-48.53012222133499
 20
35.15001190633466
 30
0.0
 11
-49.06258321925277
 21
35.07631816883112
 31
0.0
  0
LINE
  5
C3
330
1F
100
AcDbEntity
  8
0
100
AcDbLine
 10
-49.5777873723905
 20
34.94665246911119
 30
0.0
 11
-50.06320140488703
 21
34.76411895010629
 31
0.0
  0
LINE
  5
C4
330
1F
100
AcDbEntity
  8
0
100
AcDbLine
 10
-50.06320140488703
 20
34.76411895010629
 30
0.0
 11
-50.50698308836426
 21
34.53310105080797
 31
0.0
  0
LINE
  5
C5
330
1F
100
AcDbEntity
  8
0
100
AcDbLine
 10
-50.50698308836426
 20
34.53310105080797
 30
0.0
 11
-50.8982620800876
 21
34.25915862213102
 31
0.0
  0
LINE
  5
C6
330
1F
100
AcDbEntity
  8
0
100
AcDbLine
 10
72.81431095396167
 20
23.69401485189591
 30
0.0
 11
72.5085338201615
 21
23.84550856738347
 31
0.0
  0
LINE
  5
C7
330
1F
100
AcDbEntity
  8
0
100
AcDbLine
 10
72.5085338201615
 20
23.84550856738347
 30
0.0
 11
72.23964534285953
 21
24.02944645494417
 31
0.0
  0
LINE
  5
C8
330
1F
100
AcDbEntity
  8
0
100
AcDbLine
 10
72.23964534285953
 20
24.02944645494417
 30
0.0
 11
72.01584455454868
 21
24.24017314354069
 31
0.0
  0
LINE
  5
C9
330
1F
100
AcDbEntity
  8
0
100
AcDbLine
 10
74.60910488034244
 20
26.12946584179929
 30
0.0
 11
74.91411318277682
 21
25.97936187208945
 31
0.0
  0
LINE
  5
CA
330
1F
100
AcDbEntity
  8
0
100
AcDbLine
 10
-50.8982620800876
 20
34.25915862213102
 30
0.0
 11
-51.22740212874879
 21
33.94890171491019
 31
0.0
  0
LINE
  5
CB
330
1F
100
AcDbEntity
  8
0
100
AcDbLine
 10
-51.22740212874879
 20
33.94890171491019
 30
0.0
 11
-51.48623745664048
 21
33.60984964719918
 31
0.0
  0
LINE
  5
CC
330
1F
100
AcDbEntity
  8
0
100
AcDbLine
 10
-51.48623745664048
 20
33.60984964719918
 30
0.0
 11
-51.66828072735458
 21
33.25024825266674
 31
0.0
  0
LINE
  5
CD
330
1F
100
AcDbEntity
  8
0
100
AcDbLine
 10
71.67436354710932
 20
24.96566269395571
 30
0.0
 11
71.68181195307805
 21
25.21398607956633
 31
0.0
  0
LINE
  5
CE
330
1F
100
AcDbEntity
  8
0
100
AcDbLine
 10
71.68181195307805
 20
25.21398607956633
 30
0.0
 11
71.75092494694405
 21
25.45298328501501
 31
0.0
  0
LINE
  5
CF
330
1F
100
AcDbEntity
  8
0
100
AcDbLine
 10
71.75092494694405
 20
25.45298328501501
 30
0.0
 11
71.87953376370825
 21
25.67542720090431
 31
0.0
  0
LINE
  5
D0
330
1F
100
AcDbEntity
  8
0
100
AcDbLine
 10
72.29766757951231
 20
26.04455290786354
 30
0.0
 11
72.57445828552868
 21
26.18014623459019
 31
0.0
  0
LINE
  5
D1
330
1F
100
AcDbEntity
  8
0
100
AcDbLine
 10
72.57445828552868
 20
26.18014623459019
 30
0.0
 11
72.88564753561798
 21
26.27733130030121
 31
0.0
  0
LINE
  5
D2
330
1F
100
AcDbEntity
  8
0
100
AcDbLine
 10
93.67863735667213
 20
31.68008015090415
 30
0.0
 11
-47.99333453041016
 21
35.16596865801413
 31
0.0
  0
LINE
  5
D3
330
1F
100
AcDbEntity
  8
0
100
AcDbLine
 10
72.88564753561798
 20
26.27733130030121
 30
0.0
 11
73.22182841917972
 21
26.33320415806768
 31
0.0
  0
LINE
  5
D4
330
1F
100
AcDbEntity
  8
0
100
AcDbLine
 10
73.22182841917972
 20
26.33320415806768
 30
0.0
 11
73.57287769293826
 21
26.34609353131853
 31
0.0
  0
LINE
  5
D5
330
1F
100
AcDbEntity
  8
0
100
AcDbLine
 10
73.57287769293826
 20
26.34609353131853
 30
0.0
 11
73.92821251417378
 21
26.31561507419538
 31
0.0
  0
LINE
  5
D6
330
1F
100
AcDbEntity
  8
0
100
AcDbLine
 10
73.92821251417378
 20
26.31561507419538
 30
0.0
 11
74.2771209998934
 21
26.24267886981629
 31
0.0
  0
LINE
  5
D7
330
1F
100
AcDbEntity
  8
0
100
AcDbLine
 10
74.2771209998934
 20
26.24267886981629
 30
0.0
 11
74.60910488034244
 21
26.12946584179929
 31
0.0
  0
LINE
  5
D8
330
1F
100
AcDbEntity
  8
0
100
AcDbLine
 10
-17.36612557621203
 20
28.51942761473895
 30
0.0
 11
-17.02199474179346
 21
28.57468381446587
 31
0.0
  0
LINE
  5
D9
330
1F
100
AcDbEntity
  8
0
100
AcDbLine
 10
-17.02199474179346
 20
28.57468381446587
 30
0.0
 11
-16.67089663459439
 21
28.58743112763532
 31
0.0
  0
LINE
  5
DA
330
1F
100
AcDbEntity
  8
0
100
AcDbLine
 10
71.72890786004696
 20
24.71554037912769
 30
0.0
 11
71.67436354710932
 21
24.96566269395571
 31
0.0
  0
LINE
  5
DB
330
1F
100
AcDbEntity
  8
0
100
AcDbLine
 10
-18.18199741315914
 20
26.1145030207149
 30
0.0
 11
-18.40152905734627
 21
26.28533749867047
 31
0.0
  0
LINE
  5
DC
330
1F
100
AcDbEntity
  8
0
100
AcDbLine
 10
-18.40152905734627
 20
26.28533749867047
 30
0.0
 11
-18.59986156456637
 21
26.50479124841293
 31
0.0
  0
LINE
  5
DD
330
1F
100
AcDbEntity
  8
0
100
AcDbLine
 10
-51.76889293392777
 20
32.87888289750965
 30
0.0
 11
-63.08969660088427
 21
-39.12230720138093
 31
0.0
  0
LINE
  5
DE
330
1F
100
AcDbEntity
  8
0
100
AcDbLine
 10
-18.59986156456637
 20
26.50479124841293
 30
0.0
 11
-18.72878797996449
 21
26.73328519187988
 31
0.0
  0
LINE
  5
DF
330
1F
100
AcDbEntity
  8
0
100
AcDbLine
 10
-18.72878797996449
 20
26.73328519187988
 30
0.0
 11
-18.79867563793186
 21
26.97489381959848
 31
0.0
  0
LINE
  5
E0
330
1F
100
AcDbEntity
  8
0
100
AcDbLine
 10
97.15636417437774
 20
30.01934285832649
 30
0.0
 11
96.84526523106386
 21
30.40613730425731
 31
0.0
  0
LINE
  5
E1
330
1F
100
AcDbEntity
  8
0
100
AcDbLine
 10
75.58061634192276
 20
25.35744635873233
 30
0.0
 11
75.69732401399564
 21
25.11376488471847
 31
0.0
  0
LINE
  5
E2
330
1F
100
AcDbEntity
  8
0
100
AcDbLine
 10
97.37266346298671
 20
29.60929383192152
 30
0.0
 11
97.15636417437774
 21
30.01934285832649
 31
0.0
  0
LINE
  5
E3
330
1F
100
AcDbEntity
  8
0
100
AcDbLine
 10
97.4873425519569
 20
29.18836591948395
 30
0.0
 11
97.37266346298671
 21
29.60929383192152
 31
0.0
  0
LINE
  5
E4
330
1F
100
AcDbEntity
  8
0
100
AcDbLine
 10
78.66394336499086
 20
-40.34693153692573
 30
0.0
 11
78.35773693167697
 21
-40.11237953246923
 31
0.0
  0
LINE
  5
E5
330
1F
100
AcDbEntity
  8
0
100
AcDbLine
 10
96.84526523106386
 20
30.40613730425731
 30
0.0
 11
96.44894061828515
 21
30.75805761020322
 31
0.0
  0
LINE
  5
E6
330
1F
100
AcDbEntity
  8
0
100
AcDbLine
 10
96.44894061828515
 20
30.75805761020322
 30
0.0
 11
95.97955326165307
 21
31.06458245475282
 31
0.0
  0
LINE
  5
E7
330
1F
100
AcDbEntity
  8
0
100
AcDbLine
 10
95.97955326165307
 20
31.06458245475282
 30
0.0
 11
95.45132374789847
 21
31.31658371329583
 31
0.0
  0
LINE
  5
E8
330
1F
100
AcDbEntity
  8
0
100
AcDbLine
 10
79.01138112098353
 20
-40.54012823121729
 30
0.0
 11
78.66394336499086
 21
-40.34693153692573
 31
0.0
  0
LINE
  5
E9
330
1F
100
AcDbEntity
  8
0
100
AcDbLine
 10
78.35773693167697
 20
-40.11237953246923
 30
0.0
 11
78.1020998116627
 21
-39.84369357065103
 31
0.0
  0
LINE
  5
EA
330
1F
100
AcDbEntity
  8
0
100
AcDbLine
 10
78.1020998116627
 20
-39.84369357065103
 30
0.0
 11
77.90472406408769
 21
-39.54911305961073
 31
0.0
  0
LINE
  5
EB
330
1F
100
AcDbEntity
  8
0
100
AcDbLine
 10
-19.97154308496819
 20
-27.64661265258007
 30
0.0
 11
-19.71238264724491
 21
-27.87084628232989
 31
0.0
  0
LINE
  5
EC
330
1F
100
AcDbEntity
  8
0
100
AcDbLine
 10
-20.27769224719164
 20
-27.46219330767864
 30
0.0
 11
-19.97154308496819
 21
-27.64661265258007
 31
0.0
  0
LINE
  5
ED
330
1F
100
AcDbEntity
  8
0
100
AcDbLine
 10
-59.64167807160133
 20
-42.39063320105191
 30
0.0
 11
104.7641510953615
 21
-47.08518696184963
 31
0.0
  0
LINE
  5
EE
330
1F
100
AcDbEntity
  8
0
100
AcDbLine
 10
-21.28395028059635
 20
-30.70922401693569
 30
0.0
 11
-21.67829621068472
 21
-30.72526412253608
 31
0.0
  0
LINE
  5
EF
330
1F
100
AcDbEntity
  8
0
100
AcDbLine
 10
-21.67829621068472
 20
-30.72526412253608
 30
0.0
 11
-22.06806710628472
 21
-30.68734111195255
 31
0.0
  0
LINE
  5
F0
330
1F
100
AcDbEntity
  8
0
100
AcDbLine
 10
-19.71238264724491
 20
-27.87084628232989
 30
0.0
 11
-19.50810571038712
 21
-28.12816928545762
 31
0.0
  0
LINE
  5
F1
330
1F
100
AcDbEntity
  8
0
100
AcDbLine
 10
-19.50810571038712
 20
-28.12816928545762
 30
0.0
 11
-19.3649600762968
 21
-28.41084552783111
 31
0.0
  0
LINE
  5
F2
330
1F
100
AcDbEntity
  8
0
100
AcDbLine
 10
-19.3649600762968
 20
-28.41084552783111
 30
0.0
 11
-19.28737673991485
 21
-28.71035044062738
 31
0.0
  0
LINE
  5
F3
330
1F
100
AcDbEntity
  8
0
100
AcDbLine
 10
-15.40496339485384
 20
28.22474597511522
 30
0.0
 11
-15.17102238437182
 21
28.04426503003462
 31
0.0
  0
LINE
  5
F4
330
1F
100
AcDbEntity
  8
0
100
AcDbLine
 10
-15.68074506012792
 20
28.37319263226602
 30
0.0
 11
-15.40496339485384
 21
28.22474597511522
 31
0.0
  0
LINE
  5
F5
330
1F
100
AcDbEntity
  8
0
100
AcDbLine
 10
-23.77911488031979
 20
-28.89238866956221
 30
0.0
 11
-23.71782300049451
 21
-28.58716770957845
 31
0.0
  0
LINE
  5
F6
330
1F
100
AcDbEntity
  8
0
100
AcDbLine
 10
-16.91081449663823
 20
25.74815992939311
 30
0.0
 11
-17.2602489491527
 21
25.77864796010828
 31
0.0
  0
LINE
  5
F7
330
1F
100
AcDbEntity
  8
0
100
AcDbLine
 10
-17.2602489491527
 20
25.77864796010828
 30
0.0
 11
-17.59529789425426
 21
25.8515752847536
 31
0.0
  0
LINE
  5
F8
330
1F
100
AcDbEntity
  8
0
100
AcDbLine
 10
-17.59529789425426
 20
25.8515752847536
 30
0.0
 11
-17.90570978407454
 21
25.96468949550208
 31
0.0
  0
LINE
  5
F9
330
1F
100
AcDbEntity
  8
0
100
AcDbLine
 10
-19.65095189867976
 20
-29.89310759027245
 30
0.0
 11
-19.89694971107606
 21
-30.13975855943766
 31
0.0
  0
LINE
  5
FA
330
1F
100
AcDbEntity
  8
0
100
AcDbLine
 10
-19.89694971107606
 20
-30.13975855943766
 30
0.0
 11
-20.19286409906998
 21
-30.35052357951751
 31
0.0
  0
LINE
  5
FB
330
1F
100
AcDbEntity
  8
0
100
AcDbLine
 10
74.91411318277682
 20
25.97936187208945
 30
0.0
 11
75.1829232429363
 21
25.79686705707656
 31
0.0
  0
LINE
  5
FC
330
1F
100
AcDbEntity
  8
0
100
AcDbLine
 10
75.1829232429363
 20
25.79686705707656
 30
0.0
 11
75.40737128052996
 21
25.58746055536513
 31
0.0
  0
LINE
  5
FD
330
1F
100
AcDbEntity
  8
0
100
AcDbLine
 10
94.28332958137793
 20
31.62895122535894
 30
0.0
 11
93.67863735667213
 21
31.68008015090415
 31
0.0
  0
LINE
  5
FE
330
1F
100
AcDbEntity
  8
0
100
AcDbLine
 10
75.40737128052996
 20
25.58746055536513
 30
0.0
 11
75.58061634192276
 21
25.35744635873233
 31
0.0
  0
LINE
  5
FF
330
1F
100
AcDbEntity
  8
0
100
AcDbLine
 10
94.88019442567979
 20
31.50658056688213
 30
0.0
 11
94.28332958137793
 21
31.62895122535894
 31
0.0
  0
LINE
  5
100
330
1F
100
AcDbEntity
  8
0
100
AcDbLine
 10
95.45132374789847
 20
31.31658371329583
 30
0.0
 11
94.88019442567979
 21
31.50658056688213
 31
0.0
  0
LINE
  5
101
330
1F
100
AcDbEntity
  8
0
100
AcDbLine
 10
104.7641510953615
 20
-47.08518696184963
 30
0.0
 11
105.4537253895731
 21
-47.05603594077009
 31
0.0
  0
LINE
  5
102
330
1F
100
AcDbEntity
  8
0
100
AcDbLine
 10
75.13664675936761
 20
23.77973626800691
 30
0.0
 11
74.85921766128027
 21
23.64282330230635
 31
0.0
  0
LINE
  5
103
330
1F
100
AcDbEntity
  8
0
100
AcDbLine
 10
74.85921766128027
 20
23.64282330230635
 30
0.0
 11
74.54675045165934
 21
23.54459817262182
 31
0.0
  0
LINE
  5
104
330
1F
100
AcDbEntity
  8
0
100
AcDbLine
 10
73.49838643025105
 20
23.50588497018514
 30
0.0
 11
73.14766169791564
 21
23.57962999576142
 31
0.0
  0
LINE
  5
105
330
1F
100
AcDbEntity
  8
0
100
AcDbLine
 10
-16.67089663459439
 20
28.58743112763532
 30
0.0
 11
-16.32341031954735
 21
28.55728874547854
 31
0.0
  0
LINE
  5
106
330
1F
100
AcDbEntity
  8
0
100
AcDbLine
 10
73.85575934399137
 20
23.47505509362349
 30
0.0
 11
73.49838643025105
 21
23.50588497018514
 31
0.0
  0
LINE
  5
107
330
1F
100
AcDbEntity
  8
0
100
AcDbLine
 10
-16.32341031954735
 20
28.55728874547854
 30
0.0
 11
-15.99000806784137
 21
28.48515721807991
 31
0.0
  0
LINE
  5
108
330
1F
100
AcDbEntity
  8
0
100
AcDbLine
 10
-15.99000806784137
 20
28.48515721807991
 30
0.0
 11
-15.68074506012792
 21
28.37319263226602
 31
0.0
  0
LINE
  5
109
330
1F
100
AcDbEntity
  8
0
100
AcDbLine
 10
-14.783947663221
 20
27.36871147969003
 30
0.0
 11
-14.77312825654289
 21
27.12150484877186
 31
0.0
  0
LINE
  5
10A
330
1F
100
AcDbEntity
  8
0
100
AcDbLine
 10
-20.19286409906998
 20
-30.35052357951751
 30
0.0
 11
-20.52968403625345
 21
-30.5189177662855
 31
0.0
  0
LINE
  5
10B
330
1F
100
AcDbEntity
  8
0
100
AcDbLine
 10
-20.52968403625345
 20
-30.5189177662855
 30
0.0
 11
-20.89712862232771
 21
-30.63972596953149
 31
0.0
  0
LINE
  5
10C
330
1F
100
AcDbEntity
  8
0
100
AcDbLine
 10
-20.89712862232771
 20
-30.63972596953149
 30
0.0
 11
-21.28395028059635
 21
-30.70922401693569
 31
0.0
  0
LINE
  5
10D
330
1F
100
AcDbEntity
  8
0
100
AcDbLine
 10
-63.08969660088427
 20
-39.12230720138093
 30
0.0
 11
-63.11862592583351
 21
-39.61499913097062
 31
0.0
  0
LINE
  5
10E
330
1F
100
AcDbEntity
  8
0
100
AcDbLine
 10
-23.77206809248552
 20
-29.19986099224403
 30
0.0
 11
-23.77911488031979
 21
-28.89238866956221
 31
0.0
  0
LINE
  5
10F
330
1F
100
AcDbEntity
  8
0
100
AcDbLine
 10
75.75388218321172
 20
24.86379289651538
 30
0.0
 11
75.74847191871946
 21
24.61511731575903
 31
0.0
  0
LINE
  5
110
330
1F
100
AcDbEntity
  8
0
100
AcDbLine
 10
75.74847191871946
 20
24.61511731575903
 30
0.0
 11
75.68117531490981
 21
24.37531012305433
 31
0.0
  0
LINE
  5
111
330
1F
100
AcDbEntity
  8
0
100
AcDbLine
 10
108.3014854538879
 20
-43.98875727974175
 30
0.0
 11
97.4873425519569
 21
29.18836591948395
 31
0.0
  0
LINE
  5
112
330
1F
100
AcDbEntity
  8
0
100
AcDbLine
 10
108.3228428435485
 20
-44.54200441256448
 30
0.0
 11
108.3014854538879
 21
-43.98875727974175
 31
0.0
  0
LINE
  5
113
330
1F
100
AcDbEntity
  8
0
100
AcDbLine
 10
108.222108152461
 20
-45.07601944697445
 30
0.0
 11
108.3228428435485
 21
-44.54200441256448
 31
0.0
  0
LINE
  5
114
330
1F
100
AcDbEntity
  8
0
100
AcDbLine
 10
-15.17102238437182
 20
28.04426503003462
 30
0.0
 11
-14.98603979384444
 21
27.83717178961337
 31
0.0
  0
LINE
  5
115
330
1F
100
AcDbEntity
  8
0
100
AcDbLine
 10
-14.98603979384444
 20
27.83717178961337
 30
0.0
 11
-14.85567565623078
 21
27.60969878550089
 31
0.0
  0
LINE
  5
116
330
1F
100
AcDbEntity
  8
0
100
AcDbLine
 10
-14.85567565623078
 20
27.60969878550089
 30
0.0
 11
-14.783947663221
 21
27.36871147969003
 31
0.0
  0
LINE
  5
117
330
1F
100
AcDbEntity
  8
0
100
AcDbLine
 10
-23.71782300049451
 20
-28.58716770957845
 30
0.0
 11
-23.59016342159713
 21
-28.29343291633554
 31
0.0
  0
LINE
  5
118
330
1F
100
AcDbEntity
  8
0
100
AcDbLine
 10
-23.59016342159713
 20
-28.29343291633554
 30
0.0
 11
-23.40010584855455
 21
-28.02007085385207
 31
0.0
  0
LINE
  5
119
330
1F
100
AcDbEntity
  8
0
100
AcDbLine
 10
-23.40010584855455
 20
-28.02007085385207
 30
0.0
 11
-23.15349136361379
 21
-27.7753149877018
 31
0.0
  0
LINE
  5
11A
330
1F
100
AcDbEntity
  8
0
100
AcDbLine
 10
105.4537253895731
 20
-47.05603594077009
 30
0.0
 11
106.1082521184697
 21
-46.92973210320876
 31
0.0
  0
LINE
  5
11B
330
1F
100
AcDbEntity
  8
0
100
AcDbLine
 10
106.1082521184697
 20
-46.92973210320876
 30
0.0
 11
106.7075338383416
 21
-46.71023841048088
 31
0.0
  0
LINE
  5
11C
330
1F
100
AcDbEntity
  8
0
100
AcDbLine
 10
106.7075338383416
 20
-46.71023841048088
 30
0.0
 11
107.2331572044563
 21
-46.40442124465278
 31
0.0
  0
LINE
  5
11D
330
1F
100
AcDbEntity
  8
0
100
AcDbLine
 10
-22.06806710628472
 20
-30.68734111195255
 30
0.0
 11
-22.44131309677589
 21
-30.5966375951056
 31
0.0
  0
LINE
  5
11E
330
1F
100
AcDbEntity
  8
0
100
AcDbLine
 10
-22.44131309677589
 20
-30.5966375951056
 30
0.0
 11
-22.78659283173546
 21
-30.45595676299784
 31
0.0
  0
LINE
  5
11F
330
1F
100
AcDbEntity
  8
0
100
AcDbLine
 10
-22.78659283173546
 20
-30.45595676299784
 30
0.0
 11
-23.09336043201004
 21
-30.26963451979616
 31
0.0
  0
LINE
  5
120
330
1F
100
AcDbEntity
  8
0
100
AcDbLine
 10
107.2331572044563
 20
-46.40442124465278
 30
0.0
 11
107.6690594441354
 21
-46.02185432386021
 31
0.0
  0
LINE
  5
121
330
1F
100
AcDbEntity
  8
0
100
AcDbLine
 10
107.6690594441354
 20
-46.02185432386021
 30
0.0
 11
108.0020495860589
 21
-45.57442602472012
 31
0.0
  0
LINE
  5
122
330
1F
100
AcDbEntity
  8
0
100
AcDbLine
 10
108.0020495860589
 20
-45.57442602472012
 30
0.0
 11
108.222108152461
 21
-45.07601944697445
 31
0.0
  0
LINE
  5
123
330
1F
100
AcDbEntity
  8
0
100
AcDbLine
 10
-23.15349136361379
 20
-27.7753149877018
 30
0.0
 11
-22.85783482130113
 21
-27.56651578151956
 31
0.0
  0
LINE
  5
124
330
1F
100
AcDbEntity
  8
0
100
AcDbLine
 10
-22.85783482130113
 20
-27.56651578151956
 30
0.0
 11
-22.52210969981709
 21
-27.3999289462788
 31
0.0
  0
LINE
  5
125
330
1F
100
AcDbEntity
  8
0
100
AcDbLine
 10
-22.52210969981709
 20
-27.3999289462788
 30
0.0
 11
-22.15647250977714
 21
-27.280529168444
 31
0.0
  0
LINE
  5
126
330
1F
100
AcDbEntity
  8
0
100
AcDbLine
 10
82.2460007119294
 20
-38.73013513345988
 30
0.0
 11
82.31358348616332
 21
-39.0487141694022
 31
0.0
  0
LINE
  5
127
330
1F
100
AcDbEntity
  8
0
100
AcDbLine
 10
82.31358348616332
 20
-39.0487141694022
 30
0.0
 11
82.31119154766755
 21
-39.3656890615202
 31
0.0
  0
LINE
  5
128
330
1F
100
AcDbEntity
  8
0
100
AcDbLine
 10
82.31119154766755
 20
-39.3656890615202
 30
0.0
 11
82.23878965568349
 21
-39.67139274558837
 31
0.0
  0
LINE
  5
129
330
1F
100
AcDbEntity
  8
0
100
AcDbLine
 10
-14.82362679808498
 20
26.87558243263593
 30
0.0
 11
-14.93400728412671
 21
26.63843148432916
 31
0.0
  0
LINE
  5
12A
330
1F
100
AcDbEntity
  8
0
100
AcDbLine
 10
-14.93400728412671
 20
26.63843148432916
 30
0.0
 11
-15.11832558685306
 21
26.4015513448034
 31
0.0
  0
LINE
  5
12B
330
1F
100
AcDbEntity
  8
0
100
AcDbLine
 10
-15.11832558685306
 20
26.4015513448034
 30
0.0
 11
-15.31953172668233
 21
26.21894023035824
 31
0.0
  0
LINE
  5
12C
330
1F
100
AcDbEntity
  8
0
100
AcDbLine
 10
-15.31953172668233
 20
26.21894023035824
 30
0.0
 11
-15.58304449469672
 21
26.04946040505122
 31
0.0
  0
LINE
  5
12D
330
1F
100
AcDbEntity
  8
0
100
AcDbLine
 10
-20.62155947693541
 20
-27.3231004740864
 30
0.0
 11
-20.27769224719164
 21
-27.46219330767864
 31
0.0
  0
LINE
  5
12E
330
1F
100
AcDbEntity
  8
0
100
AcDbLine
 10
-20.99275914954453
 20
-27.23350098881486
 30
0.0
 11
-20.62155947693541
 21
-27.3231004740864
 31
0.0
  0
LINE
  5
12F
330
1F
100
AcDbEntity
  8
0
100
AcDbLine
 10
-15.58304449469672
 20
26.04946040505122
 30
0.0
 11
-15.88350194467728
 21
25.91406614313093
 31
0.0
  0
LINE
  5
130
330
1F
100
AcDbEntity
  8
0
100
AcDbLine
 10
-22.15647250977714
 20
-27.280529168444
 30
0.0
 11
-21.77194274624949
 21
-27.21189321051811
 31
0.0
  0
LINE
  5
131
330
1F
100
AcDbEntity
  8
0
100
AcDbLine
 10
-21.77194274624949
 20
-27.21189321051811
 30
0.0
 11
-21.3801077816781
 21
-27.19605694454118
 31
0.0
  0
LINE
  5
132
330
1F
100
AcDbEntity
  8
0
100
AcDbLine
 10
-16.55770169800756
 20
25.76105455802185
 30
0.0
 11
-16.91081449663823
 21
25.74815992939311
 31
0.0
  0
LINE
  5
133
330
1F
100
AcDbEntity
  8
0
100
AcDbLine
 10
-21.3801077816781
 20
-27.19605694454118
 30
0.0
 11
-20.99275914954453
 21
-27.23350098881486
 31
0.0
  0
LINE
  5
134
330
1F
100
AcDbEntity
  8
0
100
AcDbLine
 10
-16.2117327263292
 20
25.8169321451955
 30
0.0
 11
-16.55770169800756
 21
25.76105455802185
 31
0.0
  0
LINE
  5
135
330
1F
100
AcDbEntity
  8
0
100
AcDbLine
 10
-15.88350194467728
 20
25.91406614313093
 30
0.0
 11
-16.2117327263292
 21
25.8169321451955
 31
0.0
  0
LINE
  5
136
330
1F
100
AcDbEntity
  8
0
100
AcDbLine
 10
79.0555174006861
 20
-37.24773100120115
 30
0.0
 11
79.43412240815438
 21
-37.17657423437957
 31
0.0
  0
LINE
  5
137
330
1F
100
AcDbEntity
  8
0
100
AcDbLine
 10
79.43412240815438
 20
-37.17657423437957
 30
0.0
 11
79.83010944168544
 21
-37.16015651119847
 31
0.0
  0
LINE
  5
138
330
1F
100
AcDbEntity
  8
0
100
AcDbLine
 10
79.83010944168544
 20
-37.16015651119847
 30
0.0
 11
80.23155490207476
 21
-37.1989756458048
 31
0.0
  0
LINE
  5
139
330
1F
100
AcDbEntity
  8
0
100
AcDbLine
 10
74.54675045165934
 20
23.54459817262182
 30
0.0
 11
74.20882257798328
 21
23.48809401346663
 31
0.0
  0
LINE
  5
13A
330
1F
100
AcDbEntity
  8
0
100
AcDbLine
 10
81.34912193510469
 20
-37.62726428726689
 30
0.0
 11
81.65520639836437
 21
-37.85974048549858
 31
0.0
  0
LINE
  5
13B
330
1F
100
AcDbEntity
  8
0
100
AcDbLine
 10
81.65520639836437
 20
-37.85974048549858
 30
0.0
 11
81.9116457795348
 21
-38.12652681424885
 31
0.0
  0
LINE
  5
13C
330
1F
100
AcDbEntity
  8
0
100
AcDbLine
 10
81.9116457795348
 20
-38.12652681424885
 30
0.0
 11
82.11062151709926
 21
-38.41960417392875
 31
0.0
  0
LINE
  5
13D
330
1F
100
AcDbEntity
  8
0
100
AcDbLine
 10
82.11062151709926
 20
-38.41960417392875
 30
0.0
 11
82.2460007119294
 21
-38.73013513345988
 31
0.0
  0
LINE
  5
13E
330
1F
100
AcDbEntity
  8
0
100
AcDbLine
 10
77.9283707635399
 20
-38.01445232230352
 30
0.0
 11
78.13342447223464
 21
-37.76069673539321
 31
0.0
  0
LINE
  5
13F
330
1F
100
AcDbEntity
  8
0
100
AcDbLine
 10
78.13342447223464
 20
-37.76069673539321
 30
0.0
 11
78.39519186068465
 21
-37.54422365575613
 31
0.0
  0
LINE
  5
140
330
1F
100
AcDbEntity
  8
0
100
AcDbLine
 10
78.39519186068465
 20
-37.54422365575613
 30
0.0
 11
78.70568451059812
 21
-37.37150833789836
 31
0.0
  0
LINE
  5
141
330
1F
100
AcDbEntity
  8
0
100
AcDbLine
 10
78.70568451059812
 20
-37.37150833789836
 30
0.0
 11
79.0555174006861
 21
-37.24773100120115
 31
0.0
  0
LINE
  5
142
330
1F
100
AcDbEntity
  8
0
100
AcDbLine
 10
80.23155490207476
 20
-37.1989756458048
 30
0.0
 11
80.62636935449126
 21
-37.29186572475918
 31
0.0
  0
LINE
  5
143
330
1F
100
AcDbEntity
  8
0
100
AcDbLine
 10
80.62636935449126
 20
-37.29186572475918
 30
0.0
 11
81.00268590365687
 21
-37.4360604486037
 31
0.0
  0
LINE
  5
144
330
1F
100
AcDbEntity
  8
0
100
AcDbLine
 10
81.00268590365687
 20
-37.4360604486037
 30
0.0
 11
81.34912193510469
 21
-37.62726428726689
 31
0.0
  0
LINE
  5
145
330
1F
100
AcDbEntity
  8
0
100
AcDbLine
 10
81.6327532626337
 20
-40.43080854207356
 30
0.0
 11
81.32146766595785
 21
-40.60541584091868
 31
0.0
  0
LINE
  5
146
330
1F
100
AcDbEntity
  8
0
100
AcDbLine
 10
81.32146766595785
 20
-40.60541584091868
 30
0.0
 11
80.9700247289208
 21
-40.73069603859437
 31
0.0
  0
LINE
  5
147
330
1F
100
AcDbEntity
  8
0
100
AcDbLine
 10
80.9700247289208
 20
-40.73069603859437
 30
0.0
 11
80.58920350338438
 21
-40.80276283295859
 31
0.0
  0
LINE
  5
148
330
1F
100
AcDbEntity
  8
0
100
AcDbLine
 10
-63.11862592583351
 20
-39.61499913097062
 30
0.0
 11
-63.05016700431641
 21
-40.09915216147827
 31
0.0
  0
LINE
  5
149
330
1F
100
AcDbEntity
  8
0
100
AcDbLine
 10
-63.05016700431641
 20
-40.09915216147827
 30
0.0
 11
-62.88576047887206
 21
-40.56275473668981
 31
0.0
  0
LINE
  5
14A
330
1F
100
AcDbEntity
  8
0
100
AcDbLine
 10
-62.88576047887206
 20
-40.56275473668981
 30
0.0
 11
-62.62925026357798
 21
-40.99428137855822
 31
0.0
  0
LINE
  5
14B
330
1F
100
AcDbEntity
  8
0
100
AcDbLine
 10
-62.62925026357798
 20
-40.99428137855822
 30
0.0
 11
-62.28679741765343
 21
-41.38291306058377
 31
0.0
  0
LINE
  5
14C
330
1F
100
AcDbEntity
  8
0
100
AcDbLine
 10
-62.28679741765343
 20
-41.38291306058377
 30
0.0
 11
-61.86675537485731
 21
-41.7188930389684
 31
0.0
  0
LINE
  5
14D
330
1F
100
AcDbEntity
  8
0
100
AcDbLine
 10
-61.86675537485731
 20
-41.7188930389684
 30
0.0
 11
-61.37946390121577
 21
-41.99373505443459
 31
0.0
  0
LINE
  5
14E
330
1F
100
AcDbEntity
  8
0
100
AcDbLine
 10
-23.09336043201004
 20
-30.26963451979616
 30
0.0
 11
-23.35226302914087
 21
-30.04343507729258
 31
0.0
  0
LINE
  5
14F
330
1F
100
AcDbEntity
  8
0
100
AcDbLine
 10
-60.25287717819776
 20
-42.33393141979689
 30
0.0
 11
-59.64167807160133
 21
-42.39063320105191
 31
0.0
  0
LINE
  5
150
330
1F
100
AcDbEntity
  8
0
100
AcDbLine
 10
-60.83700201698132
 20
-42.20049804842038
 30
0.0
 11
-60.25287717819776
 21
-42.33393141979689
 31
0.0
  0
LINE
  5
151
330
1F
100
AcDbEntity
  8
0
100
AcDbLine
 10
-61.37946390121577
 20
-41.99373505443459
 30
0.0
 11
-60.83700201698132
 21
-42.20049804842038
 31
0.0
  0
LINE
  5
152
330
1F
100
AcDbEntity
  8
0
100
AcDbLine
 10
-14.77312825654289
 20
27.12150484877186
 30
0.0
 11
-14.82362679808498
 21
26.87558243263593
 31
0.0
  0
LINE
  5
153
330
1F
100
AcDbEntity
  8
0
100
AcDbLine
 10
74.20882257798328
 20
23.48809401346663
 30
0.0
 11
73.85575934399137
 21
23.47505509362349
 31
0.0
  0
LINE
  5
154
330
1F
100
AcDbEntity
  8
0
100
AcDbLine
 10
77.71153868138232
 20
-38.60241657574504
 30
0.0
 11
77.78626794489023
 21
-38.29787038397091
 31
0.0
  0
LINE
  5
155
330
1F
100
AcDbEntity
  8
0
100
AcDbLine
 10
77.78626794489023
 20
-38.29787038397091
 30
0.0
 11
77.9283707635399
 21
-38.01445232230352
 31
0.0
  0
LINE
  5
156
330
1F
100
AcDbEntity
  8
0
100
AcDbLine
 10
-19.28737673991485
 20
-28.71035044062738
 30
0.0
 11
-19.27782083052977
 21
-29.01761119532283
 31
0.0
  0
LINE
  5
157
330
1F
100
AcDbEntity
  8
0
100
AcDbLine
 10
80.58920350338438
 20
-40.80276283295859
 30
0.0
 11
80.19065203410086
 21
-40.81939576336391
 31
0.0
  0
LINE
  5
158
330
1F
100
AcDbEntity
  8
0
100
AcDbLine
 10
80.19065203410086
 20
-40.81939576336391
 30
0.0
 11
79.78660326298076
 21
-40.78007094869039
 31
0.0
  0
LINE
  5
159
330
1F
100
AcDbEntity
  8
0
100
AcDbLine
 10
79.78660326298076
 20
-40.78007094869039
 30
0.0
 11
79.3894606758793
 21
-40.68601541007042
 31
0.0
  0
LINE
  5
15A
330
1F
100
AcDbEntity
  8
0
100
AcDbLine
 10
79.3894606758793
 20
-40.68601541007042
 30
0.0
 11
79.01138112098353
 21
-40.54012823121729
 31
0.0
  0
LINE
  5
15B
330
1F
100
AcDbEntity
  8
0
100
AcDbLine
 10
-59.39438693338531
 20
-43.97740289695888
 30
0.0
 11
-59.64167807160133
 21
-42.39063320105191
 31
0.0
  0
LINE
  5
15C
330
1F
100
AcDbEntity
  8
0
100
AcDbLine
 10
-60.25287717819776
 20
-42.33393141979689
 30
0.0
 11
-60.00307690108134
 21
-43.92077699823738
 31
0.0
  0
LINE
  5
15D
330
1F
100
AcDbEntity
  8
0
100
AcDbLine
 10
-60.83700201698132
 20
-42.20049804842038
 30
0.0
 11
-60.58483959137801
 21
-43.78752201065488
 31
0.0
  0
LINE
  5
15E
330
1F
100
AcDbEntity
  8
0
100
AcDbLine
 10
-61.37946390121577
 20
-41.99373505443459
 30
0.0
 11
-61.12514613872952
 21
-43.58103491553861
 31
0.0
  0
LINE
  5
15F
330
1F
100
AcDbEntity
  8
0
100
AcDbLine
 10
-61.86675537485731
 20
-41.7188930389684
 30
0.0
 11
-61.61054332877448
 21
-43.30655866790024
 31
0.0
  0
LINE
  5
160
330
1F
100
AcDbEntity
  8
0
100
AcDbLine
 10
-62.28679741765343
 20
-41.38291306058377
 30
0.0
 11
-62.02899935934427
 21
-42.97102431168366
 31
0.0
  0
LINE
  5
161
330
1F
100
AcDbEntity
  8
0
100
AcDbLine
 10
-62.62925026357798
 20
-40.99428137855822
 30
0.0
 11
-62.37021339852108
 21
-42.58290601381769
 31
0.0
  0
LINE
  5
162
330
1F
100
AcDbEntity
  8
0
100
AcDbLine
 10
-62.88576047887206
 20
-40.56275473668981
 30
0.0
 11
-62.62586176782559
 21
-42.15194681666566
 31
0.0
  0
LINE
  5
163
330
1F
100
AcDbEntity
  8
0
100
AcDbLine
 10
-63.05016700431641
 20
-40.09915216147827
 30
0.0
 11
-62.78980327118276
 21
-41.68895081190509
 31
0.0
  0
LINE
  5
164
330
1F
100
AcDbEntity
  8
0
100
AcDbLine
 10
108.222108152461
 20
-45.07601944697445
 30
0.0
 11
107.7712568888011
 21
-46.65914118689146
 31
0.0
  0
LINE
  5
165
330
1F
100
AcDbEntity
  8
0
100
AcDbLine
 10
108.0020495860589
 20
-45.57442602472012
 30
0.0
 11
107.5517201929428
 21
-47.15685903175041
 31
0.0
  0
LINE
  5
166
330
1F
100
AcDbEntity
  8
0
100
AcDbLine
 10
107.6690594441354
 20
-46.02185432386021
 30
0.0
 11
107.2197650956141
 21
-47.60366593011882
 31
0.0
  0
LINE
  5
167
330
1F
100
AcDbEntity
  8
0
100
AcDbLine
 10
107.2331572044563
 20
-46.40442124465278
 30
0.0
 11
106.7853808937319
 21
-47.98569919553824
 31
0.0
  0
LINE
  5
168
330
1F
100
AcDbEntity
  8
0
100
AcDbLine
 10
106.7075338383416
 20
-46.71023841048088
 30
0.0
 11
106.2617129954479
 21
-48.29108821813158
 31
0.0
  0
LINE
  5
169
330
1F
100
AcDbEntity
  8
0
100
AcDbLine
 10
106.1082521184697
 20
-46.92973210320876
 30
0.0
 11
105.6647642039795
 21
-48.5102737720619
 31
0.0
  0
LINE
  5
16A
330
1F
100
AcDbEntity
  8
0
100
AcDbLine
 10
105.4537253895731
 20
-47.05603594077009
 30
0.0
 11
105.0128754144347
 21
-48.63639997520869
 31
0.0
  0
LINE
  5
16B
330
1F
100
AcDbEntity
  8
0
100
AcDbLine
 10
104.7641510953615
 20
-47.08518696184963
 30
0.0
 11
104.3261614865314
 21
-48.66550996479514
 31
0.0
  0
LINE
  5
16C
330
1F
100
AcDbEntity
  8
0
100
AcDbLine
 10
-14.85567565623078
 20
27.60969878550089
 30
0.0
 11
-14.82362679808498
 21
26.87558243263593
 31
0.0
  0
LINE
  5
16D
330
1F
100
AcDbEntity
  8
0
100
AcDbLine
 10
-14.98603979384444
 20
27.83717178961337
 30
0.0
 11
-14.93400728412671
 21
26.63843148432916
 31
0.0
  0
LINE
  5
16E
330
1F
100
AcDbEntity
  8
0
100
AcDbLine
 10
-15.17102238437182
 20
28.04426503003462
 30
0.0
 11
-15.11832558685306
 21
26.4015513448034
 31
0.0
  0
LINE
  5
16F
330
1F
100
AcDbEntity
  8
0
100
AcDbLine
 10
-15.40496339485384
 20
28.22474597511522
 30
0.0
 11
-15.34907489785342
 21
26.58014911223247
 31
0.0
  0
LINE
  5
170
330
1F
100
AcDbEntity
  8
0
100
AcDbLine
 10
-15.68074506012792
 20
28.37319263226602
 30
0.0
 11
-15.62387313491405
 21
26.72855156926853
 31
0.0
  0
LINE
  5
171
330
1F
100
AcDbEntity
  8
0
100
AcDbLine
 10
-15.99000806784137
 20
28.48515721807991
 30
0.0
 11
-15.93202763588784
 21
26.84048303237731
 31
0.0
  0
LINE
  5
172
330
1F
100
AcDbEntity
  8
0
100
AcDbLine
 10
-16.32341031954735
 20
28.55728874547854
 30
0.0
 11
-16.26422960426744
 21
26.91259331881118
 31
0.0
  0
LINE
  5
173
330
1F
100
AcDbEntity
  8
0
100
AcDbLine
 10
-16.67089663459439
 20
28.58743112763532
 30
0.0
 11
-16.61045979397295
 21
26.94272684749169
 31
0.0
  0
LINE
  5
174
330
1F
100
AcDbEntity
  8
0
100
AcDbLine
 10
-17.02199474179346
 20
28.57468381446587
 30
0.0
 11
-16.96028347505816
 21
26.92998327685275
 31
0.0
  0
LINE
  5
175
330
1F
100
AcDbEntity
  8
0
100
AcDbLine
 10
-17.36612557621203
 20
28.51942761473895
 30
0.0
 11
-17.30315965587267
 21
26.87474332768469
 31
0.0
  0
LINE
  5
176
330
1F
100
AcDbEntity
  8
0
100
AcDbLine
 10
-17.69291870528036
 20
28.42331379056063
 30
0.0
 11
-17.62875541305799
 21
26.77865787728166
 31
0.0
  0
LINE
  5
177
330
1F
100
AcDbEntity
  8
0
100
AcDbLine
 10
-17.99250586070402
 20
28.28921751812669
 30
0.0
 11
-17.92723839796024
 21
26.64460141889563
 31
0.0
  0
LINE
  5
178
330
1F
100
AcDbEntity
  8
0
100
AcDbLine
 10
-18.2558250902568
 20
28.12115364596421
 30
0.0
 11
-18.1895799098357
 21
26.47658782016946
 31
0.0
  0
LINE
  5
179
330
1F
100
AcDbEntity
  8
0
100
AcDbLine
 10
-18.47488718662335
 20
27.92416696659491
 30
0.0
 11
-18.40152905734627
 21
26.28533749867047
 31
0.0
  0
LINE
  5
17A
330
1F
100
AcDbEntity
  8
0
100
AcDbLine
 10
-18.6430087404695
 20
27.70417975493052
 30
0.0
 11
-18.59986156456637
 21
26.50479124841293
 31
0.0
  0
LINE
  5
17B
330
1F
100
AcDbEntity
  8
0
100
AcDbLine
 10
-18.75503371557623
 20
27.46782453717795
 30
0.0
 11
-18.72878797996449
 21
26.73328519187988
 31
0.0
  0
LINE
  5
17C
330
1F
100
AcDbEntity
  8
0
100
AcDbLine
 10
75.40737128052996
 20
25.58746055536513
 30
0.0
 11
75.1323363432603
 21
23.94370308006993
 31
0.0
  0
LINE
  5
17D
330
1F
100
AcDbEntity
  8
0
100
AcDbLine
 10
75.1829232429363
 20
25.79686705707656
 30
0.0
 11
74.90882255733314
 21
24.15303918637943
 31
0.0
  0
LINE
  5
17E
330
1F
100
AcDbEntity
  8
0
100
AcDbLine
 10
74.91411318277682
 20
25.97936187208945
 30
0.0
 11
74.64109291958387
 21
24.33547317975793
 31
0.0
  0
LINE
  5
17F
330
1F
100
AcDbEntity
  8
0
100
AcDbLine
 10
74.60910488034244
 20
26.12946584179929
 30
0.0
 11
74.33727844600429
 21
24.48552749086168
 31
0.0
  0
LINE
  5
180
330
1F
100
AcDbEntity
  8
0
100
AcDbLine
 10
74.2771209998934
 20
26.24267886981629
 30
0.0
 11
74.00656585066513
 21
24.59870328448294
 31
0.0
  0
LINE
  5
181
330
1F
100
AcDbEntity
  8
0
100
AcDbLine
 10
73.92821251417378
 20
26.31561507419538
 30
0.0
 11
73.65896786538013
 21
24.6716156010643
 31
0.0
  0
LINE
  5
182
330
1F
100
AcDbEntity
  8
0
100
AcDbLine
 10
73.57287769293826
 20
26.34609353131853
 30
0.0
 11
73.30494363197384
 21
24.70208409921908
 31
0.0
  0
LINE
  5
183
330
1F
100
AcDbEntity
  8
0
100
AcDbLine
 10
73.22182841917972
 20
26.33320415806768
 30
0.0
 11
72.95516586115222
 21
24.68919893595653
 31
0.0
  0
LINE
  5
184
330
1F
100
AcDbEntity
  8
0
100
AcDbLine
 10
72.88564753561798
 20
26.27733130030121
 30
0.0
 11
72.62017939011723
 21
24.6333443559563
 31
0.0
  0
LINE
  5
185
330
1F
100
AcDbEntity
  8
0
100
AcDbLine
 10
72.57445828552868
 20
26.18014623459019
 30
0.0
 11
72.31007177420524
 21
24.53619119213328
 31
0.0
  0
LINE
  5
186
330
1F
100
AcDbEntity
  8
0
100
AcDbLine
 10
72.29766757951231
 20
26.04455290786354
 30
0.0
 11
72.03421741698452
 21
24.40064260772088
 31
0.0
  0
LINE
  5
187
330
1F
100
AcDbEntity
  8
0
100
AcDbLine
 10
72.0636462167138
 20
25.8746142101652
 30
0.0
 11
71.84386863259734
 21
24.4712264394548
 31
0.0
  0
LINE
  5
188
330
1F
100
AcDbEntity
  8
0
100
AcDbLine
 10
71.87953376370825
 20
25.67542720090431
 30
0.0
 11
71.72890786004696
 21
24.71554037912769
 31
0.0
  0
LINE
  5
189
330
1F
100
AcDbEntity
  8
0
100
AcDbLine
 10
82.31358348616332
 20
-39.0487141694022
 30
0.0
 11
82.13649772451461
 21
-39.87922129908532
 31
0.0
  0
LINE
  5
18A
330
1F
100
AcDbEntity
  8
0
100
AcDbLine
 10
82.2460007119294
 20
-38.73013513345988
 30
0.0
 11
81.94362734388868
 21
-40.15055988883593
 31
0.0
  0
LINE
  5
18B
330
1F
100
AcDbEntity
  8
0
100
AcDbLine
 10
82.11062151709926
 20
-38.41960417392875
 30
0.0
 11
81.77256001047078
 21
-40.01157383571266
 31
0.0
  0
LINE
  5
18C
330
1F
100
AcDbEntity
  8
0
100
AcDbLine
 10
81.9116457795348
 20
-38.12652681424885
 30
0.0
 11
81.57457961500738
 21
-39.71887105900034
 31
0.0
  0
LINE
  5
18D
330
1F
100
AcDbEntity
  8
0
100
AcDbLine
 10
81.65520639836437
 20
-37.85974048549858
 30
0.0
 11
81.31935530948971
 21
-39.45242461160489
 31
0.0
  0
LINE
  5
18E
330
1F
100
AcDbEntity
  8
0
100
AcDbLine
 10
81.34912193510469
 20
-37.62726428726689
 30
0.0
 11
81.01466853578899
 21
-39.22024373020295
 31
0.0
  0
LINE
  5
18F
330
1F
100
AcDbEntity
  8
0
100
AcDbLine
 10
81.00268590365687
 20
-37.4360604486037
 30
0.0
 11
80.66977045179497
 21
-39.02928218363211
 31
0.0
  0
LINE
  5
190
330
1F
100
AcDbEntity
  8
0
100
AcDbLine
 10
80.62636935449126
 20
-37.29186572475918
 30
0.0
 11
80.29508583533021
 21
-38.88526982643331
 31
0.0
  0
LINE
  5
191
330
1F
100
AcDbEntity
  8
0
100
AcDbLine
 10
80.23155490207476
 20
-37.1989756458048
 30
0.0
 11
79.9019483050565
 21
-38.79249706582679
 31
0.0
  0
LINE
  5
192
330
1F
100
AcDbEntity
  8
0
100
AcDbLine
 10
79.83010944168544
 20
-37.16015651119847
 30
0.0
 11
79.50217479605692
 21
-38.75372692140662
 31
0.0
  0
LINE
  5
193
330
1F
100
AcDbEntity
  8
0
100
AcDbLine
 10
79.43412240815438
 20
-37.17657423437957
 30
0.0
 11
79.10780487209998
 21
-38.77012392794179
 31
0.0
  0
LINE
  5
194
330
1F
100
AcDbEntity
  8
0
100
AcDbLine
 10
79.0555174006861
 20
-37.24773100120115
 30
0.0
 11
78.7307139118858
 21
-38.84119085999816
 31
0.0
  0
LINE
  5
195
330
1F
100
AcDbEntity
  8
0
100
AcDbLine
 10
78.70568451059812
 20
-37.37150833789836
 30
0.0
 11
78.38224685181316
 21
-38.96481175141045
 31
0.0
  0
LINE
  5
196
330
1F
100
AcDbEntity
  8
0
100
AcDbLine
 10
78.39519186068465
 20
-37.54422365575613
 30
0.0
 11
78.0729308168334
 21
-39.13730839325449
 31
0.0
  0
LINE
  5
197
330
1F
100
AcDbEntity
  8
0
100
AcDbLine
 10
78.13342447223464
 20
-37.76069673539321
 30
0.0
 11
77.81873923470741
 21
-39.34801605361191
 31
0.0
  0
LINE
  5
198
330
1F
100
AcDbEntity
  8
0
100
AcDbLine
 10
-19.3649600762968
 20
-28.41084552783111
 30
0.0
 11
-19.32370625494054
 21
-29.25589960407808
 31
0.0
  0
LINE
  5
199
330
1F
100
AcDbEntity
  8
0
100
AcDbLine
 10
-19.50810571038712
 20
-28.12816928545762
 30
0.0
 11
-19.43771863022521
 21
-29.56043681301386
 31
0.0
  0
LINE
  5
19A
330
1F
100
AcDbEntity
  8
0
100
AcDbLine
 10
-19.71238264724491
 20
-27.87084628232989
 30
0.0
 11
-19.63274959940257
 21
-29.47550229140604
 31
0.0
  0
LINE
  5
19B
330
1F
100
AcDbEntity
  8
0
100
AcDbLine
 10
-19.97154308496819
 20
-27.64661265258007
 30
0.0
 11
-19.890895955677
 21
-29.25152055733082
 31
0.0
  0
LINE
  5
19C
330
1F
100
AcDbEntity
  8
0
100
AcDbLine
 10
-20.27769224719164
 20
-27.46219330767864
 30
0.0
 11
-20.19583629723558
 21
-29.06730782759491
 31
0.0
  0
LINE
  5
19D
330
1F
100
AcDbEntity
  8
0
100
AcDbLine
 10
-20.62155947693541
 20
-27.3231004740864
 30
0.0
 11
-20.53833646885504
 21
-28.92837049621584
 31
0.0
  0
LINE
  5
19E
330
1F
100
AcDbEntity
  8
0
100
AcDbLine
 10
-20.99275914954453
 20
-27.23350098881486
 30
0.0
 11
-20.9080518827535
 21
-28.83887103006562
 31
0.0
  0
LINE
  5
19F
330
1F
100
AcDbEntity
  8
0
100
AcDbLine
 10
-21.3801077816781
 20
-27.19605694454118
 30
0.0
 11
-21.29384341024373
 21
-28.80146874924172
 31
0.0
  0
LINE
  5
1A0
330
1F
100
AcDbEntity
  8
0
100
AcDbLine
 10
-21.77194274624949
 20
-27.21189321051811
 30
0.0
 11
-21.68409487067345
 21
-28.81728735465832
 31
0.0
  0
LINE
  5
1A1
330
1F
100
AcDbEntity
  8
0
100
AcDbLine
 10
-22.15647250977714
 20
-27.280529168444
 30
0.0
 11
-22.06706193133941
 21
-28.8858467272834
 31
0.0
  0
LINE
  5
1A2
330
1F
100
AcDbEntity
  8
0
100
AcDbLine
 10
-22.52210969981709
 20
-27.3999289462788
 30
0.0
 11
-22.43120389056414
 21
-29.00511311135606
 31
0.0
  0
LINE
  5
1A3
330
1F
100
AcDbEntity
  8
0
100
AcDbLine
 10
-22.85783482130113
 20
-27.56651578151956
 30
0.0
 11
-22.76554598596654
 21
-29.17151348470805
 31
0.0
  0
LINE
  5
1A4
330
1F
100
AcDbEntity
  8
0
100
AcDbLine
 10
-23.15349136361379
 20
-27.7753149877018
 30
0.0
 11
-23.05997333612445
 21
-29.38007840354637
 31
0.0
  0
LINE
  5
1A5
330
1F
100
AcDbEntity
  8
0
100
AcDbLine
 10
-23.40010584855455
 20
-28.02007085385207
 30
0.0
 11
-23.30554970731441
 21
-29.62455881949335
 31
0.0
  0
LINE
  5
1A6
330
1F
100
AcDbEntity
  8
0
100
AcDbLine
 10
-23.59016342159713
 20
-28.29343291633554
 30
0.0
 11
-23.48156672554127
 21
-29.87852979226577
 31
0.0
  0
LINE
  5
1A7
330
1F
100
AcDbEntity
  8
0
100
AcDbLine
 10
72.01584455454868
 20
24.24017314354069
 30
0.0
 11
71.94484977506042
 21
24.33555613441135
 31
0.0
  0
LINE
  5
1A8
330
1F
100
AcDbEntity
  8
0
100
AcDbLine
 10
71.94484977506042
 20
24.33555613441135
 30
0.0
 11
71.84386863259734
 21
24.4712264394548
 31
0.0
  0
LINE
  5
1A9
330
1F
100
AcDbEntity
  8
0
100
AcDbLine
 10
77.90472406408769
 20
-39.54911305961073
 30
0.0
 11
77.81873923470741
 21
-39.34801605361191
 31
0.0
  0
LINE
  5
1AA
330
1F
100
AcDbEntity
  8
0
100
AcDbLine
 10
77.81873923470741
 20
-39.34801605361191
 30
0.0
 11
77.77156188753634
 21
-39.23768004044025
 31
0.0
  0
LINE
  5
1AB
330
1F
100
AcDbEntity
  8
0
100
AcDbLine
 10
-19.46230866198688
 20
-29.61814977982441
 30
0.0
 11
-19.48900854265872
 21
-29.65706631273305
 31
0.0
  0
LINE
  5
1AC
330
1F
100
AcDbEntity
  8
0
100
AcDbLine
 10
-19.48900854265872
 20
-29.65706631273305
 30
0.0
 11
-19.65095189867976
 21
-29.89310759027245
 31
0.0
  0
LINE
  5
1AD
330
1F
100
AcDbEntity
  8
0
100
AcDbLine
 10
75.21324268304188
 20
23.83584886018613
 30
0.0
 11
75.13664675936761
 21
23.77973626800691
 31
0.0
  0
LINE
  5
1AE
330
1F
100
AcDbEntity
  8
0
100
AcDbLine
 10
82.23878965568349
 20
-39.67139274558837
 30
0.0
 11
82.13649772451461
 21
-39.87922129908532
 31
0.0
  0
LINE
  5
1AF
330
1F
100
AcDbEntity
  8
0
100
AcDbLine
 10
82.13649772451461
 20
-39.87922129908532
 30
0.0
 11
82.0984598767192
 21
-39.95650355189965
 31
0.0
  0
LINE
  5
1B0
330
1F
100
AcDbEntity
  8
0
100
AcDbLine
 10
82.0984598767192
 20
-39.95650355189965
 30
0.0
 11
81.94362734388868
 21
-40.15055988883593
 31
0.0
  0
LINE
  5
1B1
330
1F
100
AcDbEntity
  8
0
100
AcDbLine
 10
81.94362734388868
 20
-40.15055988883593
 30
0.0
 11
81.89439869566927
 21
-40.21225965548794
 31
0.0
  0
LINE
  5
1B2
330
1F
100
AcDbEntity
  8
0
100
AcDbLine
 10
81.89439869566927
 20
-40.21225965548794
 30
0.0
 11
81.86892031099356
 21
-40.23354140513775
 31
0.0
  0
LINE
  5
1B3
330
1F
100
AcDbEntity
  8
0
100
AcDbLine
 10
81.86892031099356
 20
-40.23354140513775
 30
0.0
 11
81.6327532626337
 21
-40.43080854207356
 31
0.0
  0
LINE
  5
1B4
330
1F
100
AcDbEntity
  8
0
100
AcDbLine
 10
-23.35226302914087
 20
-30.04343507729258
 30
0.0
 11
-23.48156672554127
 21
-29.87852979226577
 31
0.0
  0
LINE
  5
1B5
330
1F
100
AcDbEntity
  8
0
100
AcDbLine
 10
-23.48156672554127
 20
-29.87852979226577
 30
0.0
 11
-23.55544332139888
 21
-29.78431252365045
 31
0.0
  0
LINE
  5
1B6
330
1F
100
AcDbEntity
  8
0
100
AcDbLine
 10
-19.27782083052977
 20
-29.01761119532283
 30
0.0
 11
-19.32370625494054
 21
-29.25589960407808
 31
0.0
  0
LINE
  5
1B7
330
1F
100
AcDbEntity
  8
0
100
AcDbLine
 10
-19.32370625494054
 20
-29.25589960407808
 30
0.0
 11
-19.33668867577394
 21
-29.32331884323535
 31
0.0
  0
LINE
  5
1B8
330
1F
100
AcDbEntity
  8
0
100
AcDbLine
 10
-19.33668867577394
 20
-29.32331884323535
 30
0.0
 11
-19.43771863022521
 21
-29.56043681301386
 31
0.0
  0
LINE
  5
1B9
330
1F
100
AcDbEntity
  8
0
100
AcDbLine
 10
-19.43771863022521
 20
-29.56043681301386
 30
0.0
 11
-19.46230866198688
 21
-29.61814977982441
 31
0.0
  0
LINE
  5
1BA
330
1F
100
AcDbEntity
  8
0
100
AcDbLine
 10
75.69732401399564
 20
25.11376488471847
 30
0.0
 11
75.55394209507001
 21
24.15169534776396
 31
0.0
  0
LINE
  5
1BB
330
1F
100
AcDbEntity
  8
0
100
AcDbLine
 10
75.58061634192276
 20
25.35744635873233
 30
0.0
 11
75.37058970426924
 21
23.95111803913476
 31
0.0
  0
LINE
  5
1BC
330
1F
100
AcDbEntity
  8
0
100
AcDbLine
 10
77.9283707635399
 20
-38.01445232230352
 30
0.0
 11
77.70654270857958
 21
-38.91887785548954
 31
0.0
  0
LINE
  5
1BD
330
1F
100
AcDbEntity
  8
0
100
AcDbLine
 10
-23.71782300049451
 20
-28.58716770957845
 30
0.0
 11
-23.69678334132734
 21
-29.50022010965498
 31
0.0
  0
LINE
  5
1BE
330
1F
100
AcDbEntity
  8
0
100
AcDbLine
 10
75.68117531490981
 20
24.37531012305433
 30
0.0
 11
75.55394209507001
 21
24.15169534776396
 31
0.0
  0
LINE
  5
1BF
330
1F
100
AcDbEntity
  8
0
100
AcDbLine
 10
75.55394209507001
 20
24.15169534776396
 30
0.0
 11
75.37058970426924
 21
23.95111803913476
 31
0.0
  0
LINE
  5
1C0
330
1F
100
AcDbEntity
  8
0
100
AcDbLine
 10
75.37058970426924
 20
23.95111803913476
 30
0.0
 11
75.21324268304188
 21
23.83584886018613
 31
0.0
  0
LINE
  5
1C1
330
1F
100
AcDbEntity
  8
0
100
AcDbLine
 10
77.77156188753634
 20
-39.23768004044025
 30
0.0
 11
77.70654270857958
 21
-38.91887785548954
 31
0.0
  0
LINE
  5
1C2
330
1F
100
AcDbEntity
  8
0
100
AcDbLine
 10
77.70654270857958
 20
-38.91887785548954
 30
0.0
 11
77.71153868138232
 21
-38.60241657574504
 31
0.0
  0
LINE
  5
1C3
330
1F
100
AcDbEntity
  8
0
100
AcDbLine
 10
-23.69678334132734
 20
-29.50022010965498
 30
0.0
 11
-23.77206809248552
 21
-29.19986099224403
 31
0.0
  0
LINE
  5
1C4
330
1F
100
AcDbEntity
  8
0
100
AcDbLine
 10
-23.55544332139888
 20
-29.78431252365045
 30
0.0
 11
-23.69678334132734
 21
-29.50022010965498
 31
0.0
  0
ENDSEC
  0
SECTION
  2
OBJECTS
  0
DICTIONARY
  5
C
330
0
100
AcDbDictionary
  3
ACAD_GROUP
350
D
  3
ACAD_LAYOUT
350
1A
  3
ACAD_MATERIAL
350
43
  3
ACAD_MLEADERSTYLE
350
6B
  3
ACAD_MLINESTYLE
350
17
  3
ACAD_PLOTSETTINGS
350
19
  3
ACAD_SCALELIST
350
47
  3
ACAD_VISUALSTYLE
350
2A
  3
ACDBHEADERROUNDTRIPXREC
350
1C5
  3
ACDBVARIABLEDICTIONARY
350
1E6
  0
DICTIONARY
  5
1ED
330
8
100
AcDbDictionary
280
     1
  3
ACAD_XREC_ROUNDTRIP
360
1EE
  0
DICTIONARY
  5
D
102
{ACAD_REACTORS
330
C
102
}
330
C
100
AcDbDictionary
  0
DICTIONARY
  5
1A
102
{ACAD_REACTORS
330
C
102
}
330
C
100
AcDbDictionary
  0
DICTIONARY
  5
43
102
{ACAD_REACTORS
330
C
102
}
330
C
100
AcDbDictionary
  3
BYBLOCK
350
45
  3
BYLAYER
350
44
  3
GLOBAL
350
46
  0
DICTIONARY
  5
6B
102
{ACAD_REACTORS
330
C
102
}
330
C
100
AcDbDictionary
  3
STANDARD
350
6C
  0
DICTIONARY
  5
17
102
{ACAD_REACTORS
330
C
102
}
330
C
100
AcDbDictionary
  3
STANDARD
350
18
  0
DICTIONARY
  5
19
102
{ACAD_REACTORS
330
C
102
}
330
C
100
AcDbDictionary
  0
DICTIONARY
  5
47
102
{ACAD_REACTORS
330
C
102
}
330
C
100
AcDbDictionary
  3
A0
350
48
  3
A1
350
49
  3
A2
350
4A
  3
A3
350
4B
  3
A4
350
4C
  3
A5
350
4D
  3
A6
350
4E
  3
A7
350
4F
  3
A8
350
50
  3
A9
350
51
  3
B0
350
52
  3
B1
350
53
  3
B2
350
54
  3
B3
350
55
  3
B4
350
56
  3
B5
350
57
  3
B6
350
58
  3
B7
350
59
  3
B8
350
5A
  3
B9
350
5B
  3
C0
350
5C
  3
C1
350
5D
  3
C2
350
5E
  3
C3
350
5F
  3
C4
350
60
  3
C5
350
61
  3
C6
350
62
  3
C7
350
63
  3
C8
350
64
  3
C9
350
65
  3
D0
350
66
  3
D1
350
67
  3
D2
350
68
  0
DICTIONARY
  5
2A
102
{ACAD_REACTORS
330
C
102
}
330
C
100
AcDbDictionary
  3
2DWIREFRAME
350
2F
  3
BASIC
350
32
  3
BRIGHTEN
350
36
  3
COLORCHANGE
350
3A
  3
CONCEPTUAL
350
34
  3
DIM
350
35
  3
EDGECOLOROFF
350
3D
  3
FACEPATTERN
350
39
  3
FLAT
350
2B
  3
FLATWITHEDGES
350
2C
  3
GOURAUD
350
2D
  3
GOURAUDWITHEDGES
350
2E
  3
HIDDEN
350
31
  3
JITTEROFF
350
3B
  3
LINEPATTERN
350
38
  3
OVERHANGOFF
350
3C
  3
REALISTIC
350
33
  3
SHADED
350
42
  3
SHADED_WITH_EDGES
350
41
  3
SHADES_OF_GRAY
350
3E
  3
SKETCHY
350
3F
  3
THICKEN
350
37
  3
WIREFRAME
350
30
  3
X-RAY
350
40
  0
DICTIONARY
  5
1C5
102
{ACAD_REACTORS
330
C
102
}
330
C
100
AcDbDictionary
  3
CEPSNID
350
1CF
  3
CEPSNTYPE
350
1CE
  3
DIMSTYLEDATA
350
1E5
  3
FINGERPRINTGUID
350
1D0
  3
HYPERLINKBASE
350
1C8
  3
INSUNITS
350
1CD
  3
LAYOUTDICT
350
1CA
  3
LWETCUNION
350
1CC
  3
PLOTSETDICT
350
1CB
  3
PSVPSCALE
350
1D2
  3
PUCSBASE
350
1D5
  3
PUCSORGBACK
350
1DB
  3
PUCSORGBOTTOM
350
1D7
  3
PUCSORGFRONT
350
1DA
  3
PUCSORGLEFT
350
1D8
  3
PUCSORGRIGHT
350
1D9
  3
PUCSORGTOP
350
1D6
  3
PUCSORTHOREF
350
1D3
  3
PUCSORTHOVIEW
350
1D4
  3
STYLESHEET
350
1C9
  3
TSTACKALIGN
350
1C6
  3
TSTACKSIZE
350
1C7
  3
UCSBASE
350
1DE
  3
UCSORGBACK
350
1E4
  3
UCSORGBOTTOM
350
1E0
  3
UCSORGFRONT
350
1E3
  3
UCSORGLEFT
350
1E1
  3
UCSORGRIGHT
350
1E2
  3
UCSORGTOP
350
1DF
  3
UCSORTHOREF
350
1DC
  3
UCSORTHOVIEW
350
1DD
  3
VERSIONGUID
350
1D1
  0
DICTIONARY
  5
1E6
102
{ACAD_REACTORS
330
C
102
}
330
C
100
AcDbDictionary
  3
CANNOSCALE
350
1EF
  3
CMLEADERSTYLE
350
1E8
  3
CTABLESTYLE
350
1E7
  3
DIMASSOC
350
1EB
  3
HIDETEXT
350
1EC
  3
MSLTSCALE
350
1F0
  0
XRECORD
  5
1EE
102
{ACAD_REACTORS
330
1ED
102
}
330
1ED
100
AcDbXrecord
102
VTR_0.000_0.000_1.000_1.000_VISUALSTYLE
340
2F
102
VTR_0.000_0.000_1.000_1.000_GRIDDISPLAY
 70
     3
102
VTR_0.000_0.000_1.000_1.000_GRIDMAJOR
 70
     5
102
VTR_0.000_0.000_1.000_1.000_DEFAULTLIGHTING
280
     1
102
VTR_0.000_0.000_1.000_1.000_DEFAULTLIGHTINGTYPE
 70
     1
102
VTR_0.000_0.000_1.000_1.000_BRIGHTNESS
141
0.0
102
VTR_0.000_0.000_1.000_1.000_CONTRAST
142
0.0
  0
MATERIAL
  5
45
102
{ACAD_REACTORS
330
43
102
}
102
{ACAD_XDICTIONARY
360
1F3
102
}
330
43
100
AcDbMaterial
  1
BYBLOCK
  0
MATERIAL
  5
44
102
{ACAD_REACTORS
330
43
102
}
102
{ACAD_XDICTIONARY
360
1F1
102
}
330
43
100
AcDbMaterial
  1
BYLAYER
  0
MATERIAL
  5
46
102
{ACAD_REACTORS
330
43
102
}
102
{ACAD_XDICTIONARY
360
1F5
102
}
330
43
100
AcDbMaterial
  1
GLOBAL
  0
ACAD_PROXY_OBJECT
  5
6C
102
{ACAD_REACTORS
330
6B
102
}
330
6B
100
AcDbProxyObject
 90
      499
 91
      505
 93
      610
310
40901902A4063FBFFFFFE056BD1B81E855B9FC0AD7A3703D0AD73F4214DD185B99185C9900AD7A3703D0AC73F90141901A02B5E8DC0F42B1CFC02B5E8DC0F42B1CFE5764000000000000300FC0
340
14
340
0
340
11
340
0
 94
        0
1001
ACAD_MLEADERVER
1070
     2
  0
MLINESTYLE
  5
18
102
{ACAD_REACTORS
330
17
102
}
330
17
100
AcDbMlineStyle
  2
Standard
 70
     0
  3

 62
   256
 51
90.0
 52
90.0
 71
     2
 49
0.5
 62
   256
  6
BYLAYER
 49
-0.5
 62
   256
  6
BYLAYER
  0
ACAD_PROXY_OBJECT
  5
48
102
{ACAD_REACTORS
330
47
102
}
330
47
100
AcDbProxyObject
 90
      499
 91
      503
 93
       41
310
903313A31580
  0
ACAD_PROXY_OBJECT
  5
49
102
{ACAD_REACTORS
330
47
102
}
330
47
100
AcDbProxyObject
 90
      499
 91
      503
 93
      105
310
903313A324000000000000004000
  0
ACAD_PROXY_OBJECT
  5
4A
102
{ACAD_REACTORS
330
47
102
}
330
47
100
AcDbProxyObject
 90
      499
 91
      503
 93
      105
310
903313A344000000000000104000
  0
ACAD_PROXY_OBJECT
  5
4B
102
{ACAD_REACTORS
330
47
102
}
330
47
100
AcDbProxyObject
 90
      499
 91
      503
 93
      105
310
903313A354000000000000144000
  0
ACAD_PROXY_OBJECT
  5
4C
102
{ACAD_REACTORS
330
47
102
}
330
47
100
AcDbProxyObject
 90
      499
 91
      503
 93
      105
310
903313A384000000000000204000
  0
ACAD_PROXY_OBJECT
  5
4D
102
{ACAD_REACTORS
330
47
102
}
330
47
100
AcDbProxyObject
 90
      499
 91
      503
 93
      113
310
904313A31304000000000000244000
  0
ACAD_PROXY_OBJECT
  5
4E
102
{ACAD_REACTORS
330
47
102
}
330
47
100
AcDbProxyObject
 90
      499
 91
      503
 93
      113
310
904313A31364000000000000304000
  0
ACAD_PROXY_OBJECT
  5
4F
102
{ACAD_REACTORS
330
47
102
}
330
47
100
AcDbProxyObject
 90
      499
 91
      503
 93
      113
310
904313A32304000000000000344000
  0
ACAD_PROXY_OBJECT
  5
50
102
{ACAD_REACTORS
330
47
102
}
330
47
100
AcDbProxyObject
 90
      499
 91
      503
 93
      113
310
904313A333040000000000003E4000
  0
ACAD_PROXY_OBJECT
  5
51
102
{ACAD_REACTORS
330
47
102
}
330
47
100
AcDbProxyObject
 90
      499
 91
      503
 93
      113
310
904313A34304000000000000444000
  0
ACAD_PROXY_OBJECT
  5
52
102
{ACAD_REACTORS
330
47
102
}
330
47
100
AcDbProxyObject
 90
      499
 91
      503
 93
      113
310
904313A35304000000000000494000
  0
ACAD_PROXY_OBJECT
  5
53
102
{ACAD_REACTORS
330
47
102
}
330
47
100
AcDbProxyObject
 90
      499
 91
      503
 93
      121
310
905313A3130304000000000000594000
  0
ACAD_PROXY_OBJECT
  5
54
102
{ACAD_REACTORS
330
47
102
}
330
47
100
AcDbProxyObject
 90
      499
 91
      503
 93
      105
310
903323A310000000000000010100
  0
ACAD_PROXY_OBJECT
  5
55
102
{ACAD_REACTORS
330
47
102
}
330
47
100
AcDbProxyObject
 90
      499
 91
      503
 93
      105
310
903343A310000000000000410100
  0
ACAD_PROXY_OBJECT
  5
56
102
{ACAD_REACTORS
330
47
102
}
330
47
100
AcDbProxyObject
 90
      499
 91
      503
 93
      105
310
903383A310000000000000810100
  0
ACAD_PROXY_OBJECT
  5
57
102
{ACAD_REACTORS
330
47
102
}
330
47
100
AcDbProxyObject
 90
      499
 91
      503
 93
      113
310
90431303A310000000000000910100
  0
ACAD_PROXY_OBJECT
  5
58
102
{ACAD_REACTORS
330
47
102
}
330
47
100
AcDbProxyObject
 90
      499
 91
      503
 93
      121
310
9053130303A310000000000001650100
  0
ACAD_PROXY_OBJECT
  5
59
102
{ACAD_REACTORS
330
47
102
}
330
47
100
AcDbProxyObject
 90
      499
 91
      503
 93
      257
310
90E312F31323822203D2031272D3022000000000000200FC000000000000284000
  0
ACAD_PROXY_OBJECT
  5
5A
102
{ACAD_REACTORS
330
47
102
}
330
47
100
AcDbProxyObject
 90
      499
 91
      503
 93
      249
310
90D312F363422203D2031272D3022000000000000240FC000000000000284000
  0
ACAD_PROXY_OBJECT
  5
5B
102
{ACAD_REACTORS
330
47
102
}
330
47
100
AcDbProxyObject
 90
      499
 91
      503
 93
      249
310
90D312F333222203D2031272D3022000000000000280FC000000000000284000
  0
ACAD_PROXY_OBJECT
  5
5C
102
{ACAD_REACTORS
330
47
102
}
330
47
100
AcDbProxyObject
 90
      499
 91
      503
 93
      249
310
90D312F313622203D2031272D30220000000000002C0FC000000000000284000
  0
ACAD_PROXY_OBJECT
  5
5D
102
{ACAD_REACTORS
330
47
102
}
330
47
100
AcDbProxyObject
 90
      499
 91
      503
 93
      249
310
90D332F333222203D2031272D30220000000000002E0FC000000000000284000
  0
ACAD_PROXY_OBJECT
  5
5E
102
{ACAD_REACTORS
330
47
102
}
330
47
100
AcDbProxyObject
 90
      499
 91
      503
 93
      241
310
90C312F3822203D2031272D3022000000000000300FC000000000000284000
  0
ACAD_PROXY_OBJECT
  5
5F
102
{ACAD_REACTORS
330
47
102
}
330
47
100
AcDbProxyObject
 90
      499
 91
      503
 93
      249
310
90D332F313622203D2031272D3022000000000000320FC000000000000284000
  0
ACAD_PROXY_OBJECT
  5
60
102
{ACAD_REACTORS
330
47
102
}
330
47
100
AcDbProxyObject
 90
      499
 91
      503
 93
      241
310
90C312F3422203D2031272D3022000000000000340FC000000000000284000
  0
ACAD_PROXY_OBJECT
  5
61
102
{ACAD_REACTORS
330
47
102
}
330
47
100
AcDbProxyObject
 90
      499
 91
      503
 93
      241
310
90C332F3822203D2031272D3022000000000000360FC000000000000284000
  0
ACAD_PROXY_OBJECT
  5
62
102
{ACAD_REACTORS
330
47
102
}
330
47
100
AcDbProxyObject
 90
      499
 91
      503
 93
      241
310
90C312F3222203D2031272D3022000000000000380FC000000000000284000
  0
ACAD_PROXY_OBJECT
  5
63
102
{ACAD_REACTORS
330
47
102
}
330
47
100
AcDbProxyObject
 90
      499
 91
      503
 93
      241
310
90C332F3422203D2031272D30220000000000003A0FC000000000000284000
  0
ACAD_PROXY_OBJECT
  5
64
102
{ACAD_REACTORS
330
47
102
}
330
47
100
AcDbProxyObject
 90
      499
 91
      503
 93
      161
310
90A3122203D2031272D30224000000000000284000
  0
ACAD_PROXY_OBJECT
  5
65
102
{ACAD_REACTORS
330
47
102
}
330
47
100
AcDbProxyObject
 90
      499
 91
      503
 93
      257
310
90E312D312F3222203D2031272D30220000000000003E0FC000000000000284000
  0
ACAD_PROXY_OBJECT
  5
66
102
{ACAD_REACTORS
330
47
102
}
330
47
100
AcDbProxyObject
 90
      499
 91
      503
 93
      225
310
90A3322203D2031272D302200000000000002100000000000000284000
  0
ACAD_PROXY_OBJECT
  5
67
102
{ACAD_REACTORS
330
47
102
}
330
47
100
AcDbProxyObject
 90
      499
 91
      503
 93
      225
310
90A3622203D2031272D302200000000000006100000000000000284000
  0
ACAD_PROXY_OBJECT
  5
68
102
{ACAD_REACTORS
330
47
102
}
330
47
100
AcDbProxyObject
 90
      499
 91
      503
 93
      249
310
90D31272D3022203D2031272D30220000000000000A100000000000000284000
  0
ACAD_PROXY_OBJECT
  5
2F
102
{ACAD_REACTORS
330
2A
102
}
330
2A
100
AcDbProxyObject
 90
      499
 91
      501
 93
      436
310
42CC9915DA5C99599C985B595049028333333333333E33F0000000000000F90107901411070040501600405405064090741402480A0340
1001
ACAD
1000
AcDbSavedByObjectVersion
1070
     0
  0
ACAD_PROXY_OBJECT
  5
32
102
{ACAD_REACTORS
330
2A
102
}
330
2A
100
AcDbProxyObject
 90
      499
 91
      501
 93
      388
310
4150985CDA58D07406404333333333333E33F0000000000000F90107A41107004050150841D405064090741402480A0350
1001
ACAD
1000
AcDbSavedByObjectVersion
1070
     0
  0
ACAD_PROXY_OBJECT
  5
36
102
{ACAD_REACTORS
330
2A
102
}
330
2A
100
AcDbProxyObject
 90
      499
 91
      501
 93
      428
310
42109C9A59DA1D195B90C409028333333333333E33F0000000000000F9010790141107004050150841D405064090741402480A029950
1001
ACAD
1000
AcDbSavedByObjectVersion
1070
     0
  0
ACAD_PROXY_OBJECT
  5
3A
102
{ACAD_REACTORS
330
2A
102
}
330
2A
100
AcDbProxyObject
 90
      499
 91
      501
 93
      452
310
42D0DBDB1BDC90DA185B99D95104090240C333333333333E33F0000000000000F90108901411070040501508421405064090741402480A0350
1001
ACAD
1000
AcDbSavedByObjectVersion
1070
     0
  0
ACAD_PROXY_OBJECT
  5
34
102
{ACAD_REACTORS
330
2A
102
}
330
2A
100
AcDbProxyObject
 90
      499
 91
      501
 93
      500
310
4290DBDB98D95C1D1D585B10940D028333333333333E33F0000000000000F90107902409070040501000000000018199010841D405064090740C02480A0340
1001
ACAD
1000
AcDbSavedByObjectVersion
1070
     0
  0
ACAD_PROXY_OBJECT
  5
35
102
{ACAD_REACTORS
330
2A
102
}
330
2A
100
AcDbProxyObject
 90
      499
 91
      501
 93
      412
310
40D11A5B50B409028333333333333E33F0000000000000F9010790141107004050150841D405064090741402480A02677FFFFFD0
1001
ACAD
1000
AcDbSavedByObjectVersion
1070
     0
  0
ACAD_PROXY_OBJECT
  5
3D
102
{ACAD_REACTORS
330
2A
102
}
330
2A
100
AcDbProxyObject
 90
      499
 91
      501
 93
      452
310
43115919D950DBDB1BDC93D999916409028333333333333E33F0000000000000F9010790141107004050150841D405064090741402480A0350
1001
ACAD
1000
AcDbSavedByObjectVersion
1070
     0
  0
ACAD_PROXY_OBJECT
  5
39
102
{ACAD_REACTORS
330
2A
102
}
330
2A
100
AcDbProxyObject
 90
      499
 91
      501
 93
      444
310
42D19858D95C185D1D195C9B90F409028333333333333E33F0000000000000F9010790141107004050150841D405064090741402480A0350
1001
ACAD
1000
AcDbSavedByObjectVersion
1070
     0
  0
ACAD_PROXY_OBJECT
  5
2B
102
{ACAD_REACTORS
330
2A
102
}
330
2A
100
AcDbProxyObject
 90
      499
 91
      501
 93
      380
310
41119B185D240901404333333333333E33F0000000000000F9010740A907004050150841D405064090741402480A1B50
1001
ACAD
1000
AcDbSavedByObjectVersion
1070
     0
  0
ACAD_PROXY_OBJECT
  5
2C
102
{ACAD_REACTORS
330
2A
102
}
330
2A
100
AcDbProxyObject
 90
      499
 91
      501
 93
      468
310
43519B185D15DA5D1A115919D95CD0140901404333333333333E33F0000000000000F90107409019070040501600405405064090741402480A1B50
1001
ACAD
1000
AcDbSavedByObjectVersion
1070
     0
  0
ACAD_PROXY_OBJECT
  5
2D
102
{ACAD_REACTORS
330
2A
102
}
330
2A
100
AcDbProxyObject
 90
      499
 91
      501
 93
      404
310
41D1DBDD5C985D5910240902404333333333333E33F0000000000000F9010740A9070040501641D405064090741402480A1B50
1001
ACAD
1000
AcDbSavedByObjectVersion
1070
     0
  0
ACAD_PROXY_OBJECT
  5
2E
102
{ACAD_REACTORS
330
2A
102
}
330
2A
100
AcDbProxyObject
 90
      499
 91
      501
 93
      492
310
4411DBDD5C985D5915DA5D1A115919D95CD0340902404333333333333E33F0000000000000F90107409019070040501600405405064090741402480A1B50
1001
ACAD
1000
AcDbSavedByObjectVersion
1070
     0
  0
ACAD_PROXY_OBJECT
  5
31
102
{ACAD_REACTORS
330
2A
102
}
330
2A
100
AcDbProxyObject
 90
      499
 91
      501
 93
      476
310
41921A5919195B90640502408333333333333E33F0000000000000F901079024090700405020000000000001110200405405064090740C02480A0340
1001
ACAD
1000
AcDbSavedByObjectVersion
1070
     0
  0
ACAD_PROXY_OBJECT
  5
3B
102
{ACAD_REACTORS
330
2A
102
}
330
2A
100
AcDbProxyObject
 90
      499
 91
      501
 93
      428
310
42529A5D1D195C93D999914409028333333333333E33F0000000000000F9010790141107004050150A41D405064090741402480A0350
1001
ACAD
1000
AcDbSavedByObjectVersion
1070
     0
  0
ACAD_PROXY_OBJECT
  5
38
102
{ACAD_REACTORS
330
2A
102
}
330
2A
100
AcDbProxyObject
 90
      499
 91
      501
 93
      444
310
42D31A5B995C185D1D195C9B90E409028333333333333E33F0000000000000F9010790141107004050750841D405064090741402483A0350
1001
ACAD
1000
AcDbSavedByObjectVersion
1070
     0
  0
ACAD_PROXY_OBJECT
  5
3C
102
{ACAD_REACTORS
330
2A
102
}
330
2A
100
AcDbProxyObject
 90
      499
 91
      501
 93
      444
310
42D3DD995C9A185B99D3D999915409028333333333333E33F0000000000000F9010790141107004050150941D405064090741402480A0350
1001
ACAD
1000
AcDbSavedByObjectVersion
1070
     0
  0
ACAD_PROXY_OBJECT
  5
33
102
{ACAD_REACTORS
330
2A
102
}
330
2A
100
AcDbProxyObject
 90
      499
 91
      501
 93
      428
310
425499585B1A5CDD1A58D08409038333333333333E33F0000000000000F9010740A907004050150800405405064090740C02480A1B40
1001
ACAD
1000
AcDbSavedByObjectVersion
1070
     0
  0
ACAD_PROXY_OBJECT
  5
42
102
{ACAD_REACTORS
330
2A
102
}
330
2A
100
AcDbProxyObject
 90
      499
 91
      501
 93
      420
310
4194DA1859195911B40902404333333333333E33F0000000000000F9010740A41107004050150800405405064090840C02480A0B40
1001
ACAD
1000
AcDbSavedByObjectVersion
1070
     0
  0
ACAD_PROXY_OBJECT
  5
41
102
{ACAD_REACTORS
330
2A
102
}
330
2A
100
AcDbProxyObject
 90
      499
 91
      501
 93
      516
310
4454DA18591959081DDA5D1A08195919D95CD1A40902404333333333333E33F0000000000000F901074090142907004050250800405405064090740C02480A0B40
1001
ACAD
1000
AcDbSavedByObjectVersion
1070
     0
  0
ACAD_PROXY_OBJECT
  5
3E
102
{ACAD_REACTORS
330
2A
102
}
330
2A
100
AcDbProxyObject
 90
      499
 91
      501
 93
      532
310
4394DA1859195CC81BD98811DC985E5174090240C333333333333E33F0000000000000F901079024090741D01000000000000111010841D405064090740C02480A0340
1001
ACAD
1000
AcDbSavedByObjectVersion
1070
     0
  0
ACAD_PROXY_OBJECT
  5
3F
102
{ACAD_REACTORS
330
2A
102
}
330
2A
100
AcDbProxyObject
 90
      499
 91
      501
 93
      476
310
41D4DAD95D18DA1E51840502408333333333333E33F0000000000000F901079024090741D01000000000000111010B41D405064090741802480A0340
1001
ACAD
1000
AcDbSavedByObjectVersion
1070
     0
  0
ACAD_PROXY_OBJECT
  5
37
102
{ACAD_REACTORS
330
2A
102
}
330
2A
100
AcDbProxyObject
 90
      499
 91
      501
 93
      412
310
41D51A1A58DAD95B90D409028333333333333E33F0000000000000F9010790141107004050150C41D405064090741402480A0350
1001
ACAD
1000
AcDbSavedByObjectVersion
1070
     0
  0
ACAD_PROXY_OBJECT
  5
30
102
{ACAD_REACTORS
330
2A
102
}
330
2A
100
AcDbProxyObject
 90
      499
 91
      501
 93
      420
310
4255DA5C99599C985B595059028333333333333E33F0000000000000F90107901411070040501600405405064090740C02480A0340
1001
ACAD
1000
AcDbSavedByObjectVersion
1070
     0
  0
ACAD_PROXY_OBJECT
  5
40
102
{ACAD_REACTORS
330
2A
102
}
330
2A
100
AcDbProxyObject
 90
      499
 91
      501
 93
      404
310
41560B54985E51940902404000000000000E03F0000000000000F9010740501907004050150841D405064090740C02480A1B40
1001
ACAD
1000
AcDbSavedByObjectVersion
1070
     0
  0
XRECORD
  5
1CF
102
{ACAD_REACTORS
330
1C5
102
}
330
1C5
100
AcDbXrecord
340
0
  0
XRECORD
  5
1CE
102
{ACAD_REACTORS
330
1C5
102
}
330
1C5
100
AcDbXrecord
 90
        0
  0
XRECORD
  5
1E5
102
{ACAD_REACTORS
330
1C5
102
}
330
1C5
100
AcDbXrecord
1000
DSTYLE
1002
{
1070
   171
 70
     2
1070
   143
 40
25.4
1070
   274
 70
     2
1070
    41
 40
0.18
1070
   141
 40
0.09
1070
   271
 70
     4
1070
    43
 40
0.38
1070
   278
 70
    46
1070
    44
 40
0.18
1070
    42
 40
0.0625
1070
   147
 40
0.09
1070
    77
 70
     0
1070
   272
 70
     4
1070
    73
 70
     1
1070
   172
 70
     0
1070
    74
 70
     1
1070
   283
 70
     1
1070
   340
340
11
1070
   140
 40
0.18
1070
   284
 70
     0
1070
    78
 70
     0
1002
}
  0
XRECORD
  5
1D0
102
{ACAD_REACTORS
330
1C5
102
}
330
1C5
100
AcDbXrecord
  1
{81b4518d-77c7-df46-98bf-ee368d5b1c5d}
  0
XRECORD
  5
1C8
102
{ACAD_REACTORS
330
1C5
102
}
330
1C5
100
AcDbXrecord
  1

  0
XRECORD
  5
1CD
102
{ACAD_REACTORS
330
1C5
102
}
330
1C5
100
AcDbXrecord
 90
        4
  0
XRECORD
  5
1CA
102
{ACAD_REACTORS
330
1C5
102
}
330
1C5
100
AcDbXrecord
340
1A
  0
XRECORD
  5
1CC
102
{ACAD_REACTORS
330
1C5
102
}
330
1C5
100
AcDbXrecord
 90
    10781
  0
XRECORD
  5
1CB
102
{ACAD_REACTORS
330
1C5
102
}
330
1C5
100
AcDbXrecord
340
19
  0
XRECORD
  5
1D2
102
{ACAD_REACTORS
330
1C5
102
}
330
1C5
100
AcDbXrecord
 40
0.0
  0
XRECORD
  5
1D5
102
{ACAD_REACTORS
330
1C5
102
}
330
1C5
100
AcDbXrecord
340
0
  0
XRECORD
  5
1DB
102
{ACAD_REACTORS
330
1C5
102
}
330
1C5
100
AcDbXrecord
 10
0.0
 20
0.0
 30
0.0
  0
XRECORD
  5
1D7
102
{ACAD_REACTORS
330
1C5
102
}
330
1C5
100
AcDbXrecord
 10
0.0
 20
0.0
 30
0.0
  0
XRECORD
  5
1DA
102
{ACAD_REACTORS
330
1C5
102
}
330
1C5
100
AcDbXrecord
 10
0.0
 20
0.0
 30
0.0
  0
XRECORD
  5
1D8
102
{ACAD_REACTORS
330
1C5
102
}
330
1C5
100
AcDbXrecord
 10
0.0
 20
0.0
 30
0.0
  0
XRECORD
  5
1D9
102
{ACAD_REACTORS
330
1C5
102
}
330
1C5
100
AcDbXrecord
 10
0.0
 20
0.0
 30
0.0
  0
XRECORD
  5
1D6
102
{ACAD_REACTORS
330
1C5
102
}
330
1C5
100
AcDbXrecord
 10
0.0
 20
0.0
 30
0.0
  0
XRECORD
  5
1D3
102
{ACAD_REACTORS
330
1C5
102
}
330
1C5
100
AcDbXrecord
340
0
  0
XRECORD
  5
1D4
102
{ACAD_REACTORS
330
1C5
102
}
330
1C5
100
AcDbXrecord
 70
     0
  0
XRECORD
  5
1C9
102
{ACAD_REACTORS
330
1C5
102
}
330
1C5
100
AcDbXrecord
  1

  0
XRECORD
  5
1C6
102
{ACAD_REACTORS
330
1C5
102
}
330
1C5
100
AcDbXrecord
 90
        1
  0
XRECORD
  5
1C7
102
{ACAD_REACTORS
330
1C5
102
}
330
1C5
100
AcDbXrecord
 90
       70
  0
XRECORD
  5
1DE
102
{ACAD_REACTORS
330
1C5
102
}
330
1C5
100
AcDbXrecord
340
0
  0
XRECORD
  5
1E4
102
{ACAD_REACTORS
330
1C5
102
}
330
1C5
100
AcDbXrecord
 10
0.0
 20
0.0
 30
0.0
  0
XRECORD
  5
1E0
102
{ACAD_REACTORS
330
1C5
102
}
330
1C5
100
AcDbXrecord
 10
0.0
 20
0.0
 30
0.0
  0
XRECORD
  5
1E3
102
{ACAD_REACTORS
330
1C5
102
}
330
1C5
100
AcDbXrecord
 10
0.0
 20
0.0
 30
0.0
  0
XRECORD
  5
1E1
102
{ACAD_REACTORS
330
1C5
102
}
330
1C5
100
AcDbXrecord
 10
0.0
 20
0.0
 30
0.0
  0
XRECORD
  5
1E2
102
{ACAD_REACTORS
330
1C5
102
}
330
1C5
100
AcDbXrecord
 10
0.0
 20
0.0
 30
0.0
  0
XRECORD
  5
1DF
102
{ACAD_REACTORS
330
1C5
102
}
330
1C5
100
AcDbXrecord
 10
0.0
 20
0.0
 30
0.0
  0
XRECORD
  5
1DC
102
{ACAD_REACTORS
330
1C5
102
}
330
1C5
100
AcDbXrecord
340
0
  0
XRECORD
  5
1DD
102
{ACAD_REACTORS
330
1C5
102
}
330
1C5
100
AcDbXrecord
 70
     0
  0
XRECORD
  5
1D1
102
{ACAD_REACTORS
330
1C5
102
}
330
1C5
100
AcDbXrecord
  1
{FAEB1C32-E019-11D5-929B-00C0DF256EC4}
  0
DICTIONARYVAR
  5
1EF
102
{ACAD_REACTORS
330
1E6
102
}
330
1E6
100
DictionaryVariables
280
     0
  1
1:1
  0
DICTIONARYVAR
  5
1E8
102
{ACAD_REACTORS
330
1E6
102
}
330
1E6
100
DictionaryVariables
280
     0
  1
Standard
  0
DICTIONARYVAR
  5
1E7
102
{ACAD_REACTORS
330
1E6
102
}
330
1E6
100
DictionaryVariables
280
     0
  1
Standard
  0
DICTIONARYVAR
  5
1EB
102
{ACAD_REACTORS
330
1E6
102
}
330
1E6
100
DictionaryVariables
280
     0
  1
2
  0
DICTIONARYVAR
  5
1EC
102
{ACAD_REACTORS
330
1E6
102
}
330
1E6
100
DictionaryVariables
280
     0
  1
1
  0
DICTIONARYVAR
  5
1F0
102
{ACAD_REACTORS
330
1E6
102
}
330
1E6
100
DictionaryVariables
280
     0
  1
1
  0
DICTIONARY
  5
1F3
330
45
100
AcDbDictionary
280
     1
  3
ACAD_XREC_ROUNDTRIP
360
1F4
  0
DICTIONARY
  5
1F1
330
44
100
AcDbDictionary
280
     1
  3
ACAD_XREC_ROUNDTRIP
360
1F2
  0
DICTIONARY
  5
1F5
330
46
100
AcDbDictionary
280
     1
  3
ACAD_XREC_ROUNDTRIP
360
1F6
  0
XRECORD
  5
1F4
102
{ACAD_REACTORS
330
1F3
102
}
330
1F3
100
AcDbXrecord
102
MATERIAL
148
0.0
149
0.0
149
0.0
 93
        0
 94
      127
282
     0
 72
     1
 77
     1
171
     1
175
     1
179
     1
273
     0
  0
XRECORD
  5
1F2
102
{ACAD_REACTORS
330
1F1
102
}
330
1F1
100
AcDbXrecord
102
MATERIAL
148
0.0
149
0.0
149
0.0
 93
        0
 94
      127
282
     0
 72
     1
 77
     1
171
     1
175
     1
179
     1
273
     0
  0
XRECORD
  5
1F6
102
{ACAD_REACTORS
330
1F5
102
}
330
1F5
100
AcDbXrecord
102
MATERIAL
148
0.0
149
0.0
149
0.0
 93
        0
 94
      127
282
     0
 72
     1
 77
     1
171
     1
175
     1
179
     1
273
     0
  0
ENDSEC
  0
EOF
