  0
SECTION
  2
HEADER
  9
$ACADVER
  1
AC1014
  9
$ACADMAINTVER
 70
     9
  9
$DWGCODEPAGE
  3
ANSI_1252
  9
$INSBASE
 10
0.0
 20
0.0
 30
0.0
  9
$EXTMIN
 10
1.000000000000000E+20
 20
1.000000000000000E+20
 30
1.000000000000000E+20
  9
$EXTMAX
 10
-1.000000000000000E+20
 20
-1.000000000000000E+20
 30
-1.000000000000000E+20
  9
$LIMMIN
 10
0.0
 20
0.0
  9
$LIMMAX
 10
12.0
 20
9.0
  9
$ORTHOMODE
 70
     0
  9
$REGENMODE
 70
     1
  9
$FILLMODE
 70
     1
  9
$QTEXTMODE
 70
     0
  9
$MIRRTEXT
 70
     1
  9
$DRAGMODE
 70
     2
  9
$LTSCALE
 40
1.0
  9
$OSMODE
 70
    37
  9
$ATTMODE
 70
     1
  9
$TEXTSIZE
 40
0.2
  9
$TRACEWID
 40
0.05
  9
$TEXTSTYLE
  7
STANDARD
  9
$CLAYER
  8
0
  9
$CELTYPE
  6
BYLAYER
  9
$CECOLOR
 62
   256
  9
$CELTSCALE
 40
1.0
  9
$DELOBJ
 70
     1
  9
$DISPSILH
 70
     0
  9
$DIMSCALE
 40
1.0
  9
$DIMASZ
 40
0.18
  9
$DIMEXO
 40
0.0625
  9
$DIMDLI
 40
0.38
  9
$DIMRND
 40
0.0
  9
$DIMDLE
 40
0.0
  9
$DIMEXE
 40
0.18
  9
$DIMTP
 40
0.0
  9
$DIMTM
 40
0.0
  9
$DIMTXT
 40
0.18
  9
$DIMCEN
 40
0.09
  9
$DIMTSZ
 40
0.0
  9
$DIMTOL
 70
     0
  9
$DIMLIM
 70
     0
  9
$DIMTIH
 70
     1
  9
$DIMTOH
 70
     1
  9
$DIMSE1
 70
     0
  9
$DIMSE2
 70
     0
  9
$DIMTAD
 70
     0
  9
$DIMZIN
 70
     0
  9
$DIMBLK
  1

  9
$DIMASO
 70
     1
  9
$DIMSHO
 70
     1
  9
$DIMPOST
  1

  9
$DIMAPOST
  1

  9
$DIMALT
 70
     0
  9
$DIMALTD
 70
     2
  9
$DIMALTF
 40
25.4
  9
$DIMLFAC
 40
1.0
  9
$DIMTOFL
 70
     0
  9
$DIMTVP
 40
0.0
  9
$DIMTIX
 70
     0
  9
$DIMSOXD
 70
     0
  9
$DIMSAH
 70
     0
  9
$DIMBLK1
  1

  9
$DIMBLK2
  1

  9
$DIMSTYLE
  2
STANDARD
  9
$DIMCLRD
 70
     0
  9
$DIMCLRE
 70
     0
  9
$DIMCLRT
 70
     0
  9
$DIMTFAC
 40
1.0
  9
$DIMGAP
 40
0.09
  9
$DIMJUST
 70
     0
  9
$DIMSD1
 70
     0
  9
$DIMSD2
 70
     0
  9
$DIMTOLJ
 70
     1
  9
$DIMTZIN
 70
     0
  9
$DIMALTZ
 70
     0
  9
$DIMALTTZ
 70
     0
  9
$DIMFIT
 70
     3
  9
$DIMUPT
 70
     0
  9
$DIMUNIT
 70
     2
  9
$DIMDEC
 70
     4
  9
$DIMTDEC
 70
     4
  9
$DIMALTU
 70
     2
  9
$DIMALTTD
 70
     2
  9
$DIMTXSTY
  7
STANDARD
  9
$DIMAUNIT
 70
     0
  9
$LUNITS
 70
     2
  9
$LUPREC
 70
     4
  9
$SKETCHINC
 40
0.1
  9
$FILLETRAD
 40
0.5
  9
$AUNITS
 70
     0
  9
$AUPREC
 70
     0
  9
$MENU
  1
.
  9
$ELEVATION
 40
0.0
  9
$PELEVATION
 40
0.0
  9
$THICKNESS
 40
0.0
  9
$LIMCHECK
 70
     0
  9
$CHAMFERA
 40
0.0
  9
$CHAMFERB
 40
0.0
  9
$CHAMFERC
 40
0.0
  9
$CHAMFERD
 40
0.0
  9
$SKPOLY
 70
     0
  9
$TDCREATE
 40
2459454.700849097
  9
$TDUPDATE
 40
2459454.70084919
  9
$TDINDWG
 40
0.0000000116
  9
$TDUSRTIMER
 40
0.0000000116
  9
$USRTIMER
 70
     1
  9
$ANGBASE
 50
0.0
  9
$ANGDIR
 70
     0
  9
$PDMODE
 70
     0
  9
$PDSIZE
 40
0.0
  9
$PLINEWID
 40
0.0
  9
$COORDS
 70
     1
  9
$SPLFRAME
 70
     0
  9
$SPLINETYPE
 70
     6
  9
$SPLINESEGS
 70
     8
  9
$ATTDIA
 70
     0
  9
$ATTREQ
 70
     1
  9
$HANDLING
 70
     1
  9
$HANDSEED
  5
1A3
  9
$SURFTAB1
 70
     6
  9
$SURFTAB2
 70
     6
  9
$SURFTYPE
 70
     6
  9
$SURFU
 70
     6
  9
$SURFV
 70
     6
  9
$UCSNAME
  2

  9
$UCSORG
 10
0.0
 20
0.0
 30
0.0
  9
$UCSXDIR
 10
1.0
 20
0.0
 30
0.0
  9
$UCSYDIR
 10
0.0
 20
1.0
 30
0.0
  9
$PUCSNAME
  2

  9
$PUCSORG
 10
0.0
 20
0.0
 30
0.0
  9
$PUCSXDIR
 10
1.0
 20
0.0
 30
0.0
  9
$PUCSYDIR
 10
0.0
 20
1.0
 30
0.0
  9
$USERI1
 70
     0
  9
$USERI2
 70
     0
  9
$USERI3
 70
     0
  9
$USERI4
 70
     0
  9
$USERI5
 70
     0
  9
$USERR1
 40
0.0
  9
$USERR2
 40
0.0
  9
$USERR3
 40
0.0
  9
$USERR4
 40
0.0
  9
$USERR5
 40
0.0
  9
$WORLDVIEW
 70
     1
  9
$SHADEDGE
 70
     3
  9
$SHADEDIF
 70
    70
  9
$TILEMODE
 70
     1
  9
$MAXACTVP
 70
    64
  9
$PINSBASE
 10
0.0
 20
0.0
 30
0.0
  9
$PLIMCHECK
 70
     0
  9
$PEXTMIN
 10
1.000000000000000E+20
 20
1.000000000000000E+20
 30
1.000000000000000E+20
  9
$PEXTMAX
 10
-1.000000000000000E+20
 20
-1.000000000000000E+20
 30
-1.000000000000000E+20
  9
$PLIMMIN
 10
0.0
 20
0.0
  9
$PLIMMAX
 10
12.0
 20
9.0
  9
$UNITMODE
 70
     0
  9
$VISRETAIN
 70
     1
  9
$PLINEGEN
 70
     0
  9
$PSLTSCALE
 70
     1
  9
$TREEDEPTH
 70
  3020
  9
$PICKSTYLE
 70
     1
  9
$CMLSTYLE
  2
STANDARD
  9
$CMLJUST
 70
     0
  9
$CMLSCALE
 40
1.0
  9
$PROXYGRAPHICS
 70
     1
  9
$MEASUREMENT
 70
     1
  0
ENDSEC
  0
SECTION
  2
CLASSES
  0
CLASS
  1
ACDBDICTIONARYWDFLT
  2
AcDbDictionaryWithDefault
  3
ObjectDBX Classes
 90
        0
280
     0
281
     0
  0
CLASS
  1
VISUALSTYLE
  2
AcDbVisualStyle
  3
ObjectDBX Classes
 90
     4095
280
     0
281
     0
  0
CLASS
  1
MATERIAL
  2
AcDbMaterial
  3
ObjectDBX Classes
 90
     1153
280
     0
281
     0
  0
CLASS
  1
SCALE
  2
AcDbScale
  3
ObjectDBX Classes
 90
     1153
280
     0
281
     0
  0
CLASS
  1
TABLESTYLE
  2
AcDbTableStyle
  3
ObjectDBX Classes
 90
     4095
280
     0
281
     0
  0
CLASS
  1
MLEADERSTYLE
  2
AcDbMLeaderStyle
  3
ACDB_MLEADERSTYLE_CLASS
 90
     4095
280
     0
281
     0
  0
CLASS
  1
SUN
  2
AcDbSun
  3
SCENEOE
 90
     1153
280
     0
281
     0
  0
CLASS
  1
DICTIONARYVAR
  2
AcDbDictionaryVar
  3
ObjectDBX Classes
 90
        0
280
     0
281
     0
  0
CLASS
  1
XRECORD
  2
AcDbXrecord
  3
ObjectDBX Classes
 90
        0
280
     0
281
     0
  0
CLASS
  1
LWPOLYLINE
  2
AcDbPolyline
  3
ObjectDBX Classes
 90
        0
280
     0
281
     1
  0
CLASS
  1
HATCH
  2
AcDbHatch
  3
ObjectDBX Classes
 90
        0
280
     0
281
     1
  0
CLASS
  1
ACDBPLACEHOLDER
  2
AcDbPlaceHolder
  3
ObjectDBX Classes
 90
        0
280
     0
281
     0
  0
CLASS
  1
LAYOUT
  2
AcDbLayout
  3
ObjectDBX Classes
 90
        0
280
     0
281
     0
  0
ENDSEC
  0
SECTION
  2
TABLES
  0
TABLE
  2
VPORT
  5
8
102
{ACAD_XDICTIONARY
360
198
102
}
330
0
100
AcDbSymbolTable
 70
     1
  0
VPORT
  5
29
330
8
100
AcDbSymbolTableRecord
100
AcDbViewportTableRecord
  2
*ACTIVE
 70
     0
 10
0.0
 20
0.0
 11
1.0
 21
1.0
 12
0.0
 22
0.0
 13
0.0
 23
0.0
 14
0.5
 24
0.5
 15
0.5
 25
0.5
 16
0.0
 26
0.0
 36
1.0
 17
0.0
 27
0.0
 37
-1000.0
 40
197.8357948474393
 41
2.061191626409018
 42
50.0
 43
313.7274893297667
 44
420.9321680744097
 50
0.0
 51
0.0
 71
     0
 72
   100
 73
     1
 74
     3
 75
     0
 76
     0
 77
     0
 78
     0
  0
ENDTAB
  0
TABLE
  2
LTYPE
  5
5
330
0
100
AcDbSymbolTable
 70
     1
  0
LTYPE
  5
14
330
5
100
AcDbSymbolTableRecord
100
AcDbLinetypeTableRecord
  2
BYBLOCK
 70
     0
  3

 72
    65
 73
     0
 40
0.0
  0
LTYPE
  5
15
330
5
100
AcDbSymbolTableRecord
100
AcDbLinetypeTableRecord
  2
BYLAYER
 70
     0
  3

 72
    65
 73
     0
 40
0.0
  0
LTYPE
  5
16
330
5
100
AcDbSymbolTableRecord
100
AcDbLinetypeTableRecord
  2
CONTINUOUS
 70
     0
  3
Solid line
 72
    65
 73
     0
 40
0.0
  0
ENDTAB
  0
TABLE
  2
LAYER
  5
2
330
0
100
AcDbSymbolTable
 70
     3
  0
LAYER
  5
10
330
2
100
AcDbSymbolTableRecord
100
AcDbLayerTableRecord
  2
0
 70
     0
 62
     7
  6
CONTINUOUS
  0
LAYER
  5
6E
330
2
100
AcDbSymbolTableRecord
100
AcDbLayerTableRecord
  2
PROFILEEDGES
 70
     0
 62
     7
  6
CONTINUOUS
  0
LAYER
  5
6F
330
2
100
AcDbSymbolTableRecord
100
AcDbLayerTableRecord
  2
SECTIONCUTEDGES
 70
     0
 62
     7
  6
CONTINUOUS
  0
ENDTAB
  0
TABLE
  2
STYLE
  5
3
330
0
100
AcDbSymbolTable
 70
     1
  0
STYLE
  5
11
330
3
100
AcDbSymbolTableRecord
100
AcDbTextStyleTableRecord
  2
STANDARD
 70
     0
 40
0.0
 41
1.0
 50
0.0
 71
     0
 42
0.2
  3
txt
  4

  0
ENDTAB
  0
TABLE
  2
VIEW
  5
6
330
0
100
AcDbSymbolTable
 70
     0
  0
ENDTAB
  0
TABLE
  2
UCS
  5
7
330
0
100
AcDbSymbolTable
 70
     0
  0
ENDTAB
  0
TABLE
  2
APPID
  5
9
330
0
100
AcDbSymbolTable
 70
     2
  0
APPID
  5
12
330
9
100
AcDbSymbolTableRecord
100
AcDbRegAppTableRecord
  2
ACAD
 70
     0
  0
APPID
  5
1A2
330
9
100
AcDbSymbolTableRecord
100
AcDbRegAppTableRecord
  2
ACAD_MLEADERVER
 70
     0
  0
ENDTAB
  0
TABLE
  2
DIMSTYLE
  5
A
330
0
100
AcDbSymbolTable
 70
     1
  0
DIMSTYLE
105
27
330
A
100
AcDbSymbolTableRecord
100
AcDbDimStyleTableRecord
  2
STANDARD
 70
     0
  3

  4

  5

  6

  7

 40
1.0
 41
0.18
 42
0.0625
 43
0.38
 44
0.18
 45
0.0
 46
0.0
 47
0.0
 48
0.0
140
0.18
141
0.09
142
0.0
143
25.4
144
1.0
145
0.0
146
1.0
147
0.09
 71
     0
 72
     0
 73
     1
 74
     1
 75
     0
 76
     0
 77
     0
 78
     0
170
     0
171
     2
172
     0
173
     0
174
     0
175
     0
176
     0
177
     0
178
     0
270
     2
271
     4
272
     4
273
     2
274
     2
340
11
275
     0
280
     0
281
     0
282
     0
283
     1
284
     0
285
     0
286
     0
287
     3
288
     0
  0
ENDTAB
  0
TABLE
  2
BLOCK_RECORD
  5
1
330
0
100
AcDbSymbolTable
 70
     0
  0
BLOCK_RECORD
  5
1F
330
1
100
AcDbSymbolTableRecord
100
AcDbBlockTableRecord
  2
*MODEL_SPACE
  0
BLOCK_RECORD
  5
1B
330
1
100
AcDbSymbolTableRecord
100
AcDbBlockTableRecord
  2
*PAPER_SPACE
  0
ENDTAB
  0
ENDSEC
  0
SECTION
  2
BLOCKS
  0
BLOCK
  5
20
330
1F
100
AcDbEntity
  8
0
100
AcDbBlockBegin
  2
*MODEL_SPACE
 70
     0
 10
0.0
 20
0.0
 30
0.0
  3
*MODEL_SPACE
  1

  0
ENDBLK
  5
21
330
1F
100
AcDbEntity
  8
0
100
AcDbBlockEnd
  0
BLOCK
  5
1C
330
1B
100
AcDbEntity
 67
     1
  8
0
100
AcDbBlockBegin
  2
*PAPER_SPACE
 70
     0
 10
0.0
 20
0.0
 30
0.0
  3
*PAPER_SPACE
  1

  0
ENDBLK
  5
1D
330
1B
100
AcDbEntity
 67
     1
  8
0
100
AcDbBlockEnd
  0
ENDSEC
  0
SECTION
  2
ENTITIES
  0
LINE
  5
70
330
1F
100
AcDbEntity
  8
0
100
AcDbLine
 10
39.83126843948436
 20
31.03593541391179
 30
0.0
 11
39.99365059984147
 21
31.10345605894469
 31
0.0
  0
LINE
  5
71
330
1F
100
AcDbEntity
  8
0
100
AcDbLine
 10
39.66364318911189
 20
30.9828835302193
 30
0.0
 11
39.83126843948436
 21
31.03593541391179
 31
0.0
  0
LINE
  5
72
330
1F
100
AcDbEntity
  8
0
100
AcDbLine
 10
39.49204727049631
 20
30.94469706727847
 30
0.0
 11
39.66364318911189
 21
30.9828835302193
 31
0.0
  0
LINE
  5
73
330
1F
100
AcDbEntity
  8
0
100
AcDbLine
 10
39.31779039810849
 20
30.9216670735674
 30
0.0
 11
39.49204727049631
 21
30.94469706727847
 31
0.0
  0
LINE
  5
74
330
1F
100
AcDbEntity
  8
0
100
AcDbLine
 10
39.14219585275019
 20
30.91396981618455
 30
0.0
 11
39.31779039810849
 21
30.9216670735674
 31
0.0
  0
LINE
  5
75
330
1F
100
AcDbEntity
  8
0
100
AcDbLine
 10
38.96660378186343
 20
30.9216670735674
 30
0.0
 11
39.14219585275019
 21
30.91396981618455
 31
0.0
  0
LINE
  5
76
330
1F
100
AcDbEntity
  8
0
100
AcDbLine
 10
38.79234421228126
 20
30.94469706727847
 30
0.0
 11
38.96660378186343
 21
30.9216670735674
 31
0.0
  0
LINE
  5
77
330
1F
100
AcDbEntity
  8
0
100
AcDbLine
 10
38.62075084629937
 20
30.9828835302193
 30
0.0
 11
38.79234421228126
 21
30.94469706727847
 31
0.0
  0
LINE
  5
78
330
1F
100
AcDbEntity
  8
0
100
AcDbLine
 10
38.45312487385323
 20
31.03593541391179
 30
0.0
 11
38.62075084629937
 21
30.9828835302193
 31
0.0
  0
LINE
  5
79
330
1F
100
AcDbEntity
  8
0
100
AcDbLine
 10
38.29074103768513
 20
31.10345605894469
 30
0.0
 11
38.45312487385323
 21
31.03593541391179
 31
0.0
  0
LINE
  5
7A
330
1F
100
AcDbEntity
  8
0
100
AcDbLine
 10
38.13483902314209
 20
31.18492517049195
 30
0.0
 11
38.29074103768513
 21
31.10345605894469
 31
0.0
  0
LINE
  5
7B
330
1F
100
AcDbEntity
  8
0
100
AcDbLine
 10
37.98660517112494
 20
31.2797167963109
 30
0.0
 11
38.13483902314209
 21
31.18492517049195
 31
0.0
  0
LINE
  5
7C
330
1F
100
AcDbEntity
  8
0
100
AcDbLine
 10
37.84716349835364
 20
31.38712555030996
 30
0.0
 11
37.98660517112494
 21
31.2797167963109
 31
0.0
  0
LINE
  5
7D
330
1F
100
AcDbEntity
  8
0
100
AcDbLine
 10
-52.19981510130025
 20
42.32599514282903
 30
0.0
 11
-52.40124613765371
 21
42.03722063845741
 31
0.0
  0
LINE
  5
7E
330
1F
100
AcDbEntity
  8
0
100
AcDbLine
 10
-51.95148964505133
 20
42.57526959260552
 30
0.0
 11
-52.19981510130025
 21
42.32599514282903
 31
0.0
  0
LINE
  5
7F
330
1F
100
AcDbEntity
  8
0
100
AcDbLine
 10
-51.66381393369236
 20
42.77747876154077
 30
0.0
 11
-51.81205237798278
 21
42.68267835853391
 31
0.0
  0
LINE
  5
80
330
1F
100
AcDbEntity
  8
0
100
AcDbLine
 10
-51.81205237798278
 20
42.68267835853391
 30
0.0
 11
-51.95148964505133
 21
42.57526959260552
 31
0.0
  0
LINE
  5
81
330
1F
100
AcDbEntity
  8
0
100
AcDbLine
 10
-51.0063020180776
 20
43.01769799940537
 30
0.0
 11
-51.17790446714026
 21
42.97951159008767
 31
0.0
  0
LINE
  5
82
330
1F
100
AcDbEntity
  8
0
100
AcDbLine
 10
-51.17790446714026
 20
42.97951159008767
 30
0.0
 11
-51.34553642971584
 21
42.92645960032374
 31
0.0
  0
LINE
  5
83
330
1F
100
AcDbEntity
  8
0
100
AcDbLine
 10
-51.34553642971584
 20
42.92645960032374
 30
0.0
 11
-51.50791650503878
 21
42.85893909194975
 31
0.0
  0
LINE
  5
84
330
1F
100
AcDbEntity
  8
0
100
AcDbLine
 10
-51.50791650503878
 20
42.85893909194975
 30
0.0
 11
-51.66381393369236
 21
42.77747876154077
 31
0.0
  0
LINE
  5
85
330
1F
100
AcDbEntity
  8
0
100
AcDbLine
 10
-50.13500993063658
 20
42.97951159008767
 30
0.0
 11
-50.30660335154771
 21
43.01769799940537
 31
0.0
  0
LINE
  5
86
330
1F
100
AcDbEntity
  8
0
100
AcDbLine
 10
-50.30660335154771
 20
43.01769799940537
 30
0.0
 11
-50.48085830857922
 21
43.04072802423296
 31
0.0
  0
LINE
  5
87
330
1F
100
AcDbEntity
  8
0
100
AcDbLine
 10
-50.48085830857922
 20
43.04072802423296
 30
0.0
 11
-50.65645693241925
 21
43.04842521597803
 31
0.0
  0
LINE
  5
88
330
1F
100
AcDbEntity
  8
0
100
AcDbLine
 10
-50.65645693241925
 20
43.04842521597803
 30
0.0
 11
-50.83205590211231
 21
43.04072802423296
 31
0.0
  0
LINE
  5
89
330
1F
100
AcDbEntity
  8
0
100
AcDbLine
 10
-50.83205590211231
 20
43.04072802423296
 30
0.0
 11
-51.0063020180776
 21
43.01769799940537
 31
0.0
  0
LINE
  5
8A
330
1F
100
AcDbEntity
  8
0
100
AcDbLine
 10
39.83126859279598
 20
34.83682266032143
 30
0.0
 11
39.66364316320552
 21
34.88987461196569
 31
0.0
  0
LINE
  5
8B
330
1F
100
AcDbEntity
  8
0
100
AcDbLine
 10
39.9936505012743
 20
34.76930204172755
 30
0.0
 11
39.83126859279598
 21
34.83682266032143
 31
0.0
  0
LINE
  5
8C
330
1F
100
AcDbEntity
  8
0
100
AcDbLine
 10
40.14955261928828
 20
34.68784177528636
 30
0.0
 11
39.9936505012743
 21
34.76930204172755
 31
0.0
  0
LINE
  5
8D
330
1F
100
AcDbEntity
  8
0
100
AcDbLine
 10
40.2977885638589
 20
34.59304130610121
 30
0.0
 11
40.14955261928828
 21
34.68784177528636
 31
0.0
  0
LINE
  5
8E
330
1F
100
AcDbEntity
  8
0
100
AcDbLine
 10
40.43723023373089
 20
34.48563254909352
 30
0.0
 11
40.2977885638589
 21
34.59304130610121
 31
0.0
  0
LINE
  5
8F
330
1F
100
AcDbEntity
  8
0
100
AcDbLine
 10
40.68555604598873
 20
34.23635819981394
 30
0.0
 11
40.43723023373089
 21
34.48563254909352
 31
0.0
  0
LINE
  5
90
330
1F
100
AcDbEntity
  8
0
100
AcDbLine
 10
40.88698925559878
 20
33.94758367894425
 30
0.0
 11
40.68555604598873
 21
34.23635819981394
 31
0.0
  0
LINE
  5
91
330
1F
100
AcDbEntity
  8
0
100
AcDbLine
 10
41.03540785483897
 20
33.62808191344875
 30
0.0
 11
40.88698925559878
 21
33.94758367894425
 31
0.0
  0
LINE
  5
92
330
1F
100
AcDbEntity
  8
0
100
AcDbLine
 10
41.12630086704426
 20
33.2875691436451
 30
0.0
 11
41.03540785483897
 21
33.62808191344875
 31
0.0
  0
LINE
  5
93
330
1F
100
AcDbEntity
  8
0
100
AcDbLine
 10
-74.8330175012668
 20
-45.64866749712322
 30
0.0
 11
-74.8330176698071
 21
45.6486657679213
 31
0.0
  0
LINE
  5
94
330
1F
100
AcDbEntity
  8
0
100
AcDbLine
 10
-74.7805454952241
 20
-46.25070392995901
 30
0.0
 11
-74.8330175012668
 21
-45.64866749712322
 31
0.0
  0
LINE
  5
95
330
1F
100
AcDbEntity
  8
0
100
AcDbLine
 10
-74.62472697493745
 20
-46.83444289231673
 30
0.0
 11
-74.7805454952241
 21
-46.25070392995901
 31
0.0
  0
LINE
  5
96
330
1F
100
AcDbEntity
  8
0
100
AcDbLine
 10
-74.37030535318365
 20
-47.38215606805596
 30
0.0
 11
-74.62472697493745
 21
-46.83444289231673
 31
0.0
  0
LINE
  5
97
330
1F
100
AcDbEntity
  8
0
100
AcDbLine
 10
-74.02497472932275
 20
-47.87719963422283
 30
0.0
 11
-74.37030535318365
 21
-47.38215606805596
 31
0.0
  0
LINE
  5
98
330
1F
100
AcDbEntity
  8
0
100
AcDbLine
 10
-73.59927630837132
 20
-48.30453196835295
 30
0.0
 11
-74.02497472932275
 21
-47.87719963422283
 31
0.0
  0
LINE
  5
99
330
1F
100
AcDbEntity
  8
0
100
AcDbLine
 10
-73.36024339259235
 20
-48.48865580262842
 30
0.0
 11
-73.59927630837132
 21
-48.30453196835295
 31
0.0
  0
LINE
  5
9A
330
1F
100
AcDbEntity
  8
0
100
AcDbLine
 10
-73.10612040181411
 20
-48.65116753644686
 30
0.0
 11
-73.36024339259235
 21
-48.48865580262842
 31
0.0
  0
LINE
  5
9B
330
1F
100
AcDbEntity
  8
0
100
AcDbLine
 10
-72.83885754521997
 20
-48.79081896217329
 30
0.0
 11
-73.10612040181411
 21
-48.65116753644686
 31
0.0
  0
LINE
  5
9C
330
1F
100
AcDbEntity
  8
0
100
AcDbLine
 10
-72.560492254146
 20
-48.90656788274368
 30
0.0
 11
-72.83885754521997
 21
-48.79081896217329
 31
0.0
  0
LINE
  5
9D
330
1F
100
AcDbEntity
  8
0
100
AcDbLine
 10
-72.2731328323859
 20
-48.99751910955128
 30
0.0
 11
-72.560492254146
 21
-48.90656788274368
 31
0.0
  0
LINE
  5
9E
330
1F
100
AcDbEntity
  8
0
100
AcDbLine
 10
-71.97897531249589
 20
-49.06298399604051
 30
0.0
 11
-72.2731328323859
 21
-48.99751910955128
 31
0.0
  0
LINE
  5
9F
330
1F
100
AcDbEntity
  8
0
100
AcDbLine
 10
-71.68024081572365
 20
-49.102461979303
 30
0.0
 11
-71.97897531249589
 21
-49.06298399604051
 31
0.0
  0
LINE
  5
A0
330
1F
100
AcDbEntity
  8
0
100
AcDbLine
 10
-71.37922280950848
 20
-49.11565274313508
 30
0.0
 11
-71.68024081572365
 21
-49.102461979303
 31
0.0
  0
LINE
  5
A1
330
1F
100
AcDbEntity
  8
0
100
AcDbLine
 10
71.37761092104955
 20
-49.11565274313508
 30
0.0
 11
-71.37922280950848
 21
-49.11565274313508
 31
0.0
  0
LINE
  5
A2
330
1F
100
AcDbEntity
  8
0
100
AcDbLine
 10
71.67862892725837
 20
-49.102461979303
 30
0.0
 11
71.37761092104955
 21
-49.11565274313508
 31
0.0
  0
LINE
  5
A3
330
1F
100
AcDbEntity
  8
0
100
AcDbLine
 10
71.97735683643016
 20
-49.06298399604051
 30
0.0
 11
71.67862892725837
 21
-49.102461979303
 31
0.0
  0
LINE
  5
A4
330
1F
100
AcDbEntity
  8
0
100
AcDbLine
 10
72.27151847357123
 20
-48.99751910955128
 30
0.0
 11
71.97735683643016
 21
-49.06298399604051
 31
0.0
  0
LINE
  5
A5
330
1F
100
AcDbEntity
  8
0
100
AcDbLine
 10
72.55887844429792
 20
-48.90656788274368
 30
0.0
 11
72.27151847357123
 21
-48.99751910955128
 31
0.0
  0
LINE
  5
A6
330
1F
100
AcDbEntity
  8
0
100
AcDbLine
 10
72.83724716640629
 20
-48.79081896217329
 30
0.0
 11
72.55887844429792
 21
-48.90656788274368
 31
0.0
  0
LINE
  5
A7
330
1F
100
AcDbEntity
  8
0
100
AcDbLine
 10
73.10450768989696
 20
-48.65116753644686
 30
0.0
 11
72.83724716640629
 21
-48.79081896217329
 31
0.0
  0
LINE
  5
A8
330
1F
100
AcDbEntity
  8
0
100
AcDbLine
 10
73.3586253282557
 20
-48.48865580262842
 30
0.0
 11
73.10450768989696
 21
-48.65116753644686
 31
0.0
  0
LINE
  5
A9
330
1F
100
AcDbEntity
  8
0
100
AcDbLine
 10
73.59766785093623
 20
-48.30453196835295
 30
0.0
 11
73.3586253282557
 21
-48.48865580262842
 31
0.0
  0
LINE
  5
AA
330
1F
100
AcDbEntity
  8
0
100
AcDbLine
 10
74.02337107534784
 20
-47.87719963422283
 30
0.0
 11
73.59766785093623
 21
-48.30453196835295
 31
0.0
  0
LINE
  5
AB
330
1F
100
AcDbEntity
  8
0
100
AcDbLine
 10
74.3686838578112
 20
-47.38215606805596
 30
0.0
 11
74.02337107534784
 21
-47.87719963422283
 31
0.0
  0
LINE
  5
AC
330
1F
100
AcDbEntity
  8
0
100
AcDbLine
 10
74.62311675051717
 20
-46.83444289231673
 30
0.0
 11
74.3686838578112
 21
-47.38215606805596
 31
0.0
  0
LINE
  5
AD
330
1F
100
AcDbEntity
  8
0
100
AcDbLine
 10
74.77893518502663
 20
-46.25070392995901
 30
0.0
 11
74.62311675051717
 21
-46.83444289231673
 31
0.0
  0
LINE
  5
AE
330
1F
100
AcDbEntity
  8
0
100
AcDbLine
 10
74.83140396590248
 20
-45.64866749712322
 30
0.0
 11
74.77893518502663
 21
-46.25070392995901
 31
0.0
  0
LINE
  5
AF
330
1F
100
AcDbEntity
  8
0
100
AcDbLine
 10
-71.91951091505757
 20
49.07296987681546
 30
0.0
 11
-71.37922320564275
 21
49.1156530157129
 31
0.0
  0
LINE
  5
B0
330
1F
100
AcDbEntity
  8
0
100
AcDbLine
 10
-72.44650066912358
 20
48.94596978075791
 30
0.0
 11
-71.91951091505757
 21
49.07296987681546
 31
0.0
  0
LINE
  5
B1
330
1F
100
AcDbEntity
  8
0
100
AcDbLine
 10
-72.94721046903426
 20
48.73777392848847
 30
0.0
 11
-72.44650066912358
 21
48.94596978075791
 31
0.0
  0
LINE
  5
B2
330
1F
100
AcDbEntity
  8
0
100
AcDbLine
 10
-73.40930784905804
 20
48.45352248866935
 30
0.0
 11
-72.94721046903426
 21
48.73777392848847
 31
0.0
  0
LINE
  5
B3
330
1F
100
AcDbEntity
  8
0
100
AcDbLine
 10
-73.82142709851547
 20
48.10019855705766
 30
0.0
 11
-73.40930784905804
 21
48.45352248866935
 31
0.0
  0
LINE
  5
B4
330
1F
100
AcDbEntity
  8
0
100
AcDbLine
 10
-74.17339788251142
 20
47.68651358687065
 30
0.0
 11
-73.82142709851547
 21
48.10019855705766
 31
0.0
  0
LINE
  5
B5
330
1F
100
AcDbEntity
  8
0
100
AcDbLine
 10
-74.456576693027
 20
47.22264223157419
 30
0.0
 11
-74.17339788251142
 21
47.68651358687065
 31
0.0
  0
LINE
  5
B6
330
1F
100
AcDbEntity
  8
0
100
AcDbLine
 10
-74.66397150573718
 20
46.72002886013166
 30
0.0
 11
-74.456576693027
 21
47.22264223157419
 31
0.0
  0
LINE
  5
B7
330
1F
100
AcDbEntity
  8
0
100
AcDbLine
 10
-74.7904880643935
 20
46.19102614088929
 30
0.0
 11
-74.66397150573718
 21
46.72002886013166
 31
0.0
  0
LINE
  5
B8
330
1F
100
AcDbEntity
  8
0
100
AcDbLine
 10
-74.8330176698071
 20
45.6486657679213
 30
0.0
 11
-74.7904880643935
 21
46.19102614088929
 31
0.0
  0
LINE
  5
B9
330
1F
100
AcDbEntity
  8
0
100
AcDbLine
 10
-51.17790421978792
 20
-36.76119556023426
 30
0.0
 11
-51.34553694456392
 21
-36.81424482181663
 31
0.0
  0
LINE
  5
BA
330
1F
100
AcDbEntity
  8
0
100
AcDbLine
 10
-51.00630177155465
 20
-36.72300895850557
 30
0.0
 11
-51.17790421978792
 21
-36.76119556023426
 31
0.0
  0
LINE
  5
BB
330
1F
100
AcDbEntity
  8
0
100
AcDbLine
 10
-50.83205570294488
 20
-36.69997573145591
 30
0.0
 11
-51.00630177155465
 21
-36.72300895850557
 31
0.0
  0
LINE
  5
BC
330
1F
100
AcDbEntity
  8
0
100
AcDbLine
 10
-50.65645744035785
 20
-36.69227916197716
 30
0.0
 11
-50.83205570294488
 21
-36.69997573145591
 31
0.0
  0
LINE
  5
BD
330
1F
100
AcDbEntity
  8
0
100
AcDbLine
 10
-50.48085811078784
 20
-36.69997573145591
 30
0.0
 11
-50.65645744035785
 21
-36.69227916197716
 31
0.0
  0
LINE
  5
BE
330
1F
100
AcDbEntity
  8
0
100
AcDbLine
 10
-50.30660310840653
 20
-36.72300895850557
 30
0.0
 11
-50.48085811078784
 21
-36.69997573145591
 31
0.0
  0
LINE
  5
BF
330
1F
100
AcDbEntity
  8
0
100
AcDbLine
 10
-50.13500968832474
 20
-36.76119556023426
 30
0.0
 11
-50.30660310840653
 21
-36.72300895850557
 31
0.0
  0
LINE
  5
C0
330
1F
100
AcDbEntity
  8
0
100
AcDbLine
 10
-49.9673779907365
 20
-36.81424482181663
 30
0.0
 11
-50.13500968832474
 21
-36.76119556023426
 31
0.0
  0
LINE
  5
C1
330
1F
100
AcDbEntity
  8
0
100
AcDbLine
 10
-49.80500672730575
 20
-36.88176609856052
 30
0.0
 11
-49.9673779907365
 21
-36.81424482181663
 31
0.0
  0
LINE
  5
C2
330
1F
100
AcDbEntity
  8
0
100
AcDbLine
 10
-49.64910066853776
 20
-36.96322891423333
 30
0.0
 11
-49.80500672730575
 21
-36.88176609856052
 31
0.0
  0
LINE
  5
C3
330
1F
100
AcDbEntity
  8
0
100
AcDbLine
 10
-49.50086208191564
 20
-37.05802902755256
 30
0.0
 11
-49.64910066853776
 21
-36.96322891423333
 31
0.0
  0
LINE
  5
C4
330
1F
100
AcDbEntity
  8
0
100
AcDbLine
 10
-49.36142475642401
 20
-37.16543446364461
 30
0.0
 11
-49.50086208191564
 21
-37.05802902755256
 31
0.0
  0
LINE
  5
C5
330
1F
100
AcDbEntity
  8
0
100
AcDbLine
 10
-49.1130904941915
 20
-37.41471363593377
 30
0.0
 11
-49.36142475642401
 21
-37.16543446364461
 31
0.0
  0
LINE
  5
C6
330
1F
100
AcDbEntity
  8
0
100
AcDbLine
 10
-48.91166811484115
 20
-37.70348676487495
 30
0.0
 11
-49.1130904941915
 21
-37.41471363593377
 31
0.0
  0
LINE
  5
C7
330
1F
100
AcDbEntity
  8
0
100
AcDbLine
 10
-48.76324529216297
 20
-38.02298300963397
 30
0.0
 11
-48.91166811484115
 21
-37.70348676487495
 31
0.0
  0
LINE
  5
C8
330
1F
100
AcDbEntity
  8
0
100
AcDbLine
 10
-48.67235423951074
 20
-38.36350581018156
 30
0.0
 11
-48.76324529216297
 21
-38.02298300963397
 31
0.0
  0
LINE
  5
C9
330
1F
100
AcDbEntity
  8
0
100
AcDbLine
 10
-48.64173488614843
 20
-38.71468678385374
 30
0.0
 11
-48.67235423951074
 21
-38.36350581018156
 31
0.0
  0
LINE
  5
CA
330
1F
100
AcDbEntity
  8
0
100
AcDbLine
 10
-48.67235431368278
 20
-39.06587841821889
 30
0.0
 11
-48.64173488614843
 21
-38.71468678385374
 31
0.0
  0
LINE
  5
CB
330
1F
100
AcDbEntity
  8
0
100
AcDbLine
 10
-48.76324538859913
 20
-39.40639210271215
 30
0.0
 11
-48.67235431368278
 21
-39.06587841821889
 31
0.0
  0
LINE
  5
CC
330
1F
100
AcDbEntity
  8
0
100
AcDbLine
 10
-48.91166804706232
 20
-39.72589591831834
 30
0.0
 11
-48.76324538859913
 21
-39.40639210271215
 31
0.0
  0
LINE
  5
CD
330
1F
100
AcDbEntity
  8
0
100
AcDbLine
 10
-49.11309029397682
 20
-40.01467058663202
 30
0.0
 11
-48.91166804706232
 21
-39.72589591831834
 31
0.0
  0
LINE
  5
CE
330
1F
100
AcDbEntity
  8
0
100
AcDbLine
 10
-49.36142449873638
 20
-40.26394829250923
 30
0.0
 11
-49.11309029397682
 21
-40.01467058663202
 31
0.0
  0
LINE
  5
CF
330
1F
100
AcDbEntity
  8
0
100
AcDbLine
 10
-49.50086214980672
 20
-40.37135474125932
 30
0.0
 11
-49.36142449873638
 21
-40.26394829250923
 31
0.0
  0
LINE
  5
D0
330
1F
100
AcDbEntity
  8
0
100
AcDbLine
 10
-49.64910071826528
 20
-40.46614611885196
 30
0.0
 11
-49.50086214980672
 21
-40.37135474125932
 31
0.0
  0
LINE
  5
D1
330
1F
100
AcDbEntity
  8
0
100
AcDbLine
 10
-49.80500678169336
 20
-40.54761712900822
 30
0.0
 11
-49.64910071826528
 21
-40.46614611885196
 31
0.0
  0
LINE
  5
D2
330
1F
100
AcDbEntity
  8
0
100
AcDbLine
 10
-49.96737781365144
 20
-40.61513074375183
 30
0.0
 11
-49.80500678169336
 21
-40.54761712900822
 31
0.0
  0
LINE
  5
D3
330
1F
100
AcDbEntity
  8
0
100
AcDbLine
 10
-50.13500970577867
 20
-40.66818774566005
 30
0.0
 11
-49.96737781365144
 21
-40.61513074375183
 31
0.0
  0
LINE
  5
D4
330
1F
100
AcDbEntity
  8
0
100
AcDbLine
 10
-50.30660336125643
 20
-40.7063748976918
 30
0.0
 11
-50.13500970577867
 21
-40.66818774566005
 31
0.0
  0
LINE
  5
D5
330
1F
100
AcDbEntity
  8
0
100
AcDbLine
 10
-50.48085822241495
 20
-40.72940757821343
 30
0.0
 11
-50.30660336125643
 21
-40.7063748976918
 31
0.0
  0
LINE
  5
D6
330
1F
100
AcDbEntity
  8
0
100
AcDbLine
 10
-50.65645730769
 20
-40.73709694600247
 30
0.0
 11
-50.48085822241495
 21
-40.72940757821343
 31
0.0
  0
LINE
  5
D7
330
1F
100
AcDbEntity
  8
0
100
AcDbLine
 10
-50.83205581534859
 20
-40.72940757821343
 30
0.0
 11
-50.65645730769
 21
-40.73709694600247
 31
0.0
  0
LINE
  5
D8
330
1F
100
AcDbEntity
  8
0
100
AcDbLine
 10
-51.00630202792136
 20
-40.7063748976918
 30
0.0
 11
-50.83205581534859
 21
-40.72940757821343
 31
0.0
  0
LINE
  5
D9
330
1F
100
AcDbEntity
  8
0
100
AcDbLine
 10
-51.17790423760491
 20
-40.66818774566005
 30
0.0
 11
-51.00630202792136
 21
-40.7063748976918
 31
0.0
  0
LINE
  5
DA
330
1F
100
AcDbEntity
  8
0
100
AcDbLine
 10
-51.34553676259465
 20
-40.61513074375183
 30
0.0
 11
-51.17790423760491
 21
-40.66818774566005
 31
0.0
  0
LINE
  5
DB
330
1F
100
AcDbEntity
  8
0
100
AcDbLine
 10
-51.50791634375984
 20
-40.54761712900822
 30
0.0
 11
-51.34553676259465
 21
-40.61513074375183
 31
0.0
  0
LINE
  5
DC
330
1F
100
AcDbEntity
  8
0
100
AcDbLine
 10
-51.6638140959699
 20
-40.46614611885196
 30
0.0
 11
-51.50791634375984
 21
-40.54761712900822
 31
0.0
  0
LINE
  5
DD
330
1F
100
AcDbEntity
  8
0
100
AcDbLine
 10
-51.81205219862639
 20
-40.37135474125932
 30
0.0
 11
-51.6638140959699
 21
-40.46614611885196
 31
0.0
  0
LINE
  5
DE
330
1F
100
AcDbEntity
  8
0
100
AcDbLine
 10
-51.95148917028892
 20
-40.26394829250923
 30
0.0
 11
-51.81205219862639
 21
-40.37135474125932
 31
0.0
  0
LINE
  5
DF
330
1F
100
AcDbEntity
  8
0
100
AcDbLine
 10
-52.19981534822969
 20
-40.01467058663202
 30
0.0
 11
-51.95148917028892
 21
-40.26394829250923
 31
0.0
  0
LINE
  5
E0
330
1F
100
AcDbEntity
  8
0
100
AcDbLine
 10
-52.40124617714905
 20
-39.72589591831834
 30
0.0
 11
-52.19981534822969
 21
-40.01467058663202
 31
0.0
  0
LINE
  5
E1
330
1F
100
AcDbEntity
  8
0
100
AcDbLine
 10
-52.54966033069213
 20
-39.40639210271215
 30
0.0
 11
-52.40124617714905
 21
-39.72589591831834
 31
0.0
  0
LINE
  5
E2
330
1F
100
AcDbEntity
  8
0
100
AcDbLine
 10
-52.64056039567897
 20
-39.06587841821889
 30
0.0
 11
-52.54966033069213
 21
-39.40639210271215
 31
0.0
  0
LINE
  5
E3
330
1F
100
AcDbEntity
  8
0
100
AcDbLine
 10
-52.67117039520452
 20
-38.71468678385374
 30
0.0
 11
-52.64056039567897
 21
-39.06587841821889
 31
0.0
  0
LINE
  5
E4
330
1F
100
AcDbEntity
  8
0
100
AcDbLine
 10
-52.64056031545977
 20
-38.36350581018156
 30
0.0
 11
-52.67117039520452
 21
-38.71468678385374
 31
0.0
  0
LINE
  5
E5
330
1F
100
AcDbEntity
  8
0
100
AcDbLine
 10
-52.5496602267678
 20
-38.02298300963397
 30
0.0
 11
-52.64056031545977
 21
-38.36350581018156
 31
0.0
  0
LINE
  5
E6
330
1F
100
AcDbEntity
  8
0
100
AcDbLine
 10
-52.40124624976352
 20
-37.70348676487495
 30
0.0
 11
-52.5496602267678
 21
-38.02298300963397
 31
0.0
  0
LINE
  5
E7
330
1F
100
AcDbEntity
  8
0
100
AcDbLine
 10
-52.19981556102775
 20
-37.41471363593377
 30
0.0
 11
-52.40124624976352
 21
-37.70348676487495
 31
0.0
  0
LINE
  5
E8
330
1F
100
AcDbEntity
  8
0
100
AcDbLine
 10
-51.95148944149779
 20
-37.16543446364461
 30
0.0
 11
-52.19981556102775
 21
-37.41471363593377
 31
0.0
  0
LINE
  5
E9
330
1F
100
AcDbEntity
  8
0
100
AcDbLine
 10
-51.81205212756548
 20
-37.05802902755256
 30
0.0
 11
-51.95148944149779
 21
-37.16543446364461
 31
0.0
  0
LINE
  5
EA
330
1F
100
AcDbEntity
  8
0
100
AcDbLine
 10
-51.66381404422448
 20
-36.96322891423333
 30
0.0
 11
-51.81205212756548
 21
-37.05802902755256
 31
0.0
  0
LINE
  5
EB
330
1F
100
AcDbEntity
  8
0
100
AcDbLine
 10
-51.50791628751263
 20
-36.88176609856052
 30
0.0
 11
-51.66381404422448
 21
-36.96322891423333
 31
0.0
  0
LINE
  5
EC
330
1F
100
AcDbEntity
  8
0
100
AcDbLine
 10
-51.34553694456392
 20
-36.81424482181663
 30
0.0
 11
-51.50791628751263
 21
-36.88176609856052
 31
0.0
  0
LINE
  5
ED
330
1F
100
AcDbEntity
  8
0
100
AcDbLine
 10
37.98660518650033
 20
-40.37135474125932
 30
0.0
 11
38.13483931029363
 21
-40.46614611885196
 31
0.0
  0
LINE
  5
EE
330
1F
100
AcDbEntity
  8
0
100
AcDbLine
 10
37.84716322091839
 20
-40.26394829250923
 30
0.0
 11
37.98660518650033
 21
-40.37135474125932
 31
0.0
  0
LINE
  5
EF
330
1F
100
AcDbEntity
  8
0
100
AcDbLine
 10
37.59883771362019
 20
-40.01467058663202
 30
0.0
 11
37.84716322091839
 21
-40.26394829250923
 31
0.0
  0
LINE
  5
F0
330
1F
100
AcDbEntity
  8
0
100
AcDbLine
 10
37.39740231442055
 20
-39.72589591831834
 30
0.0
 11
37.59883771362019
 21
-40.01467058663202
 31
0.0
  0
LINE
  5
F1
330
1F
100
AcDbEntity
  8
0
100
AcDbLine
 10
37.24898401602855
 20
-39.40639210271215
 30
0.0
 11
37.39740231442055
 21
-39.72589591831834
 31
0.0
  0
LINE
  5
F2
330
1F
100
AcDbEntity
  8
0
100
AcDbLine
 10
37.15809291763006
 20
-39.06587841821889
 30
0.0
 11
37.24898401602855
 21
-39.40639210271215
 31
0.0
  0
LINE
  5
F3
330
1F
100
AcDbEntity
  8
0
100
AcDbLine
 10
37.12748234680294
 20
-38.71468678385374
 30
0.0
 11
37.15809291763006
 21
-39.06587841821889
 31
0.0
  0
LINE
  5
F4
330
1F
100
AcDbEntity
  8
0
100
AcDbLine
 10
37.15809286100465
 20
-38.36350581018156
 30
0.0
 11
37.12748234680294
 21
-38.71468678385374
 31
0.0
  0
LINE
  5
F5
330
1F
100
AcDbEntity
  8
0
100
AcDbLine
 10
37.24898394236345
 20
-38.02298300963397
 30
0.0
 11
37.15809286100465
 21
-38.36350581018156
 31
0.0
  0
LINE
  5
F6
330
1F
100
AcDbEntity
  8
0
100
AcDbLine
 10
37.3974023662436
 20
-37.70348676487495
 30
0.0
 11
37.24898394236345
 21
-38.02298300963397
 31
0.0
  0
LINE
  5
F7
330
1F
100
AcDbEntity
  8
0
100
AcDbLine
 10
37.59883786689581
 20
-37.41471363593377
 30
0.0
 11
37.3974023662436
 21
-37.70348676487495
 31
0.0
  0
LINE
  5
F8
330
1F
100
AcDbEntity
  8
0
100
AcDbLine
 10
37.84716341849668
 20
-37.16543446364461
 30
0.0
 11
37.59883786689581
 21
-37.41471363593377
 31
0.0
  0
LINE
  5
F9
330
1F
100
AcDbEntity
  8
0
100
AcDbLine
 10
37.9866051344012
 20
-37.05802902755256
 30
0.0
 11
37.84716341849668
 21
-37.16543446364461
 31
0.0
  0
LINE
  5
FA
330
1F
100
AcDbEntity
  8
0
100
AcDbLine
 10
38.13483927209855
 20
-36.96322891423333
 30
0.0
 11
37.9866051344012
 21
-37.05802902755256
 31
0.0
  0
LINE
  5
FB
330
1F
100
AcDbEntity
  8
0
100
AcDbLine
 10
38.29074099385095
 20
-36.88176609856052
 30
0.0
 11
38.13483927209855
 21
-36.96322891423333
 31
0.0
  0
LINE
  5
FC
330
1F
100
AcDbEntity
  8
0
100
AcDbLine
 10
38.45312535245903
 20
-36.81424482181663
 30
0.0
 11
38.29074099385095
 21
-36.88176609856052
 31
0.0
  0
LINE
  5
FD
330
1F
100
AcDbEntity
  8
0
100
AcDbLine
 10
38.62075057919767
 20
-36.76119556023426
 30
0.0
 11
38.45312535245903
 21
-36.81424482181663
 31
0.0
  0
LINE
  5
FE
330
1F
100
AcDbEntity
  8
0
100
AcDbLine
 10
38.79234402708951
 20
-36.72300895850557
 30
0.0
 11
38.62075057919767
 21
-36.76119556023426
 31
0.0
  0
LINE
  5
FF
330
1F
100
AcDbEntity
  8
0
100
AcDbLine
 10
38.96660340411365
 20
-36.69997573145591
 30
0.0
 11
38.79234402708951
 21
-36.72300895850557
 31
0.0
  0
LINE
  5
100
330
1F
100
AcDbEntity
  8
0
100
AcDbLine
 10
39.14219602483064
 20
-36.69227916197716
 30
0.0
 11
38.96660340411365
 21
-36.69997573145591
 31
0.0
  0
LINE
  5
101
330
1F
100
AcDbEntity
  8
0
100
AcDbLine
 10
39.31779001695423
 20
-36.69997573145591
 30
0.0
 11
39.14219602483064
 21
-36.69227916197716
 31
0.0
  0
LINE
  5
102
330
1F
100
AcDbEntity
  8
0
100
AcDbLine
 10
39.49204708196422
 20
-36.72300895850557
 30
0.0
 11
39.31779001695423
 21
-36.69997573145591
 31
0.0
  0
LINE
  5
103
330
1F
100
AcDbEntity
  8
0
100
AcDbLine
 10
39.66364291479751
 20
-36.76119556023426
 30
0.0
 11
39.49204708196422
 21
-36.72300895850557
 31
0.0
  0
LINE
  5
104
330
1F
100
AcDbEntity
  8
0
100
AcDbLine
 10
39.83126893524318
 20
-36.81424482181663
 30
0.0
 11
39.66364291479751
 21
-36.76119556023426
 31
0.0
  0
LINE
  5
105
330
1F
100
AcDbEntity
  8
0
100
AcDbLine
 10
39.99365055405784
 20
-36.88176609856052
 30
0.0
 11
39.83126893524318
 21
-36.81424482181663
 31
0.0
  0
LINE
  5
106
330
1F
100
AcDbEntity
  8
0
100
AcDbLine
 10
40.14955264778528
 20
-36.96322891423333
 30
0.0
 11
39.99365055405784
 21
-36.88176609856052
 31
0.0
  0
LINE
  5
107
330
1F
100
AcDbEntity
  8
0
100
AcDbLine
 10
40.29778859246111
 20
-37.05802902755256
 30
0.0
 11
40.14955264778528
 21
-36.96322891423333
 31
0.0
  0
LINE
  5
108
330
1F
100
AcDbEntity
  8
0
100
AcDbLine
 10
40.43723029943376
 20
-37.16543446364461
 30
0.0
 11
40.29778859246111
 21
-37.05802902755256
 31
0.0
  0
LINE
  5
109
330
1F
100
AcDbEntity
  8
0
100
AcDbLine
 10
40.68555634614209
 20
-37.41471363593377
 30
0.0
 11
40.43723029943376
 21
-37.16543446364461
 31
0.0
  0
LINE
  5
10A
330
1F
100
AcDbEntity
  8
0
100
AcDbLine
 10
40.88698928461921
 20
-37.70348676487495
 30
0.0
 11
40.68555634614209
 21
-37.41471363593377
 31
0.0
  0
LINE
  5
10B
330
1F
100
AcDbEntity
  8
0
100
AcDbLine
 10
41.03540766042151
 20
-38.02298300963397
 30
0.0
 11
40.88698928461921
 21
-37.70348676487495
 31
0.0
  0
LINE
  5
10C
330
1F
100
AcDbEntity
  8
0
100
AcDbLine
 10
41.12630113281697
 20
-38.36350581018156
 30
0.0
 11
41.03540766042151
 21
-38.02298300963397
 31
0.0
  0
LINE
  5
10D
330
1F
100
AcDbEntity
  8
0
100
AcDbLine
 10
41.15690907240585
 20
-38.71468678385374
 30
0.0
 11
41.12630113281697
 21
-38.36350581018156
 31
0.0
  0
LINE
  5
10E
330
1F
100
AcDbEntity
  8
0
100
AcDbLine
 10
41.12630119548955
 20
-39.06587841821889
 30
0.0
 11
41.15690907240585
 21
-38.71468678385374
 31
0.0
  0
LINE
  5
10F
330
1F
100
AcDbEntity
  8
0
100
AcDbLine
 10
41.03540774157479
 20
-39.40639210271215
 30
0.0
 11
41.12630119548955
 21
-39.06587841821889
 31
0.0
  0
LINE
  5
110
330
1F
100
AcDbEntity
  8
0
100
AcDbLine
 10
40.8869892279605
 20
-39.72589591831834
 30
0.0
 11
41.03540774157479
 21
-39.40639210271215
 31
0.0
  0
LINE
  5
111
330
1F
100
AcDbEntity
  8
0
100
AcDbLine
 10
40.68555618028314
 20
-40.01467058663202
 30
0.0
 11
40.8869892279605
 21
-39.72589591831834
 31
0.0
  0
LINE
  5
112
330
1F
100
AcDbEntity
  8
0
100
AcDbLine
 10
40.43723008833421
 20
-40.26394829250923
 30
0.0
 11
40.68555618028314
 21
-40.01467058663202
 31
0.0
  0
LINE
  5
113
330
1F
100
AcDbEntity
  8
0
100
AcDbLine
 10
40.29778864773005
 20
-40.37135474125932
 30
0.0
 11
40.43723008833421
 21
-40.26394829250923
 31
0.0
  0
LINE
  5
114
330
1F
100
AcDbEntity
  8
0
100
AcDbLine
 10
40.14955268799826
 20
-40.46614611885196
 30
0.0
 11
40.29778864773005
 21
-40.37135474125932
 31
0.0
  0
LINE
  5
115
330
1F
100
AcDbEntity
  8
0
100
AcDbLine
 10
39.99365059773134
 20
-40.54761712900822
 30
0.0
 11
40.14955268799826
 21
-40.46614611885196
 31
0.0
  0
LINE
  5
116
330
1F
100
AcDbEntity
  8
0
100
AcDbLine
 10
39.83126879408063
 20
-40.61513074375183
 30
0.0
 11
39.99365059773134
 21
-40.54761712900822
 31
0.0
  0
LINE
  5
117
330
1F
100
AcDbEntity
  8
0
100
AcDbLine
 10
39.66364292860595
 20
-40.66818774566005
 30
0.0
 11
39.83126879408063
 21
-40.61513074375183
 31
0.0
  0
LINE
  5
118
330
1F
100
AcDbEntity
  8
0
100
AcDbLine
 10
39.49204728045824
 20
-40.7063748976918
 30
0.0
 11
39.66364292860595
 21
-40.66818774566005
 31
0.0
  0
LINE
  5
119
330
1F
100
AcDbEntity
  8
0
100
AcDbLine
 10
39.31779010389672
 20
-40.72940757821343
 30
0.0
 11
39.49204728045824
 21
-40.7063748976918
 31
0.0
  0
LINE
  5
11A
330
1F
100
AcDbEntity
  8
0
100
AcDbLine
 10
39.14219592231832
 20
-40.73709694600247
 30
0.0
 11
39.31779010389672
 21
-40.72940757821343
 31
0.0
  0
LINE
  5
11B
330
1F
100
AcDbEntity
  8
0
100
AcDbLine
 10
38.96660349027957
 20
-40.72940757821343
 30
0.0
 11
39.14219592231832
 21
-40.73709694600247
 31
0.0
  0
LINE
  5
11C
330
1F
100
AcDbEntity
  8
0
100
AcDbLine
 10
38.7923442220667
 20
-40.7063748976918
 30
0.0
 11
38.96660349027957
 21
-40.72940757821343
 31
0.0
  0
LINE
  5
11D
330
1F
100
AcDbEntity
  8
0
100
AcDbLine
 10
38.62075059264303
 20
-40.66818774566005
 30
0.0
 11
38.7923442220667
 21
-40.7063748976918
 31
0.0
  0
LINE
  5
11E
330
1F
100
AcDbEntity
  8
0
100
AcDbLine
 10
38.45312521618062
 20
-40.61513074375183
 30
0.0
 11
38.62075059264303
 21
-40.66818774566005
 31
0.0
  0
LINE
  5
11F
330
1F
100
AcDbEntity
  8
0
100
AcDbLine
 10
38.29074103566485
 20
-40.54761712900822
 30
0.0
 11
38.45312521618062
 21
-40.61513074375183
 31
0.0
  0
LINE
  5
120
330
1F
100
AcDbEntity
  8
0
100
AcDbLine
 10
38.13483931029363
 20
-40.46614611885196
 30
0.0
 11
38.29074103566485
 21
-40.54761712900822
 31
0.0
  0
LINE
  5
121
330
1F
100
AcDbEntity
  8
0
100
AcDbLine
 10
-49.6491002734303
 20
39.27456211468456
 30
0.0
 11
-49.50086205900055
 21
39.36935376081442
 31
0.0
  0
LINE
  5
122
330
1F
100
AcDbEntity
  8
0
100
AcDbLine
 10
-49.80500671311606
 20
39.19309302688769
 30
0.0
 11
-49.6491002734303
 21
39.27456211468456
 31
0.0
  0
LINE
  5
123
330
1F
100
AcDbEntity
  8
0
100
AcDbLine
 10
-49.96737764578591
 20
39.12557240963709
 30
0.0
 11
-49.80500671311606
 21
39.19309302688769
 31
0.0
  0
LINE
  5
124
330
1F
100
AcDbEntity
  8
0
100
AcDbLine
 10
-50.13500996338234
 20
39.0725205192108
 30
0.0
 11
-49.96737764578591
 21
39.12557240963709
 31
0.0
  0
LINE
  5
125
330
1F
100
AcDbEntity
  8
0
100
AcDbLine
 10
-50.30660327664427
 20
39.03433401945714
 30
0.0
 11
-50.13500996338234
 21
39.0725205192108
 31
0.0
  0
LINE
  5
126
330
1F
100
AcDbEntity
  8
0
100
AcDbLine
 10
-50.48085852798766
 20
39.01130407758489
 30
0.0
 11
-50.30660327664427
 21
39.03433401945714
 31
0.0
  0
LINE
  5
127
330
1F
100
AcDbEntity
  8
0
100
AcDbLine
 10
-50.65645714523496
 20
39.00360679142264
 30
0.0
 11
-50.48085852798766
 21
39.01130407758489
 31
0.0
  0
LINE
  5
128
330
1F
100
AcDbEntity
  8
0
100
AcDbLine
 10
-50.83205612304718
 20
39.01130407758489
 30
0.0
 11
-50.65645714523496
 21
39.00360679142264
 31
0.0
  0
LINE
  5
129
330
1F
100
AcDbEntity
  8
0
100
AcDbLine
 10
-51.00630194213235
 20
39.03433401945714
 30
0.0
 11
-50.83205612304718
 21
39.01130407758489
 31
0.0
  0
LINE
  5
12A
330
1F
100
AcDbEntity
  8
0
100
AcDbLine
 10
-51.17790450056719
 20
39.0725205192108
 30
0.0
 11
-51.00630194213235
 21
39.03433401945714
 31
0.0
  0
LINE
  5
12B
330
1F
100
AcDbEntity
  8
0
100
AcDbLine
 10
-51.34553659009919
 20
39.12557240963709
 30
0.0
 11
-51.17790450056719
 21
39.0725205192108
 31
0.0
  0
LINE
  5
12C
330
1F
100
AcDbEntity
  8
0
100
AcDbLine
 10
-51.50791627283776
 20
39.19309302688769
 30
0.0
 11
-51.34553659009919
 21
39.12557240963709
 31
0.0
  0
LINE
  5
12D
330
1F
100
AcDbEntity
  8
0
100
AcDbLine
 10
-51.66381363308393
 20
39.27456211468456
 30
0.0
 11
-51.50791627283776
 21
39.19309302688769
 31
0.0
  0
LINE
  5
12E
330
1F
100
AcDbEntity
  8
0
100
AcDbLine
 10
-51.81205210358049
 20
39.36935376081442
 30
0.0
 11
-51.66381363308393
 21
39.27456211468456
 31
0.0
  0
LINE
  5
12F
330
1F
100
AcDbEntity
  8
0
100
AcDbLine
 10
-51.95148947684078
 20
39.47676252298512
 30
0.0
 11
-51.81205210358049
 21
39.36935376081442
 31
0.0
  0
LINE
  5
130
330
1F
100
AcDbEntity
  8
0
100
AcDbLine
 10
-52.19981523655084
 20
39.72603686969983
 30
0.0
 11
-51.95148947684078
 21
39.47676252298512
 31
0.0
  0
LINE
  5
131
330
1F
100
AcDbEntity
  8
0
100
AcDbLine
 10
-52.40124606503924
 20
40.01481137884095
 30
0.0
 11
-52.19981523655084
 21
39.72603686969983
 31
0.0
  0
LINE
  5
132
330
1F
100
AcDbEntity
  8
0
100
AcDbLine
 10
-52.54966018620811
 20
40.33431320087725
 30
0.0
 11
-52.40124606503924
 21
40.01481137884095
 31
0.0
  0
LINE
  5
133
330
1F
100
AcDbEntity
  8
0
100
AcDbLine
 10
-52.64056023488896
 20
40.67482594089724
 30
0.0
 11
-52.54966018620811
 21
40.33431320087725
 31
0.0
  0
LINE
  5
134
330
1F
100
AcDbEntity
  8
0
100
AcDbLine
 10
-52.67117058551246
 20
41.02601605528726
 30
0.0
 11
-52.64056023488896
 21
40.67482594089724
 31
0.0
  0
LINE
  5
135
330
1F
100
AcDbEntity
  8
0
100
AcDbLine
 10
-52.64056026706223
 20
41.37720616989188
 30
0.0
 11
-52.67117058551246
 21
41.02601605528726
 31
0.0
  0
LINE
  5
136
330
1F
100
AcDbEntity
  8
0
100
AcDbLine
 10
-52.54966040060836
 20
41.7177189125193
 30
0.0
 11
-52.64056026706223
 21
41.37720616989188
 31
0.0
  0
LINE
  5
137
330
1F
100
AcDbEntity
  8
0
100
AcDbLine
 10
-52.40124613765371
 20
42.03722063845741
 30
0.0
 11
-52.54966040060836
 21
41.7177189125193
 31
0.0
  0
LINE
  5
138
330
1F
100
AcDbEntity
  8
0
100
AcDbLine
 10
-49.96737748970739
 20
42.92645960032374
 30
0.0
 11
-50.13500993063658
 21
42.97951159008767
 31
0.0
  0
LINE
  5
139
330
1F
100
AcDbEntity
  8
0
100
AcDbLine
 10
-49.80500693764024
 20
42.85893909194975
 30
0.0
 11
-49.96737748970739
 21
42.92645960032374
 31
0.0
  0
LINE
  5
13A
330
1F
100
AcDbEntity
  8
0
100
AcDbLine
 10
-49.64910056231602
 20
42.77747876154077
 30
0.0
 11
-49.80500693764024
 21
42.85893909194975
 31
0.0
  0
LINE
  5
13B
330
1F
100
AcDbEntity
  8
0
100
AcDbLine
 10
-49.50086232116252
 20
42.68267835853391
 30
0.0
 11
-49.64910056231602
 21
42.77747876154077
 31
0.0
  0
LINE
  5
13C
330
1F
100
AcDbEntity
  8
0
100
AcDbLine
 10
-49.36142494982929
 20
42.57526959260552
 30
0.0
 11
-49.50086232116252
 21
42.68267835853391
 31
0.0
  0
LINE
  5
13D
330
1F
100
AcDbEntity
  8
0
100
AcDbLine
 10
-49.11309006164903
 20
42.32599514282903
 30
0.0
 11
-49.36142494982929
 21
42.57526959260552
 31
0.0
  0
LINE
  5
13E
330
1F
100
AcDbEntity
  8
0
100
AcDbLine
 10
-48.91166801019711
 20
42.03722063845741
 30
0.0
 11
-49.11309006164903
 21
42.32599514282903
 31
0.0
  0
LINE
  5
13F
330
1F
100
AcDbEntity
  8
0
100
AcDbLine
 10
-48.76324545347762
 20
41.7177189125193
 30
0.0
 11
-48.91166801019711
 21
42.03722063845741
 31
0.0
  0
LINE
  5
140
330
1F
100
AcDbEntity
  8
0
100
AcDbLine
 10
-48.67235419476156
 20
41.37720616989188
 30
0.0
 11
-48.76324545347762
 21
41.7177189125193
 31
0.0
  0
LINE
  5
141
330
1F
100
AcDbEntity
  8
0
100
AcDbLine
 10
-48.64173506189749
 20
41.02601605528726
 30
0.0
 11
-48.67235419476156
 21
41.37720616989188
 31
0.0
  0
LINE
  5
142
330
1F
100
AcDbEntity
  8
0
100
AcDbLine
 10
-48.67235416501361
 20
40.67482594089724
 30
0.0
 11
-48.64173506189749
 21
41.02601605528726
 31
0.0
  0
LINE
  5
143
330
1F
100
AcDbEntity
  8
0
100
AcDbLine
 10
-48.76324525452577
 20
40.33431320087725
 30
0.0
 11
-48.67235416501361
 21
40.67482594089724
 31
0.0
  0
LINE
  5
144
330
1F
100
AcDbEntity
  8
0
100
AcDbLine
 10
-48.91166794241828
 20
40.01481137884095
 30
0.0
 11
-48.76324525452577
 21
40.33431320087725
 31
0.0
  0
LINE
  5
145
330
1F
100
AcDbEntity
  8
0
100
AcDbLine
 10
-49.11309018890185
 20
39.72603686969983
 30
0.0
 11
-48.91166794241828
 21
40.01481137884095
 31
0.0
  0
LINE
  5
146
330
1F
100
AcDbEntity
  8
0
100
AcDbLine
 10
-49.36142479000495
 20
39.47676252298512
 30
0.0
 11
-49.11309018890185
 21
39.72603686969983
 31
0.0
  0
LINE
  5
147
330
1F
100
AcDbEntity
  8
0
100
AcDbLine
 10
-49.50086205900055
 20
39.36935376081442
 30
0.0
 11
-49.36142479000495
 21
39.47676252298512
 31
0.0
  0
LINE
  5
148
330
1F
100
AcDbEntity
  8
0
100
AcDbLine
 10
38.96660361250019
 20
34.95109106113676
 30
0.0
 11
38.79234427004067
 21
34.92806104087666
 31
0.0
  0
LINE
  5
149
330
1F
100
AcDbEntity
  8
0
100
AcDbLine
 10
39.14219568830771
 20
34.95878828050859
 30
0.0
 11
38.96660361250019
 21
34.95109106113676
 31
0.0
  0
LINE
  5
14A
330
1F
100
AcDbEntity
  8
0
100
AcDbLine
 10
39.31779022721885
 20
34.95109106113676
 30
0.0
 11
39.14219568830771
 21
34.95878828050859
 31
0.0
  0
LINE
  5
14B
330
1F
100
AcDbEntity
  8
0
100
AcDbLine
 10
39.49204732929753
 20
34.92806104087666
 30
0.0
 11
39.31779022721885
 21
34.95109106113676
 31
0.0
  0
LINE
  5
14C
330
1F
100
AcDbEntity
  8
0
100
AcDbLine
 10
39.66364316320552
 20
34.88987461196569
 30
0.0
 11
39.49204732929753
 21
34.92806104087666
 31
0.0
  0
LINE
  5
14D
330
1F
100
AcDbEntity
  8
0
100
AcDbLine
 10
41.15690927995235
 20
32.93637907173045
 30
0.0
 11
41.12630086704426
 21
33.2875691436451
 31
0.0
  0
LINE
  5
14E
330
1F
100
AcDbEntity
  8
0
100
AcDbLine
 10
41.12630084190837
 20
32.58518892348796
 30
0.0
 11
41.15690927995235
 21
32.93637907173045
 31
0.0
  0
LINE
  5
14F
330
1F
100
AcDbEntity
  8
0
100
AcDbLine
 10
41.03540768741634
 20
32.24467623283426
 30
0.0
 11
41.12630084190837
 21
32.58518892348796
 31
0.0
  0
LINE
  5
150
330
1F
100
AcDbEntity
  8
0
100
AcDbLine
 10
40.88698919894008
 20
31.9251744276466
 30
0.0
 11
41.03540768741634
 21
32.24467623283426
 31
0.0
  0
LINE
  5
151
330
1F
100
AcDbEntity
  8
0
100
AcDbLine
 10
40.68555615140568
 20
31.63639990200731
 30
0.0
 11
40.88698919894008
 21
31.9251744276466
 31
0.0
  0
LINE
  5
152
330
1F
100
AcDbEntity
  8
0
100
AcDbLine
 10
40.43723038475571
 20
31.38712555030996
 30
0.0
 11
40.68555615140568
 21
31.63639990200731
 31
0.0
  0
LINE
  5
153
330
1F
100
AcDbEntity
  8
0
100
AcDbLine
 10
40.29778863141919
 20
31.2797167963109
 30
0.0
 11
40.43723038475571
 21
31.38712555030996
 31
0.0
  0
LINE
  5
154
330
1F
100
AcDbEntity
  8
0
100
AcDbLine
 10
40.14955238567614
 20
31.18492517049195
 30
0.0
 11
40.29778863141919
 21
31.2797167963109
 31
0.0
  0
LINE
  5
155
330
1F
100
AcDbEntity
  8
0
100
AcDbLine
 10
39.99365059984147
 20
31.10345605894469
 30
0.0
 11
40.14955238567614
 21
31.18492517049195
 31
0.0
  0
LINE
  5
156
330
1F
100
AcDbEntity
  8
0
100
AcDbLine
 10
37.59883768693361
 20
31.63639990200731
 30
0.0
 11
37.84716349835364
 21
31.38712555030996
 31
0.0
  0
LINE
  5
157
330
1F
100
AcDbEntity
  8
0
100
AcDbLine
 10
37.39740228787694
 20
31.9251744276466
 30
0.0
 11
37.59883768693361
 21
31.63639990200731
 31
0.0
  0
LINE
  5
158
330
1F
100
AcDbEntity
  8
0
100
AcDbLine
 10
37.24898396686741
 20
32.24467623283426
 30
0.0
 11
37.39740228787694
 21
31.9251744276466
 31
0.0
  0
LINE
  5
159
330
1F
100
AcDbEntity
  8
0
100
AcDbLine
 10
37.15809259816534
 20
32.58518892348796
 30
0.0
 11
37.24898396686741
 21
32.24467623283426
 31
0.0
  0
LINE
  5
15A
330
1F
100
AcDbEntity
  8
0
100
AcDbLine
 10
37.12748253402982
 20
32.93637907173045
 30
0.0
 11
37.15809259816534
 21
32.58518892348796
 31
0.0
  0
LINE
  5
15B
330
1F
100
AcDbEntity
  8
0
100
AcDbLine
 10
37.15809262087591
 20
33.2875691436451
 30
0.0
 11
37.12748253402982
 21
32.93637907173045
 31
0.0
  0
LINE
  5
15C
330
1F
100
AcDbEntity
  8
0
100
AcDbLine
 10
37.2489841188416
 20
33.62808191344875
 30
0.0
 11
37.15809262087591
 21
33.2875691436451
 31
0.0
  0
LINE
  5
15D
330
1F
100
AcDbEntity
  8
0
100
AcDbLine
 10
37.39740233969999
 20
33.94758367894425
 30
0.0
 11
37.2489841188416
 21
33.62808191344875
 31
0.0
  0
LINE
  5
15E
330
1F
100
AcDbEntity
  8
0
100
AcDbLine
 10
37.59883758951439
 20
34.23635819981394
 30
0.0
 11
37.39740233969999
 21
33.94758367894425
 31
0.0
  0
LINE
  5
15F
330
1F
100
AcDbEntity
  8
0
100
AcDbLine
 10
37.84716335700219
 20
34.48563254909352
 30
0.0
 11
37.59883758951439
 21
34.23635819981394
 31
0.0
  0
LINE
  5
160
330
1F
100
AcDbEntity
  8
0
100
AcDbLine
 10
37.9866051074394
 20
34.59304130610121
 30
0.0
 11
37.84716335700219
 21
34.48563254909352
 31
0.0
  0
LINE
  5
161
330
1F
100
AcDbEntity
  8
0
100
AcDbLine
 10
38.13483924503153
 20
34.68784177528636
 30
0.0
 11
37.9866051074394
 21
34.59304130610121
 31
0.0
  0
LINE
  5
162
330
1F
100
AcDbEntity
  8
0
100
AcDbLine
 10
38.29074094331489
 20
34.76930204172755
 30
0.0
 11
38.13483924503153
 21
34.68784177528636
 31
0.0
  0
LINE
  5
163
330
1F
100
AcDbEntity
  8
0
100
AcDbLine
 10
38.45312502186034
 20
34.83682266032143
 30
0.0
 11
38.29074094331489
 21
34.76930204172755
 31
0.0
  0
LINE
  5
164
330
1F
100
AcDbEntity
  8
0
100
AcDbLine
 10
38.62075082107418
 20
34.88987461196569
 30
0.0
 11
38.45312502186034
 21
34.83682266032143
 31
0.0
  0
LINE
  5
165
330
1F
100
AcDbEntity
  8
0
100
AcDbLine
 10
38.79234427004067
 20
34.92806104087666
 30
0.0
 11
38.62075082107418
 21
34.88987461196569
 31
0.0
  0
LINE
  5
166
330
1F
100
AcDbEntity
  8
0
100
AcDbLine
 10
-64.47163486936057
 20
-12.71228697757047
 30
0.0
 11
-64.47163453362765
 21
-33.51421374226876
 31
0.0
  0
LINE
  5
167
330
1F
100
AcDbEntity
  8
0
100
AcDbLine
 10
64.47002107468643
 20
-4.044818610999987
 30
0.0
 11
64.47002135141831
 21
16.75710503522342
 31
0.0
  0
LINE
  5
168
330
1F
100
AcDbEntity
  8
0
100
AcDbLine
 10
-64.47163461005407
 20
-4.044818610999987
 30
0.0
 11
64.47002107468643
 21
-4.044818610999987
 31
0.0
  0
LINE
  5
169
330
1F
100
AcDbEntity
  8
0
100
AcDbLine
 10
-64.47163453362765
 20
-33.51421374226876
 30
0.0
 11
64.47002099826193
 21
-33.51421374226876
 31
0.0
  0
LINE
  5
16A
330
1F
100
AcDbEntity
  8
0
100
AcDbLine
 10
64.47002099826193
 20
-33.51421374226876
 30
0.0
 11
64.47002133398645
 21
-12.71228697757047
 31
0.0
  0
LINE
  5
16B
330
1F
100
AcDbEntity
  8
0
100
AcDbLine
 10
64.47002133398645
 20
-12.71228697757047
 30
0.0
 11
-64.47163486936057
 21
-12.71228697757047
 31
0.0
  0
LINE
  5
16C
330
1F
100
AcDbEntity
  8
0
100
AcDbLine
 10
64.47002135141831
 20
16.75710503522342
 30
0.0
 11
-64.47163488679288
 21
16.75710503522342
 31
0.0
  0
LINE
  5
16D
330
1F
100
AcDbEntity
  8
0
100
AcDbLine
 10
-64.47163488679288
 20
16.75710503522342
 30
0.0
 11
-64.47163461005407
 21
-4.044818610999987
 31
0.0
  0
LINE
  5
16E
330
1F
100
AcDbEntity
  8
0
100
AcDbLine
 10
-71.37922320564275
 20
49.1156530157129
 30
0.0
 11
74.8330172738875
 21
49.11458017402594
 31
0.0
  0
LINE
  5
16F
330
1F
100
AcDbEntity
  8
0
100
AcDbLine
 10
74.83140396590248
 20
-45.64866749712322
 30
0.0
 11
74.8330172738875
 21
49.11458017402594
 31
0.0
  0
ENDSEC
  0
SECTION
  2
OBJECTS
  0
DICTIONARY
  5
C
330
0
100
AcDbDictionary
  3
ACAD_GROUP
350
D
  3
ACAD_LAYOUT
350
1A
  3
ACAD_MATERIAL
350
43
  3
ACAD_MLEADERSTYLE
350
6B
  3
ACAD_MLINESTYLE
350
17
  3
ACAD_PLOTSETTINGS
350
19
  3
ACAD_SCALELIST
350
47
  3
ACAD_VISUALSTYLE
350
2A
  3
ACDBHEADERROUNDTRIPXREC
350
170
  3
ACDBVARIABLEDICTIONARY
350
191
  0
DICTIONARY
  5
198
330
8
100
AcDbDictionary
280
     1
  3
ACAD_XREC_ROUNDTRIP
360
199
  0
DICTIONARY
  5
D
102
{ACAD_REACTORS
330
C
102
}
330
C
100
AcDbDictionary
  0
DICTIONARY
  5
1A
102
{ACAD_REACTORS
330
C
102
}
330
C
100
AcDbDictionary
  0
DICTIONARY
  5
43
102
{ACAD_REACTORS
330
C
102
}
330
C
100
AcDbDictionary
  3
BYBLOCK
350
45
  3
BYLAYER
350
44
  3
GLOBAL
350
46
  0
DICTIONARY
  5
6B
102
{ACAD_REACTORS
330
C
102
}
330
C
100
AcDbDictionary
  3
STANDARD
350
6C
  0
DICTIONARY
  5
17
102
{ACAD_REACTORS
330
C
102
}
330
C
100
AcDbDictionary
  3
STANDARD
350
18
  0
DICTIONARY
  5
19
102
{ACAD_REACTORS
330
C
102
}
330
C
100
AcDbDictionary
  0
DICTIONARY
  5
47
102
{ACAD_REACTORS
330
C
102
}
330
C
100
AcDbDictionary
  3
A0
350
48
  3
A1
350
49
  3
A2
350
4A
  3
A3
350
4B
  3
A4
350
4C
  3
A5
350
4D
  3
A6
350
4E
  3
A7
350
4F
  3
A8
350
50
  3
A9
350
51
  3
B0
350
52
  3
B1
350
53
  3
B2
350
54
  3
B3
350
55
  3
B4
350
56
  3
B5
350
57
  3
B6
350
58
  3
B7
350
59
  3
B8
350
5A
  3
B9
350
5B
  3
C0
350
5C
  3
C1
350
5D
  3
C2
350
5E
  3
C3
350
5F
  3
C4
350
60
  3
C5
350
61
  3
C6
350
62
  3
C7
350
63
  3
C8
350
64
  3
C9
350
65
  3
D0
350
66
  3
D1
350
67
  3
D2
350
68
  0
DICTIONARY
  5
2A
102
{ACAD_REACTORS
330
C
102
}
330
C
100
AcDbDictionary
  3
2DWIREFRAME
350
2F
  3
BASIC
350
32
  3
BRIGHTEN
350
36
  3
COLORCHANGE
350
3A
  3
CONCEPTUAL
350
34
  3
DIM
350
35
  3
EDGECOLOROFF
350
3D
  3
FACEPATTERN
350
39
  3
FLAT
350
2B
  3
FLATWITHEDGES
350
2C
  3
GOURAUD
350
2D
  3
GOURAUDWITHEDGES
350
2E
  3
HIDDEN
350
31
  3
JITTEROFF
350
3B
  3
LINEPATTERN
350
38
  3
OVERHANGOFF
350
3C
  3
REALISTIC
350
33
  3
SHADED
350
42
  3
SHADED_WITH_EDGES
350
41
  3
SHADES_OF_GRAY
350
3E
  3
SKETCHY
350
3F
  3
THICKEN
350
37
  3
WIREFRAME
350
30
  3
X-RAY
350
40
  0
DICTIONARY
  5
170
102
{ACAD_REACTORS
330
C
102
}
330
C
100
AcDbDictionary
  3
CEPSNID
350
17A
  3
CEPSNTYPE
350
179
  3
DIMSTYLEDATA
350
190
  3
FINGERPRINTGUID
350
17B
  3
HYPERLINKBASE
350
173
  3
INSUNITS
350
178
  3
LAYOUTDICT
350
175
  3
LWETCUNION
350
177
  3
PLOTSETDICT
350
176
  3
PSVPSCALE
350
17D
  3
PUCSBASE
350
180
  3
PUCSORGBACK
350
186
  3
PUCSORGBOTTOM
350
182
  3
PUCSORGFRONT
350
185
  3
PUCSORGLEFT
350
183
  3
PUCSORGRIGHT
350
184
  3
PUCSORGTOP
350
181
  3
PUCSORTHOREF
350
17E
  3
PUCSORTHOVIEW
350
17F
  3
STYLESHEET
350
174
  3
TSTACKALIGN
350
171
  3
TSTACKSIZE
350
172
  3
UCSBASE
350
189
  3
UCSORGBACK
350
18F
  3
UCSORGBOTTOM
350
18B
  3
UCSORGFRONT
350
18E
  3
UCSORGLEFT
350
18C
  3
UCSORGRIGHT
350
18D
  3
UCSORGTOP
350
18A
  3
UCSORTHOREF
350
187
  3
UCSORTHOVIEW
350
188
  3
VERSIONGUID
350
17C
  0
DICTIONARY
  5
191
102
{ACAD_REACTORS
330
C
102
}
330
C
100
AcDbDictionary
  3
CANNOSCALE
350
19A
  3
CMLEADERSTYLE
350
193
  3
CTABLESTYLE
350
192
  3
DIMASSOC
350
196
  3
HIDETEXT
350
197
  3
MSLTSCALE
350
19B
  0
XRECORD
  5
199
102
{ACAD_REACTORS
330
198
102
}
330
198
100
AcDbXrecord
102
VTR_0.000_0.000_1.000_1.000_VISUALSTYLE
340
2F
102
VTR_0.000_0.000_1.000_1.000_GRIDDISPLAY
 70
     3
102
VTR_0.000_0.000_1.000_1.000_GRIDMAJOR
 70
     5
102
VTR_0.000_0.000_1.000_1.000_DEFAULTLIGHTING
280
     1
102
VTR_0.000_0.000_1.000_1.000_DEFAULTLIGHTINGTYPE
 70
     1
102
VTR_0.000_0.000_1.000_1.000_BRIGHTNESS
141
0.0
102
VTR_0.000_0.000_1.000_1.000_CONTRAST
142
0.0
  0
MATERIAL
  5
45
102
{ACAD_REACTORS
330
43
102
}
102
{ACAD_XDICTIONARY
360
19E
102
}
330
43
100
AcDbMaterial
  1
BYBLOCK
  0
MATERIAL
  5
44
102
{ACAD_REACTORS
330
43
102
}
102
{ACAD_XDICTIONARY
360
19C
102
}
330
43
100
AcDbMaterial
  1
BYLAYER
  0
MATERIAL
  5
46
102
{ACAD_REACTORS
330
43
102
}
102
{ACAD_XDICTIONARY
360
1A0
102
}
330
43
100
AcDbMaterial
  1
GLOBAL
  0
ACAD_PROXY_OBJECT
  5
6C
102
{ACAD_REACTORS
330
6B
102
}
330
6B
100
AcDbProxyObject
 90
      499
 91
      505
 93
      610
310
40901902A4063FBFFFFFE056BD1B81E855B9FC0AD7A3703D0AD73F4214DD185B99185C9900AD7A3703D0AC73F90141901A02B5E8DC0F42B1CFC02B5E8DC0F42B1CFE5764000000000000300FC0
340
14
340
0
340
11
340
0
 94
        0
1001
ACAD_MLEADERVER
1070
     2
  0
MLINESTYLE
  5
18
102
{ACAD_REACTORS
330
17
102
}
330
17
100
AcDbMlineStyle
  2
Standard
 70
     0
  3

 62
   256
 51
90.0
 52
90.0
 71
     2
 49
0.5
 62
   256
  6
BYLAYER
 49
-0.5
 62
   256
  6
BYLAYER
  0
ACAD_PROXY_OBJECT
  5
48
102
{ACAD_REACTORS
330
47
102
}
330
47
100
AcDbProxyObject
 90
      499
 91
      503
 93
       41
310
903313A31580
  0
ACAD_PROXY_OBJECT
  5
49
102
{ACAD_REACTORS
330
47
102
}
330
47
100
AcDbProxyObject
 90
      499
 91
      503
 93
      105
310
903313A324000000000000004000
  0
ACAD_PROXY_OBJECT
  5
4A
102
{ACAD_REACTORS
330
47
102
}
330
47
100
AcDbProxyObject
 90
      499
 91
      503
 93
      105
310
903313A344000000000000104000
  0
ACAD_PROXY_OBJECT
  5
4B
102
{ACAD_REACTORS
330
47
102
}
330
47
100
AcDbProxyObject
 90
      499
 91
      503
 93
      105
310
903313A354000000000000144000
  0
ACAD_PROXY_OBJECT
  5
4C
102
{ACAD_REACTORS
330
47
102
}
330
47
100
AcDbProxyObject
 90
      499
 91
      503
 93
      105
310
903313A384000000000000204000
  0
ACAD_PROXY_OBJECT
  5
4D
102
{ACAD_REACTORS
330
47
102
}
330
47
100
AcDbProxyObject
 90
      499
 91
      503
 93
      113
310
904313A31304000000000000244000
  0
ACAD_PROXY_OBJECT
  5
4E
102
{ACAD_REACTORS
330
47
102
}
330
47
100
AcDbProxyObject
 90
      499
 91
      503
 93
      113
310
904313A31364000000000000304000
  0
ACAD_PROXY_OBJECT
  5
4F
102
{ACAD_REACTORS
330
47
102
}
330
47
100
AcDbProxyObject
 90
      499
 91
      503
 93
      113
310
904313A32304000000000000344000
  0
ACAD_PROXY_OBJECT
  5
50
102
{ACAD_REACTORS
330
47
102
}
330
47
100
AcDbProxyObject
 90
      499
 91
      503
 93
      113
310
904313A333040000000000003E4000
  0
ACAD_PROXY_OBJECT
  5
51
102
{ACAD_REACTORS
330
47
102
}
330
47
100
AcDbProxyObject
 90
      499
 91
      503
 93
      113
310
904313A34304000000000000444000
  0
ACAD_PROXY_OBJECT
  5
52
102
{ACAD_REACTORS
330
47
102
}
330
47
100
AcDbProxyObject
 90
      499
 91
      503
 93
      113
310
904313A35304000000000000494000
  0
ACAD_PROXY_OBJECT
  5
53
102
{ACAD_REACTORS
330
47
102
}
330
47
100
AcDbProxyObject
 90
      499
 91
      503
 93
      121
310
905313A3130304000000000000594000
  0
ACAD_PROXY_OBJECT
  5
54
102
{ACAD_REACTORS
330
47
102
}
330
47
100
AcDbProxyObject
 90
      499
 91
      503
 93
      105
310
903323A310000000000000010100
  0
ACAD_PROXY_OBJECT
  5
55
102
{ACAD_REACTORS
330
47
102
}
330
47
100
AcDbProxyObject
 90
      499
 91
      503
 93
      105
310
903343A310000000000000410100
  0
ACAD_PROXY_OBJECT
  5
56
102
{ACAD_REACTORS
330
47
102
}
330
47
100
AcDbProxyObject
 90
      499
 91
      503
 93
      105
310
903383A310000000000000810100
  0
ACAD_PROXY_OBJECT
  5
57
102
{ACAD_REACTORS
330
47
102
}
330
47
100
AcDbProxyObject
 90
      499
 91
      503
 93
      113
310
90431303A310000000000000910100
  0
ACAD_PROXY_OBJECT
  5
58
102
{ACAD_REACTORS
330
47
102
}
330
47
100
AcDbProxyObject
 90
      499
 91
      503
 93
      121
310
9053130303A310000000000001650100
  0
ACAD_PROXY_OBJECT
  5
59
102
{ACAD_REACTORS
330
47
102
}
330
47
100
AcDbProxyObject
 90
      499
 91
      503
 93
      257
310
90E312F31323822203D2031272D3022000000000000200FC000000000000284000
  0
ACAD_PROXY_OBJECT
  5
5A
102
{ACAD_REACTORS
330
47
102
}
330
47
100
AcDbProxyObject
 90
      499
 91
      503
 93
      249
310
90D312F363422203D2031272D3022000000000000240FC000000000000284000
  0
ACAD_PROXY_OBJECT
  5
5B
102
{ACAD_REACTORS
330
47
102
}
330
47
100
AcDbProxyObject
 90
      499
 91
      503
 93
      249
310
90D312F333222203D2031272D3022000000000000280FC000000000000284000
  0
ACAD_PROXY_OBJECT
  5
5C
102
{ACAD_REACTORS
330
47
102
}
330
47
100
AcDbProxyObject
 90
      499
 91
      503
 93
      249
310
90D312F313622203D2031272D30220000000000002C0FC000000000000284000
  0
ACAD_PROXY_OBJECT
  5
5D
102
{ACAD_REACTORS
330
47
102
}
330
47
100
AcDbProxyObject
 90
      499
 91
      503
 93
      249
310
90D332F333222203D2031272D30220000000000002E0FC000000000000284000
  0
ACAD_PROXY_OBJECT
  5
5E
102
{ACAD_REACTORS
330
47
102
}
330
47
100
AcDbProxyObject
 90
      499
 91
      503
 93
      241
310
90C312F3822203D2031272D3022000000000000300FC000000000000284000
  0
ACAD_PROXY_OBJECT
  5
5F
102
{ACAD_REACTORS
330
47
102
}
330
47
100
AcDbProxyObject
 90
      499
 91
      503
 93
      249
310
90D332F313622203D2031272D3022000000000000320FC000000000000284000
  0
ACAD_PROXY_OBJECT
  5
60
102
{ACAD_REACTORS
330
47
102
}
330
47
100
AcDbProxyObject
 90
      499
 91
      503
 93
      241
310
90C312F3422203D2031272D3022000000000000340FC000000000000284000
  0
ACAD_PROXY_OBJECT
  5
61
102
{ACAD_REACTORS
330
47
102
}
330
47
100
AcDbProxyObject
 90
      499
 91
      503
 93
      241
310
90C332F3822203D2031272D3022000000000000360FC000000000000284000
  0
ACAD_PROXY_OBJECT
  5
62
102
{ACAD_REACTORS
330
47
102
}
330
47
100
AcDbProxyObject
 90
      499
 91
      503
 93
      241
310
90C312F3222203D2031272D3022000000000000380FC000000000000284000
  0
ACAD_PROXY_OBJECT
  5
63
102
{ACAD_REACTORS
330
47
102
}
330
47
100
AcDbProxyObject
 90
      499
 91
      503
 93
      241
310
90C332F3422203D2031272D30220000000000003A0FC000000000000284000
  0
ACAD_PROXY_OBJECT
  5
64
102
{ACAD_REACTORS
330
47
102
}
330
47
100
AcDbProxyObject
 90
      499
 91
      503
 93
      161
310
90A3122203D2031272D30224000000000000284000
  0
ACAD_PROXY_OBJECT
  5
65
102
{ACAD_REACTORS
330
47
102
}
330
47
100
AcDbProxyObject
 90
      499
 91
      503
 93
      257
310
90E312D312F3222203D2031272D30220000000000003E0FC000000000000284000
  0
ACAD_PROXY_OBJECT
  5
66
102
{ACAD_REACTORS
330
47
102
}
330
47
100
AcDbProxyObject
 90
      499
 91
      503
 93
      225
310
90A3322203D2031272D302200000000000002100000000000000284000
  0
ACAD_PROXY_OBJECT
  5
67
102
{ACAD_REACTORS
330
47
102
}
330
47
100
AcDbProxyObject
 90
      499
 91
      503
 93
      225
310
90A3622203D2031272D302200000000000006100000000000000284000
  0
ACAD_PROXY_OBJECT
  5
68
102
{ACAD_REACTORS
330
47
102
}
330
47
100
AcDbProxyObject
 90
      499
 91
      503
 93
      249
310
90D31272D3022203D2031272D30220000000000000A100000000000000284000
  0
ACAD_PROXY_OBJECT
  5
2F
102
{ACAD_REACTORS
330
2A
102
}
330
2A
100
AcDbProxyObject
 90
      499
 91
      501
 93
      436
310
42CC9915DA5C99599C985B595049028333333333333E33F0000000000000F90107901411070040501600405405064090741402480A0340
1001
ACAD
1000
AcDbSavedByObjectVersion
1070
     0
  0
ACAD_PROXY_OBJECT
  5
32
102
{ACAD_REACTORS
330
2A
102
}
330
2A
100
AcDbProxyObject
 90
      499
 91
      501
 93
      388
310
4150985CDA58D07406404333333333333E33F0000000000000F90107A41107004050150841D405064090741402480A0350
1001
ACAD
1000
AcDbSavedByObjectVersion
1070
     0
  0
ACAD_PROXY_OBJECT
  5
36
102
{ACAD_REACTORS
330
2A
102
}
330
2A
100
AcDbProxyObject
 90
      499
 91
      501
 93
      428
310
42109C9A59DA1D195B90C409028333333333333E33F0000000000000F9010790141107004050150841D405064090741402480A029950
1001
ACAD
1000
AcDbSavedByObjectVersion
1070
     0
  0
ACAD_PROXY_OBJECT
  5
3A
102
{ACAD_REACTORS
330
2A
102
}
330
2A
100
AcDbProxyObject
 90
      499
 91
      501
 93
      452
310
42D0DBDB1BDC90DA185B99D95104090240C333333333333E33F0000000000000F90108901411070040501508421405064090741402480A0350
1001
ACAD
1000
AcDbSavedByObjectVersion
1070
     0
  0
ACAD_PROXY_OBJECT
  5
34
102
{ACAD_REACTORS
330
2A
102
}
330
2A
100
AcDbProxyObject
 90
      499
 91
      501
 93
      500
310
4290DBDB98D95C1D1D585B10940D028333333333333E33F0000000000000F90107902409070040501000000000018199010841D405064090740C02480A0340
1001
ACAD
1000
AcDbSavedByObjectVersion
1070
     0
  0
ACAD_PROXY_OBJECT
  5
35
102
{ACAD_REACTORS
330
2A
102
}
330
2A
100
AcDbProxyObject
 90
      499
 91
      501
 93
      412
310
40D11A5B50B409028333333333333E33F0000000000000F9010790141107004050150841D405064090741402480A02677FFFFFD0
1001
ACAD
1000
AcDbSavedByObjectVersion
1070
     0
  0
ACAD_PROXY_OBJECT
  5
3D
102
{ACAD_REACTORS
330
2A
102
}
330
2A
100
AcDbProxyObject
 90
      499
 91
      501
 93
      452
310
43115919D950DBDB1BDC93D999916409028333333333333E33F0000000000000F9010790141107004050150841D405064090741402480A0350
1001
ACAD
1000
AcDbSavedByObjectVersion
1070
     0
  0
ACAD_PROXY_OBJECT
  5
39
102
{ACAD_REACTORS
330
2A
102
}
330
2A
100
AcDbProxyObject
 90
      499
 91
      501
 93
      444
310
42D19858D95C185D1D195C9B90F409028333333333333E33F0000000000000F9010790141107004050150841D405064090741402480A0350
1001
ACAD
1000
AcDbSavedByObjectVersion
1070
     0
  0
ACAD_PROXY_OBJECT
  5
2B
102
{ACAD_REACTORS
330
2A
102
}
330
2A
100
AcDbProxyObject
 90
      499
 91
      501
 93
      380
310
41119B185D240901404333333333333E33F0000000000000F9010740A907004050150841D405064090741402480A1B50
1001
ACAD
1000
AcDbSavedByObjectVersion
1070
     0
  0
ACAD_PROXY_OBJECT
  5
2C
102
{ACAD_REACTORS
330
2A
102
}
330
2A
100
AcDbProxyObject
 90
      499
 91
      501
 93
      468
310
43519B185D15DA5D1A115919D95CD0140901404333333333333E33F0000000000000F90107409019070040501600405405064090741402480A1B50
1001
ACAD
1000
AcDbSavedByObjectVersion
1070
     0
  0
ACAD_PROXY_OBJECT
  5
2D
102
{ACAD_REACTORS
330
2A
102
}
330
2A
100
AcDbProxyObject
 90
      499
 91
      501
 93
      404
310
41D1DBDD5C985D5910240902404333333333333E33F0000000000000F9010740A9070040501641D405064090741402480A1B50
1001
ACAD
1000
AcDbSavedByObjectVersion
1070
     0
  0
ACAD_PROXY_OBJECT
  5
2E
102
{ACAD_REACTORS
330
2A
102
}
330
2A
100
AcDbProxyObject
 90
      499
 91
      501
 93
      492
310
4411DBDD5C985D5915DA5D1A115919D95CD0340902404333333333333E33F0000000000000F90107409019070040501600405405064090741402480A1B50
1001
ACAD
1000
AcDbSavedByObjectVersion
1070
     0
  0
ACAD_PROXY_OBJECT
  5
31
102
{ACAD_REACTORS
330
2A
102
}
330
2A
100
AcDbProxyObject
 90
      499
 91
      501
 93
      476
310
41921A5919195B90640502408333333333333E33F0000000000000F901079024090700405020000000000001110200405405064090740C02480A0340
1001
ACAD
1000
AcDbSavedByObjectVersion
1070
     0
  0
ACAD_PROXY_OBJECT
  5
3B
102
{ACAD_REACTORS
330
2A
102
}
330
2A
100
AcDbProxyObject
 90
      499
 91
      501
 93
      428
310
42529A5D1D195C93D999914409028333333333333E33F0000000000000F9010790141107004050150A41D405064090741402480A0350
1001
ACAD
1000
AcDbSavedByObjectVersion
1070
     0
  0
ACAD_PROXY_OBJECT
  5
38
102
{ACAD_REACTORS
330
2A
102
}
330
2A
100
AcDbProxyObject
 90
      499
 91
      501
 93
      444
310
42D31A5B995C185D1D195C9B90E409028333333333333E33F0000000000000F9010790141107004050750841D405064090741402483A0350
1001
ACAD
1000
AcDbSavedByObjectVersion
1070
     0
  0
ACAD_PROXY_OBJECT
  5
3C
102
{ACAD_REACTORS
330
2A
102
}
330
2A
100
AcDbProxyObject
 90
      499
 91
      501
 93
      444
310
42D3DD995C9A185B99D3D999915409028333333333333E33F0000000000000F9010790141107004050150941D405064090741402480A0350
1001
ACAD
1000
AcDbSavedByObjectVersion
1070
     0
  0
ACAD_PROXY_OBJECT
  5
33
102
{ACAD_REACTORS
330
2A
102
}
330
2A
100
AcDbProxyObject
 90
      499
 91
      501
 93
      428
310
425499585B1A5CDD1A58D08409038333333333333E33F0000000000000F9010740A907004050150800405405064090740C02480A1B40
1001
ACAD
1000
AcDbSavedByObjectVersion
1070
     0
  0
ACAD_PROXY_OBJECT
  5
42
102
{ACAD_REACTORS
330
2A
102
}
330
2A
100
AcDbProxyObject
 90
      499
 91
      501
 93
      420
310
4194DA1859195911B40902404333333333333E33F0000000000000F9010740A41107004050150800405405064090840C02480A0B40
1001
ACAD
1000
AcDbSavedByObjectVersion
1070
     0
  0
ACAD_PROXY_OBJECT
  5
41
102
{ACAD_REACTORS
330
2A
102
}
330
2A
100
AcDbProxyObject
 90
      499
 91
      501
 93
      516
310
4454DA18591959081DDA5D1A08195919D95CD1A40902404333333333333E33F0000000000000F901074090142907004050250800405405064090740C02480A0B40
1001
ACAD
1000
AcDbSavedByObjectVersion
1070
     0
  0
ACAD_PROXY_OBJECT
  5
3E
102
{ACAD_REACTORS
330
2A
102
}
330
2A
100
AcDbProxyObject
 90
      499
 91
      501
 93
      532
310
4394DA1859195CC81BD98811DC985E5174090240C333333333333E33F0000000000000F901079024090741D01000000000000111010841D405064090740C02480A0340
1001
ACAD
1000
AcDbSavedByObjectVersion
1070
     0
  0
ACAD_PROXY_OBJECT
  5
3F
102
{ACAD_REACTORS
330
2A
102
}
330
2A
100
AcDbProxyObject
 90
      499
 91
      501
 93
      476
310
41D4DAD95D18DA1E51840502408333333333333E33F0000000000000F901079024090741D01000000000000111010B41D405064090741802480A0340
1001
ACAD
1000
AcDbSavedByObjectVersion
1070
     0
  0
ACAD_PROXY_OBJECT
  5
37
102
{ACAD_REACTORS
330
2A
102
}
330
2A
100
AcDbProxyObject
 90
      499
 91
      501
 93
      412
310
41D51A1A58DAD95B90D409028333333333333E33F0000000000000F9010790141107004050150C41D405064090741402480A0350
1001
ACAD
1000
AcDbSavedByObjectVersion
1070
     0
  0
ACAD_PROXY_OBJECT
  5
30
102
{ACAD_REACTORS
330
2A
102
}
330
2A
100
AcDbProxyObject
 90
      499
 91
      501
 93
      420
310
4255DA5C99599C985B595059028333333333333E33F0000000000000F90107901411070040501600405405064090740C02480A0340
1001
ACAD
1000
AcDbSavedByObjectVersion
1070
     0
  0
ACAD_PROXY_OBJECT
  5
40
102
{ACAD_REACTORS
330
2A
102
}
330
2A
100
AcDbProxyObject
 90
      499
 91
      501
 93
      404
310
41560B54985E51940902404000000000000E03F0000000000000F9010740501907004050150841D405064090740C02480A1B40
1001
ACAD
1000
AcDbSavedByObjectVersion
1070
     0
  0
XRECORD
  5
17A
102
{ACAD_REACTORS
330
170
102
}
330
170
100
AcDbXrecord
340
0
  0
XRECORD
  5
179
102
{ACAD_REACTORS
330
170
102
}
330
170
100
AcDbXrecord
 90
        0
  0
XRECORD
  5
190
102
{ACAD_REACTORS
330
170
102
}
330
170
100
AcDbXrecord
1000
DSTYLE
1002
{
1070
   171
 70
     2
1070
   143
 40
25.4
1070
   274
 70
     2
1070
    41
 40
0.18
1070
   141
 40
0.09
1070
   271
 70
     4
1070
    43
 40
0.38
1070
   278
 70
    46
1070
    44
 40
0.18
1070
    42
 40
0.0625
1070
   147
 40
0.09
1070
    77
 70
     0
1070
   272
 70
     4
1070
    73
 70
     1
1070
   172
 70
     0
1070
    74
 70
     1
1070
   283
 70
     1
1070
   340
340
11
1070
   140
 40
0.18
1070
   284
 70
     0
1070
    78
 70
     0
1002
}
  0
XRECORD
  5
17B
102
{ACAD_REACTORS
330
170
102
}
330
170
100
AcDbXrecord
  1
{3f7dc1ea-a827-dd4c-9162-b77a7d90f8e8}
  0
XRECORD
  5
173
102
{ACAD_REACTORS
330
170
102
}
330
170
100
AcDbXrecord
  1

  0
XRECORD
  5
178
102
{ACAD_REACTORS
330
170
102
}
330
170
100
AcDbXrecord
 90
        4
  0
XRECORD
  5
175
102
{ACAD_REACTORS
330
170
102
}
330
170
100
AcDbXrecord
340
1A
  0
XRECORD
  5
177
102
{ACAD_REACTORS
330
170
102
}
330
170
100
AcDbXrecord
 90
    10781
  0
XRECORD
  5
176
102
{ACAD_REACTORS
330
170
102
}
330
170
100
AcDbXrecord
340
19
  0
XRECORD
  5
17D
102
{ACAD_REACTORS
330
170
102
}
330
170
100
AcDbXrecord
 40
0.0
  0
XRECORD
  5
180
102
{ACAD_REACTORS
330
170
102
}
330
170
100
AcDbXrecord
340
0
  0
XRECORD
  5
186
102
{ACAD_REACTORS
330
170
102
}
330
170
100
AcDbXrecord
 10
0.0
 20
0.0
 30
0.0
  0
XRECORD
  5
182
102
{ACAD_REACTORS
330
170
102
}
330
170
100
AcDbXrecord
 10
0.0
 20
0.0
 30
0.0
  0
XRECORD
  5
185
102
{ACAD_REACTORS
330
170
102
}
330
170
100
AcDbXrecord
 10
0.0
 20
0.0
 30
0.0
  0
XRECORD
  5
183
102
{ACAD_REACTORS
330
170
102
}
330
170
100
AcDbXrecord
 10
0.0
 20
0.0
 30
0.0
  0
XRECORD
  5
184
102
{ACAD_REACTORS
330
170
102
}
330
170
100
AcDbXrecord
 10
0.0
 20
0.0
 30
0.0
  0
XRECORD
  5
181
102
{ACAD_REACTORS
330
170
102
}
330
170
100
AcDbXrecord
 10
0.0
 20
0.0
 30
0.0
  0
XRECORD
  5
17E
102
{ACAD_REACTORS
330
170
102
}
330
170
100
AcDbXrecord
340
0
  0
XRECORD
  5
17F
102
{ACAD_REACTORS
330
170
102
}
330
170
100
AcDbXrecord
 70
     0
  0
XRECORD
  5
174
102
{ACAD_REACTORS
330
170
102
}
330
170
100
AcDbXrecord
  1

  0
XRECORD
  5
171
102
{ACAD_REACTORS
330
170
102
}
330
170
100
AcDbXrecord
 90
        1
  0
XRECORD
  5
172
102
{ACAD_REACTORS
330
170
102
}
330
170
100
AcDbXrecord
 90
       70
  0
XRECORD
  5
189
102
{ACAD_REACTORS
330
170
102
}
330
170
100
AcDbXrecord
340
0
  0
XRECORD
  5
18F
102
{ACAD_REACTORS
330
170
102
}
330
170
100
AcDbXrecord
 10
0.0
 20
0.0
 30
0.0
  0
XRECORD
  5
18B
102
{ACAD_REACTORS
330
170
102
}
330
170
100
AcDbXrecord
 10
0.0
 20
0.0
 30
0.0
  0
XRECORD
  5
18E
102
{ACAD_REACTORS
330
170
102
}
330
170
100
AcDbXrecord
 10
0.0
 20
0.0
 30
0.0
  0
XRECORD
  5
18C
102
{ACAD_REACTORS
330
170
102
}
330
170
100
AcDbXrecord
 10
0.0
 20
0.0
 30
0.0
  0
XRECORD
  5
18D
102
{ACAD_REACTORS
330
170
102
}
330
170
100
AcDbXrecord
 10
0.0
 20
0.0
 30
0.0
  0
XRECORD
  5
18A
102
{ACAD_REACTORS
330
170
102
}
330
170
100
AcDbXrecord
 10
0.0
 20
0.0
 30
0.0
  0
XRECORD
  5
187
102
{ACAD_REACTORS
330
170
102
}
330
170
100
AcDbXrecord
340
0
  0
XRECORD
  5
188
102
{ACAD_REACTORS
330
170
102
}
330
170
100
AcDbXrecord
 70
     0
  0
XRECORD
  5
17C
102
{ACAD_REACTORS
330
170
102
}
330
170
100
AcDbXrecord
  1
{FAEB1C32-E019-11D5-929B-00C0DF256EC4}
  0
DICTIONARYVAR
  5
19A
102
{ACAD_REACTORS
330
191
102
}
330
191
100
DictionaryVariables
280
     0
  1
1:1
  0
DICTIONARYVAR
  5
193
102
{ACAD_REACTORS
330
191
102
}
330
191
100
DictionaryVariables
280
     0
  1
Standard
  0
DICTIONARYVAR
  5
192
102
{ACAD_REACTORS
330
191
102
}
330
191
100
DictionaryVariables
280
     0
  1
Standard
  0
DICTIONARYVAR
  5
196
102
{ACAD_REACTORS
330
191
102
}
330
191
100
DictionaryVariables
280
     0
  1
2
  0
DICTIONARYVAR
  5
197
102
{ACAD_REACTORS
330
191
102
}
330
191
100
DictionaryVariables
280
     0
  1
1
  0
DICTIONARYVAR
  5
19B
102
{ACAD_REACTORS
330
191
102
}
330
191
100
DictionaryVariables
280
     0
  1
1
  0
DICTIONARY
  5
19E
330
45
100
AcDbDictionary
280
     1
  3
ACAD_XREC_ROUNDTRIP
360
19F
  0
DICTIONARY
  5
19C
330
44
100
AcDbDictionary
280
     1
  3
ACAD_XREC_ROUNDTRIP
360
19D
  0
DICTIONARY
  5
1A0
330
46
100
AcDbDictionary
280
     1
  3
ACAD_XREC_ROUNDTRIP
360
1A1
  0
XRECORD
  5
19F
102
{ACAD_REACTORS
330
19E
102
}
330
19E
100
AcDbXrecord
102
MATERIAL
148
0.0
149
0.0
149
0.0
 93
        0
 94
      127
282
     0
 72
     1
 77
     1
171
     1
175
     1
179
     1
273
     0
  0
XRECORD
  5
19D
102
{ACAD_REACTORS
330
19C
102
}
330
19C
100
AcDbXrecord
102
MATERIAL
148
0.0
149
0.0
149
0.0
 93
        0
 94
      127
282
     0
 72
     1
 77
     1
171
     1
175
     1
179
     1
273
     0
  0
XRECORD
  5
1A1
102
{ACAD_REACTORS
330
1A0
102
}
330
1A0
100
AcDbXrecord
102
MATERIAL
148
0.0
149
0.0
149
0.0
 93
        0
 94
      127
282
     0
 72
     1
 77
     1
171
     1
175
     1
179
     1
273
     0
  0
ENDSEC
  0
EOF
